<svg xmlns="http://www.w3.org/2000/svg" xmlns:xlink="http://www.w3.org/1999/xlink" width="500" zoomAndPan="magnify" viewBox="0 0 375 374.999991" height="500" preserveAspectRatio="xMidYMid meet" version="1.0"><defs><g/></defs><g fill="#d9d9d9" fill-opacity="1"><g transform="translate(49.77406, 273.723178)"><g><path d="M 35.515625 -219.078125 C 48.453125 -224.453125 60.890625 -227.140625 72.828125 -227.140625 C 82.773438 -227.140625 93.019531 -223.457031 103.5625 -216.09375 C 109.332031 -212.113281 115.800781 -204.351562 122.96875 -192.8125 C 127.738281 -184.851562 133.804688 -170.425781 141.171875 -149.53125 L 177.59375 -46.265625 C 185.945312 -23.179688 194.453125 -4.828125 203.109375 8.796875 C 211.765625 22.429688 219.671875 32.679688 226.828125 39.546875 C 233.992188 46.410156 241.457031 51.234375 249.21875 54.015625 C 256.976562 56.804688 263.394531 58.203125 268.46875 58.203125 C 273.539062 58.203125 278.066406 57.800781 282.046875 57 L 282.34375 60 C 272.789062 63.175781 263.4375 64.765625 254.28125 64.765625 C 245.132812 64.765625 235.984375 62.425781 226.828125 57.75 C 217.679688 53.070312 209.128906 46.554688 201.171875 38.203125 C 184.054688 20.890625 169.53125 -5.472656 157.59375 -40.890625 L 145.953125 -74.921875 L 64.171875 -74.921875 L 43.578125 -21.78125 C 42.578125 -19.394531 42.078125 -17.007812 42.078125 -14.625 C 42.078125 -12.238281 43.117188 -9.703125 45.203125 -7.015625 C 47.296875 -4.328125 50.535156 -2.984375 54.921875 -2.984375 L 57.296875 -2.984375 L 57.296875 0 L -2.6875 0 L -2.6875 -2.984375 L 0 -2.984375 C 4.769531 -2.984375 9.441406 -4.425781 14.015625 -7.3125 C 18.597656 -10.195312 22.382812 -14.523438 25.375 -20.296875 L 99.390625 -197.59375 C 88.640625 -212.90625 75.304688 -220.5625 59.390625 -220.5625 C 52.234375 -220.5625 44.570312 -219.070312 36.40625 -216.09375 Z M 67.453125 -83.875 L 142.96875 -83.875 L 119.390625 -153.40625 C 114.804688 -166.738281 110.625 -177.1875 106.84375 -184.75 Z M 67.453125 -83.875 "/></g></g></g><g fill="#d9d9d9" fill-opacity="1"><g transform="translate(161.36018, 279.426355)"><g><path d="M 35.515625 -79.390625 C 25.171875 -65.859375 20 -51.234375 20 -35.515625 C 20 -16.816406 27.859375 -2.289062 43.578125 8.0625 C 52.734375 14.226562 63.128906 17.3125 74.765625 17.3125 C 86.410156 17.3125 96.507812 15.023438 105.0625 10.453125 C 121.175781 2.085938 130.226562 -11.941406 132.21875 -31.640625 C 132.414062 -33.035156 132.515625 -34.425781 132.515625 -35.8125 C 132.515625 -43.175781 130.472656 -51.132812 126.390625 -59.6875 C 122.316406 -68.25 115.703125 -76.109375 106.546875 -83.265625 L 52.828125 -125.65625 C 41.085938 -134.8125 35.21875 -146.648438 35.21875 -161.171875 C 35.21875 -175.703125 39.894531 -187.988281 49.25 -198.03125 C 58.601562 -208.082031 71.238281 -213.109375 87.15625 -213.109375 C 95.113281 -213.109375 103.769531 -212.113281 113.125 -210.125 L 125.0625 -210.125 L 125.65625 -173.40625 L 122.671875 -173.40625 C 122.472656 -182.957031 119.039062 -190.46875 112.375 -195.9375 C 105.707031 -201.414062 97.347656 -204.15625 87.296875 -204.15625 C 77.253906 -204.15625 68.847656 -200.820312 62.078125 -194.15625 C 55.316406 -187.488281 51.9375 -178.929688 51.9375 -168.484375 C 51.9375 -158.035156 56.3125 -149.332031 65.0625 -142.375 L 120.28125 -98.796875 C 142.164062 -81.484375 153.109375 -60.585938 153.109375 -36.109375 C 153.109375 -17.804688 145.847656 -2.085938 131.328125 11.046875 C 118.785156 22.390625 102.070312 28.0625 81.1875 28.0625 C 68.445312 28.0625 57.101562 25.671875 47.15625 20.890625 C 28.457031 12.140625 17.21875 -2.78125 13.4375 -23.875 C 12.832031 -27.0625 12.53125 -31.09375 12.53125 -35.96875 C 12.53125 -40.84375 13.921875 -47.503906 16.703125 -55.953125 C 19.492188 -64.410156 24.867188 -72.921875 32.828125 -81.484375 Z M 35.515625 -79.390625 "/></g></g></g><g fill="#000000" fill-opacity="1"><g transform="translate(51.605238, 32.999886)"><g><path d="M 35.421875 6.71875 C 32.753906 8.0625 30.050781 8.28125 27.3125 7.375 C 24.40625 6.445312 21.898438 4.46875 19.796875 1.4375 C 18.671875 -0.175781 17.707031 -2.050781 16.90625 -4.1875 L 15.734375 -7.296875 L 7.078125 -7.296875 L 5.125 -2.671875 C 5 -2.359375 4.9375 -2.101562 4.9375 -1.90625 C 4.9375 -1.707031 4.976562 -1.492188 5.0625 -1.265625 C 5.15625 -1.035156 5.34375 -0.828125 5.625 -0.640625 C 5.90625 -0.453125 6.21875 -0.359375 6.5625 -0.359375 L 6.859375 -0.359375 L 6.859375 0 L -1 0 L -1 -0.359375 L -0.671875 -0.359375 C -0.109375 -0.359375 0.445312 -0.523438 1 -0.859375 C 1.550781 -1.191406 2.007812 -1.6875 2.375 -2.34375 L 10.5625 -21.015625 C 9.601562 -23.160156 8.585938 -24.640625 7.515625 -25.453125 C 6.609375 -26.140625 5.742188 -26.484375 4.921875 -26.484375 C 4.109375 -26.484375 3.347656 -26.359375 2.640625 -26.109375 L 2.5625 -26.484375 C 4.320312 -27.378906 6.007812 -27.828125 7.625 -27.828125 C 9.625 -27.828125 11.421875 -27.046875 13.015625 -25.484375 C 14.578125 -23.941406 15.957031 -21.71875 17.15625 -18.8125 L 22.46875 -5.6875 C 24.476562 -0.71875 26.535156 2.691406 28.640625 4.546875 C 29.492188 5.304688 30.367188 5.832031 31.265625 6.125 C 32.171875 6.414062 32.9375 6.5625 33.5625 6.5625 C 34.1875 6.5625 34.796875 6.488281 35.390625 6.34375 Z M 7.703125 -8.875 L 15.171875 -8.875 L 12.609375 -15.65625 C 12.484375 -16 12.3125 -16.46875 12.09375 -17.0625 C 11.875 -17.664062 11.726562 -18.09375 11.65625 -18.34375 Z M 7.703125 -8.875 "/></g></g></g><g fill="#000000" fill-opacity="1"><g transform="translate(77.455146, 32.999886)"><g><path d="M 16.796875 0.5 C 12.078125 0.488281 8.375 -0.703125 5.6875 -3.078125 C 3 -5.453125 1.65625 -8.703125 1.65625 -12.828125 C 1.65625 -16.960938 2.984375 -20.222656 5.640625 -22.609375 C 8.304688 -24.992188 11.960938 -26.1875 16.609375 -26.1875 C 20.160156 -26.1875 23.207031 -25.523438 25.75 -24.203125 L 25.8125 -17.890625 L 25.53125 -17.890625 C 24.28125 -22.390625 21.429688 -24.640625 16.984375 -24.640625 C 14.097656 -24.640625 11.816406 -23.59375 10.140625 -21.5 C 8.460938 -19.414062 7.625 -16.5625 7.625 -12.9375 C 7.625 -9.320312 8.425781 -6.453125 10.03125 -4.328125 C 11.632812 -2.203125 13.800781 -1.101562 16.53125 -1.03125 C 19.375 -1.03125 21.539062 -1.738281 23.03125 -3.15625 C 24.539062 -4.625 25.59375 -7.140625 26.1875 -10.703125 L 26.484375 -10.703125 L 26.84375 -4.40625 C 24.863281 -1.125 21.515625 0.507812 16.796875 0.5 Z M 16.796875 0.5 "/></g></g></g><g fill="#000000" fill-opacity="1"><g transform="translate(106.055043, 32.999886)"><g><path d="M 16.796875 0.5 C 12.078125 0.488281 8.375 -0.703125 5.6875 -3.078125 C 3 -5.453125 1.65625 -8.703125 1.65625 -12.828125 C 1.65625 -16.960938 2.984375 -20.222656 5.640625 -22.609375 C 8.304688 -24.992188 11.960938 -26.1875 16.609375 -26.1875 C 20.160156 -26.1875 23.207031 -25.523438 25.75 -24.203125 L 25.8125 -17.890625 L 25.53125 -17.890625 C 24.28125 -22.390625 21.429688 -24.640625 16.984375 -24.640625 C 14.097656 -24.640625 11.816406 -23.59375 10.140625 -21.5 C 8.460938 -19.414062 7.625 -16.5625 7.625 -12.9375 C 7.625 -9.320312 8.425781 -6.453125 10.03125 -4.328125 C 11.632812 -2.203125 13.800781 -1.101562 16.53125 -1.03125 C 19.375 -1.03125 21.539062 -1.738281 23.03125 -3.15625 C 24.539062 -4.625 25.59375 -7.140625 26.1875 -10.703125 L 26.484375 -10.703125 L 26.84375 -4.40625 C 24.863281 -1.125 21.515625 0.507812 16.796875 0.5 Z M 16.796875 0.5 "/></g></g></g><g fill="#000000" fill-opacity="1"><g transform="translate(134.654941, 32.999886)"><g><path d="M 16.140625 -26.1875 C 20.660156 -26.1875 24.253906 -24.988281 26.921875 -22.59375 C 29.585938 -20.195312 30.921875 -16.941406 30.921875 -12.828125 C 30.921875 -8.722656 29.585938 -5.472656 26.921875 -3.078125 C 24.253906 -0.679688 20.65625 0.515625 16.125 0.515625 C 11.601562 0.515625 8.007812 -0.679688 5.34375 -3.078125 C 2.6875 -5.472656 1.359375 -8.722656 1.359375 -12.828125 C 1.359375 -15.546875 1.960938 -17.910156 3.171875 -19.921875 C 4.378906 -21.941406 6.09375 -23.488281 8.3125 -24.5625 C 10.539062 -25.644531 13.148438 -26.1875 16.140625 -26.1875 Z M 9.734375 -4.203125 C 11.316406 -2.085938 13.453125 -1.03125 16.140625 -1.03125 C 18.828125 -1.03125 20.957031 -2.085938 22.53125 -4.203125 C 24.113281 -6.316406 24.90625 -9.191406 24.90625 -12.828125 C 24.90625 -15.222656 24.546875 -17.3125 23.828125 -19.09375 C 23.117188 -20.882812 22.101562 -22.253906 20.78125 -23.203125 C 19.46875 -24.160156 17.921875 -24.640625 16.140625 -24.640625 C 13.453125 -24.640625 11.316406 -23.582031 9.734375 -21.46875 C 8.160156 -19.351562 7.375 -16.472656 7.375 -12.828125 C 7.375 -9.191406 8.160156 -6.316406 9.734375 -4.203125 Z M 9.734375 -4.203125 "/></g></g></g><g fill="#000000" fill-opacity="1"><g transform="translate(166.884829, 32.999886)"><g><path d="M 28.96875 -25.296875 L 28.34375 -25.296875 C 27.832031 -25.296875 27.382812 -25.128906 27 -24.796875 C 26.625 -24.472656 26.4375 -24.066406 26.4375 -23.578125 L 26.4375 -9.28125 C 26.4375 -6.269531 25.492188 -3.882812 23.609375 -2.125 C 21.734375 -0.363281 19.15625 0.515625 15.875 0.515625 C 12.007812 0.515625 9.050781 -0.34375 7 -2.0625 C 4.945312 -3.789062 3.921875 -6.179688 3.921875 -9.234375 L 3.921875 -23.46875 C 3.921875 -24.007812 3.726562 -24.445312 3.34375 -24.78125 C 2.96875 -25.125 2.515625 -25.296875 1.984375 -25.296875 L 1.390625 -25.296875 L 1.390625 -25.671875 L 11.953125 -25.671875 L 11.953125 -25.296875 L 11.375 -25.296875 C 10.832031 -25.296875 10.378906 -25.128906 10.015625 -24.796875 C 9.648438 -24.472656 9.453125 -24.054688 9.421875 -23.546875 L 9.421875 -9.53125 C 9.421875 -6.9375 10.054688 -4.878906 11.328125 -3.359375 C 12.597656 -1.847656 14.34375 -1.09375 16.5625 -1.09375 C 18.789062 -1.09375 20.550781 -1.804688 21.84375 -3.234375 C 23.144531 -4.671875 23.8125 -6.613281 23.84375 -9.0625 L 23.84375 -23.546875 C 23.84375 -24.054688 23.648438 -24.472656 23.265625 -24.796875 C 22.890625 -25.128906 22.429688 -25.296875 21.890625 -25.296875 L 21.3125 -25.296875 L 21.3125 -25.671875 L 28.96875 -25.671875 Z M 28.96875 -25.296875 "/></g></g></g><g fill="#000000" fill-opacity="1"><g transform="translate(196.988058, 32.999886)"><g><path d="M 29.953125 -25.296875 C 29.347656 -25.296875 28.820312 -25.082031 28.375 -24.65625 C 27.9375 -24.226562 27.707031 -23.710938 27.6875 -23.109375 L 27.6875 -4.1875 C 27.6875 -2.539062 27.796875 -1.15625 28.015625 -0.03125 L 28.125 0.515625 L 27.796875 0.515625 L 9.28125 -17.125 L 9.28125 -2.5625 C 9.28125 -1.957031 9.5 -1.4375 9.9375 -1 C 10.375 -0.570312 10.898438 -0.359375 11.515625 -0.359375 L 12.21875 -0.359375 L 12.21875 0 L 1.09375 0 L 1.09375 -0.359375 L 1.765625 -0.359375 C 2.398438 -0.359375 2.9375 -0.570312 3.375 -1 C 3.8125 -1.4375 4.03125 -1.972656 4.03125 -2.609375 L 4.03125 -21.640625 C 4.03125 -23.253906 3.921875 -24.597656 3.703125 -25.671875 L 3.625 -26.21875 L 3.953125 -26.21875 L 22.484375 -8.578125 L 22.484375 -23.0625 C 22.453125 -23.695312 22.21875 -24.226562 21.78125 -24.65625 C 21.34375 -25.082031 20.816406 -25.296875 20.203125 -25.296875 L 19.546875 -25.296875 L 19.546875 -25.671875 L 30.65625 -25.671875 L 30.65625 -25.296875 Z M 29.953125 -25.296875 "/></g></g><g transform="translate(228.704615, 32.999886)"><g><path d="M 15 -24.171875 L 15 -2.640625 C 15.019531 -2.003906 15.253906 -1.460938 15.703125 -1.015625 C 16.160156 -0.578125 16.707031 -0.359375 17.34375 -0.359375 L 17.78125 -0.359375 L 17.828125 0 L 6.671875 0 L 6.671875 -0.359375 L 7.15625 -0.359375 C 7.757812 -0.359375 8.285156 -0.578125 8.734375 -1.015625 C 9.191406 -1.460938 9.445312 -1.992188 9.5 -2.609375 L 9.5 -24.171875 L 4.546875 -24.171875 C 3.421875 -24.140625 2.523438 -23.78125 1.859375 -23.09375 C 1.203125 -22.414062 0.875 -21.523438 0.875 -20.421875 L 0.875 -19.984375 L 0.515625 -19.984375 L 0.515625 -26.359375 C 0.859375 -26.210938 1.472656 -26.066406 2.359375 -25.921875 C 3.253906 -25.773438 4.082031 -25.703125 4.84375 -25.703125 L 19.625 -25.703125 C 20.820312 -25.734375 21.796875 -25.832031 22.546875 -26 C 23.304688 -26.164062 23.773438 -26.285156 23.953125 -26.359375 L 23.953125 -19.984375 L 23.578125 -19.984375 L 23.578125 -20.421875 C 23.578125 -21.523438 23.242188 -22.414062 22.578125 -23.09375 C 21.921875 -23.78125 21.03125 -24.140625 19.90625 -24.171875 Z M 15 -24.171875 "/></g></g></g><g fill="#000000" fill-opacity="1"><g transform="translate(253.124526, 32.999886)"><g><path d="M 2.015625 -0.359375 C 2.648438 -0.359375 3.191406 -0.582031 3.640625 -1.03125 C 4.097656 -1.488281 4.335938 -2.035156 4.359375 -2.671875 L 4.359375 -23.03125 C 4.335938 -23.664062 4.097656 -24.203125 3.640625 -24.640625 C 3.191406 -25.078125 2.648438 -25.296875 2.015625 -25.296875 L 1.546875 -25.296875 L 1.546875 -25.671875 L 12.6875 -25.671875 L 12.65625 -25.296875 L 12.21875 -25.296875 C 11.582031 -25.296875 11.03125 -25.078125 10.5625 -24.640625 C 10.09375 -24.203125 9.859375 -23.664062 9.859375 -23.03125 L 9.859375 -2.671875 C 9.859375 -2.035156 10.09375 -1.488281 10.5625 -1.03125 C 11.03125 -0.582031 11.582031 -0.359375 12.21875 -0.359375 L 12.65625 -0.359375 L 12.6875 0 L 1.546875 0 L 1.546875 -0.359375 Z M 2.015625 -0.359375 "/></g></g></g><g fill="#000000" fill-opacity="1"><g transform="translate(267.277809, 32.999886)"><g><path d="M 29.953125 -25.296875 C 29.347656 -25.296875 28.820312 -25.082031 28.375 -24.65625 C 27.9375 -24.226562 27.707031 -23.710938 27.6875 -23.109375 L 27.6875 -4.1875 C 27.6875 -2.539062 27.796875 -1.15625 28.015625 -0.03125 L 28.125 0.515625 L 27.796875 0.515625 L 9.28125 -17.125 L 9.28125 -2.5625 C 9.28125 -1.957031 9.5 -1.4375 9.9375 -1 C 10.375 -0.570312 10.898438 -0.359375 11.515625 -0.359375 L 12.21875 -0.359375 L 12.21875 0 L 1.09375 0 L 1.09375 -0.359375 L 1.765625 -0.359375 C 2.398438 -0.359375 2.9375 -0.570312 3.375 -1 C 3.8125 -1.4375 4.03125 -1.972656 4.03125 -2.609375 L 4.03125 -21.640625 C 4.03125 -23.253906 3.921875 -24.597656 3.703125 -25.671875 L 3.625 -26.21875 L 3.953125 -26.21875 L 22.484375 -8.578125 L 22.484375 -23.0625 C 22.453125 -23.695312 22.21875 -24.226562 21.78125 -24.65625 C 21.34375 -25.082031 20.816406 -25.296875 20.203125 -25.296875 L 19.546875 -25.296875 L 19.546875 -25.671875 L 30.65625 -25.671875 L 30.65625 -25.296875 Z M 29.953125 -25.296875 "/></g></g><g transform="translate(298.994366, 32.999886)"><g><path d="M 30.03125 -11.921875 L 29.484375 -11.921875 C 28.898438 -11.921875 28.445312 -11.78125 28.125 -11.5 C 27.8125 -11.21875 27.65625 -10.804688 27.65625 -10.265625 L 27.65625 -4.21875 C 26.695312 -2.96875 25.117188 -1.863281 22.921875 -0.90625 C 20.722656 0.0390625 18.253906 0.515625 15.515625 0.515625 C 11.328125 0.515625 7.96875 -0.6875 5.4375 -3.09375 C 2.914062 -5.507812 1.65625 -8.765625 1.65625 -12.859375 C 1.65625 -16.953125 2.914062 -20.195312 5.4375 -22.59375 C 7.96875 -24.988281 11.398438 -26.1875 15.734375 -26.1875 C 17.691406 -26.1875 19.585938 -25.992188 21.421875 -25.609375 C 23.253906 -25.234375 24.734375 -24.765625 25.859375 -24.203125 L 25.921875 -17.890625 L 25.59375 -17.890625 C 24.957031 -20.265625 23.867188 -21.984375 22.328125 -23.046875 C 20.785156 -24.109375 18.953125 -24.640625 16.828125 -24.640625 C 13.867188 -24.640625 11.59375 -23.582031 10 -21.46875 C 8.414062 -19.351562 7.625 -16.457031 7.625 -12.78125 C 7.625 -9.101562 8.347656 -6.222656 9.796875 -4.140625 C 11.253906 -2.066406 13.316406 -1.03125 15.984375 -1.03125 C 17.921875 -1.03125 19.535156 -1.578125 20.828125 -2.671875 C 21.460938 -3.234375 21.925781 -3.894531 22.21875 -4.65625 L 22.21875 -10.265625 C 22.21875 -10.804688 22.050781 -11.21875 21.71875 -11.5 C 21.394531 -11.78125 20.925781 -11.921875 20.3125 -11.921875 L 19.734375 -11.921875 L 19.734375 -12.28125 L 30.03125 -12.28125 Z M 30.03125 -11.921875 "/></g></g></g><g fill="#000000" fill-opacity="1"><g transform="translate(42.004839, 359.823447)"><g><path d="M 4.328125 -13.09375 C 3.097656 -11.125 2.484375 -9.113281 2.484375 -7.0625 C 2.484375 -4.8125 3.300781 -2.765625 4.9375 -0.921875 C 5.820312 0.117188 6.945312 0.929688 8.3125 1.515625 C 9.6875 2.097656 11.1875 2.390625 12.8125 2.390625 C 14.445312 2.390625 15.910156 2.082031 17.203125 1.46875 C 19.785156 0.207031 21.078125 -1.847656 21.078125 -4.703125 C 21.078125 -5.773438 20.710938 -6.910156 19.984375 -8.109375 C 19.265625 -9.304688 18.179688 -10.382812 16.734375 -11.34375 L 8.90625 -16.59375 C 5.851562 -18.5 4.328125 -20.960938 4.328125 -23.984375 C 4.328125 -24.285156 4.34375 -24.59375 4.375 -24.90625 C 4.5625 -27.269531 5.507812 -29.195312 7.21875 -30.6875 C 8.925781 -32.175781 11.207031 -32.921875 14.0625 -32.921875 C 15.8125 -32.921875 17.929688 -32.769531 20.421875 -32.46875 L 23.28125 -32.46875 L 22.6875 -25.6875 L 22.265625 -25.6875 C 22.234375 -27.28125 21.617188 -28.5625 20.421875 -29.53125 C 19.222656 -30.5 17.640625 -30.984375 15.671875 -30.984375 C 13.273438 -30.984375 11.539062 -30.257812 10.46875 -28.8125 C 9.945312 -28.082031 9.6875 -27.285156 9.6875 -26.421875 C 9.6875 -25.554688 9.945312 -24.820312 10.46875 -24.21875 C 10.988281 -23.625 11.816406 -22.972656 12.953125 -22.265625 L 21.578125 -16.640625 C 23.328125 -15.503906 24.695312 -14.171875 25.6875 -12.640625 C 26.851562 -10.816406 27.4375 -8.957031 27.4375 -7.0625 C 27.4375 -5.820312 27.179688 -4.519531 26.671875 -3.15625 C 26.160156 -1.789062 25.328125 -0.523438 24.171875 0.640625 C 23.023438 1.804688 21.546875 2.757812 19.734375 3.5 C 17.921875 4.238281 15.914062 4.609375 13.71875 4.609375 C 11.519531 4.609375 9.53125 4.222656 7.75 3.453125 C 4.457031 2.078125 2.363281 -0.332031 1.46875 -3.78125 C 1.289062 -4.519531 1.203125 -5.289062 1.203125 -6.09375 C 1.203125 -8.664062 2.109375 -11.109375 3.921875 -13.421875 Z M 4.328125 -13.09375 "/></g></g></g><g fill="#000000" fill-opacity="1"><g transform="translate(70.720386, 359.823447)"><g><path d="M 20.28125 -32.921875 C 25.96875 -32.921875 30.488281 -31.414062 33.84375 -28.40625 C 37.195312 -25.394531 38.875 -21.304688 38.875 -16.140625 C 38.875 -10.972656 37.195312 -6.882812 33.84375 -3.875 C 30.488281 -0.863281 25.96875 0.640625 20.28125 0.640625 C 14.601562 0.640625 10.085938 -0.863281 6.734375 -3.875 C 3.378906 -6.882812 1.703125 -10.972656 1.703125 -16.140625 C 1.703125 -19.546875 2.460938 -22.515625 3.984375 -25.046875 C 5.503906 -27.585938 7.660156 -29.535156 10.453125 -30.890625 C 13.253906 -32.242188 16.53125 -32.921875 20.28125 -32.921875 Z M 12.234375 -5.28125 C 14.222656 -2.625 16.90625 -1.296875 20.28125 -1.296875 C 23.664062 -1.296875 26.347656 -2.625 28.328125 -5.28125 C 30.316406 -7.9375 31.3125 -11.554688 31.3125 -16.140625 C 31.3125 -19.148438 30.863281 -21.773438 29.96875 -24.015625 C 29.082031 -26.265625 27.804688 -27.988281 26.140625 -29.1875 C 24.484375 -30.382812 22.53125 -30.984375 20.28125 -30.984375 C 16.90625 -30.984375 14.222656 -29.65625 12.234375 -27 C 10.253906 -24.34375 9.265625 -20.722656 9.265625 -16.140625 C 9.265625 -11.554688 10.253906 -7.9375 12.234375 -5.28125 Z M 12.234375 -5.28125 "/></g></g></g><g fill="#000000" fill-opacity="1"><g transform="translate(111.235582, 359.823447)"><g><path d="M 2.53125 -0.46875 C 3.332031 -0.46875 4.015625 -0.75 4.578125 -1.3125 C 5.148438 -1.882812 5.453125 -2.566406 5.484375 -3.359375 L 5.484375 -28.90625 C 5.453125 -29.707031 5.148438 -30.390625 4.578125 -30.953125 C 4.015625 -31.523438 3.332031 -31.8125 2.53125 -31.8125 L 1.9375 -31.8125 L 1.9375 -32.28125 L 15.953125 -32.28125 L 15.90625 -31.8125 L 15.359375 -31.8125 C 14.554688 -31.8125 13.863281 -31.523438 13.28125 -30.953125 C 12.695312 -30.390625 12.40625 -29.707031 12.40625 -28.90625 L 12.40625 -1.984375 L 18.4375 -1.984375 C 20.6875 -1.984375 22.570312 -2.628906 24.09375 -3.921875 C 25.613281 -5.210938 26.742188 -7.039062 27.484375 -9.40625 L 27.9375 -9.40625 L 25.828125 0 L 1.9375 0 L 1.9375 -0.46875 Z M 2.53125 -0.46875 "/></g></g></g><g fill="#000000" fill-opacity="1"><g transform="translate(139.628496, 359.823447)"><g><path d="M 36.421875 -31.8125 L 35.640625 -31.8125 C 34.992188 -31.8125 34.429688 -31.601562 33.953125 -31.1875 C 33.484375 -30.78125 33.25 -30.265625 33.25 -29.640625 L 33.25 -11.671875 C 33.25 -7.890625 32.0625 -4.890625 29.6875 -2.671875 C 27.320312 -0.460938 24.082031 0.640625 19.96875 0.640625 C 15.113281 0.640625 11.394531 -0.441406 8.8125 -2.609375 C 6.226562 -4.773438 4.9375 -7.78125 4.9375 -11.625 L 4.9375 -29.515625 C 4.9375 -30.191406 4.695312 -30.742188 4.21875 -31.171875 C 3.738281 -31.597656 3.160156 -31.8125 2.484375 -31.8125 L 1.75 -31.8125 L 1.75 -32.28125 L 15.03125 -32.28125 L 15.03125 -31.8125 L 14.296875 -31.8125 C 13.617188 -31.8125 13.046875 -31.601562 12.578125 -31.1875 C 12.117188 -30.78125 11.875 -30.253906 11.84375 -29.609375 L 11.84375 -11.984375 C 11.84375 -8.722656 12.640625 -6.140625 14.234375 -4.234375 C 15.835938 -2.335938 18.035156 -1.390625 20.828125 -1.390625 C 23.628906 -1.390625 25.84375 -2.285156 27.46875 -4.078125 C 29.101562 -5.878906 29.9375 -8.316406 29.96875 -11.390625 L 29.96875 -29.609375 C 29.96875 -30.253906 29.726562 -30.78125 29.25 -31.1875 C 28.78125 -31.601562 28.207031 -31.8125 27.53125 -31.8125 L 26.796875 -31.8125 L 26.796875 -32.28125 L 36.421875 -32.28125 Z M 36.421875 -31.8125 "/></g></g></g><g fill="#000000" fill-opacity="1"><g transform="translate(177.470332, 359.823447)"><g><path d="M 18.859375 -30.390625 L 18.859375 -3.3125 C 18.890625 -2.519531 19.1875 -1.847656 19.75 -1.296875 C 20.320312 -0.742188 21.007812 -0.46875 21.8125 -0.46875 L 22.359375 -0.46875 L 22.40625 0 L 8.390625 0 L 8.390625 -0.46875 L 8.984375 -0.46875 C 9.753906 -0.46875 10.421875 -0.742188 10.984375 -1.296875 C 11.554688 -1.847656 11.875 -2.507812 11.9375 -3.28125 L 11.9375 -30.390625 L 5.71875 -30.390625 C 4.300781 -30.359375 3.175781 -29.910156 2.34375 -29.046875 C 1.519531 -28.191406 1.109375 -27.070312 1.109375 -25.6875 L 1.109375 -25.125 L 0.640625 -25.125 L 0.640625 -33.15625 C 1.078125 -32.96875 1.851562 -32.78125 2.96875 -32.59375 C 4.09375 -32.414062 5.132812 -32.328125 6.09375 -32.328125 L 24.671875 -32.328125 C 26.171875 -32.359375 27.394531 -32.476562 28.34375 -32.6875 C 29.300781 -32.90625 29.890625 -33.0625 30.109375 -33.15625 L 30.109375 -25.125 L 29.640625 -25.125 L 29.640625 -25.6875 C 29.640625 -27.070312 29.222656 -28.191406 28.390625 -29.046875 C 27.566406 -29.910156 26.445312 -30.359375 25.03125 -30.390625 Z M 18.859375 -30.390625 "/></g></g></g><g fill="#000000" fill-opacity="1"><g transform="translate(208.167846, 359.823447)"><g><path d="M 2.53125 -0.46875 C 3.332031 -0.46875 4.015625 -0.75 4.578125 -1.3125 C 5.148438 -1.882812 5.453125 -2.566406 5.484375 -3.359375 L 5.484375 -28.953125 C 5.453125 -29.753906 5.148438 -30.429688 4.578125 -30.984375 C 4.015625 -31.535156 3.332031 -31.8125 2.53125 -31.8125 L 1.9375 -31.8125 L 1.9375 -32.28125 L 15.953125 -32.28125 L 15.90625 -31.8125 L 15.359375 -31.8125 C 14.554688 -31.8125 13.863281 -31.535156 13.28125 -30.984375 C 12.695312 -30.429688 12.40625 -29.753906 12.40625 -28.953125 L 12.40625 -3.359375 C 12.40625 -2.566406 12.695312 -1.882812 13.28125 -1.3125 C 13.863281 -0.75 14.554688 -0.46875 15.359375 -0.46875 L 15.90625 -0.46875 L 15.953125 0 L 1.9375 0 L 1.9375 -0.46875 Z M 2.53125 -0.46875 "/></g></g></g><g fill="#000000" fill-opacity="1"><g transform="translate(225.959504, 359.823447)"><g><path d="M 20.28125 -32.921875 C 25.96875 -32.921875 30.488281 -31.414062 33.84375 -28.40625 C 37.195312 -25.394531 38.875 -21.304688 38.875 -16.140625 C 38.875 -10.972656 37.195312 -6.882812 33.84375 -3.875 C 30.488281 -0.863281 25.96875 0.640625 20.28125 0.640625 C 14.601562 0.640625 10.085938 -0.863281 6.734375 -3.875 C 3.378906 -6.882812 1.703125 -10.972656 1.703125 -16.140625 C 1.703125 -19.546875 2.460938 -22.515625 3.984375 -25.046875 C 5.503906 -27.585938 7.660156 -29.535156 10.453125 -30.890625 C 13.253906 -32.242188 16.53125 -32.921875 20.28125 -32.921875 Z M 12.234375 -5.28125 C 14.222656 -2.625 16.90625 -1.296875 20.28125 -1.296875 C 23.664062 -1.296875 26.347656 -2.625 28.328125 -5.28125 C 30.316406 -7.9375 31.3125 -11.554688 31.3125 -16.140625 C 31.3125 -19.148438 30.863281 -21.773438 29.96875 -24.015625 C 29.082031 -26.265625 27.804688 -27.988281 26.140625 -29.1875 C 24.484375 -30.382812 22.53125 -30.984375 20.28125 -30.984375 C 16.90625 -30.984375 14.222656 -29.65625 12.234375 -27 C 10.253906 -24.34375 9.265625 -20.722656 9.265625 -16.140625 C 9.265625 -11.554688 10.253906 -7.9375 12.234375 -5.28125 Z M 12.234375 -5.28125 "/></g></g></g><g fill="#000000" fill-opacity="1"><g transform="translate(266.4747, 359.823447)"><g><path d="M 37.671875 -31.8125 C 36.898438 -31.8125 36.238281 -31.539062 35.6875 -31 C 35.132812 -30.46875 34.84375 -29.816406 34.8125 -29.046875 L 34.8125 -5.25 C 34.8125 -3.195312 34.953125 -1.460938 35.234375 -0.046875 L 35.359375 0.640625 L 34.953125 0.640625 L 11.671875 -21.53125 L 11.671875 -3.234375 C 11.671875 -2.460938 11.945312 -1.804688 12.5 -1.265625 C 13.050781 -0.734375 13.710938 -0.46875 14.484375 -0.46875 L 15.359375 -0.46875 L 15.359375 0 L 1.390625 0 L 1.390625 -0.46875 L 2.21875 -0.46875 C 3.007812 -0.46875 3.679688 -0.734375 4.234375 -1.265625 C 4.796875 -1.804688 5.078125 -2.476562 5.078125 -3.28125 L 5.078125 -27.203125 C 5.078125 -29.234375 4.9375 -30.925781 4.65625 -32.28125 L 4.5625 -32.96875 L 4.984375 -32.96875 L 28.265625 -10.796875 L 28.265625 -29 C 28.234375 -29.800781 27.941406 -30.46875 27.390625 -31 C 26.835938 -31.539062 26.175781 -31.8125 25.40625 -31.8125 L 24.578125 -31.8125 L 24.578125 -32.28125 L 38.546875 -32.28125 L 38.546875 -31.8125 Z M 37.671875 -31.8125 "/></g></g></g><g fill="#000000" fill-opacity="1"><g transform="translate(306.344607, 359.823447)"><g><path d="M 2.3125 -4.28125 C 2.3125 -6.5 2.785156 -8.390625 3.734375 -9.953125 L 4.15625 -9.953125 C 4.125 -9.710938 4.109375 -9.46875 4.109375 -9.21875 C 4.109375 -7.101562 4.867188 -5.253906 6.390625 -3.671875 C 7.910156 -2.085938 9.992188 -1.296875 12.640625 -1.296875 C 14.691406 -1.296875 16.296875 -1.785156 17.453125 -2.765625 C 18.609375 -3.742188 19.1875 -4.988281 19.1875 -6.5 C 19.1875 -8.3125 17.957031 -9.894531 15.5 -11.25 L 7.46875 -16.546875 C 5.875 -17.472656 4.726562 -18.585938 4.03125 -19.890625 C 3.34375 -21.203125 3 -22.535156 3 -23.890625 C 3 -26.773438 3.910156 -29 5.734375 -30.5625 C 7.566406 -32.132812 9.910156 -32.921875 12.765625 -32.921875 C 14.460938 -32.921875 16.554688 -32.769531 19.046875 -32.46875 L 21.953125 -32.46875 L 21.34375 -25.6875 L 20.890625 -25.6875 C 20.890625 -27.28125 20.296875 -28.5625 19.109375 -29.53125 C 17.929688 -30.5 16.359375 -30.984375 14.390625 -30.984375 C 11.992188 -30.984375 10.253906 -30.242188 9.171875 -28.765625 C 8.617188 -28.066406 8.34375 -27.269531 8.34375 -26.375 C 8.34375 -24.894531 9.421875 -23.523438 11.578125 -22.265625 L 20.375 -16.546875 C 23.144531 -14.953125 24.53125 -12.601562 24.53125 -9.5 C 24.53125 -6.207031 23.414062 -3.691406 21.1875 -1.953125 C 18.957031 -0.222656 16 0.640625 12.3125 0.640625 C 10.21875 0.640625 8.285156 0.390625 6.515625 -0.109375 C 4.753906 -0.617188 3.457031 -1.304688 2.625 -2.171875 C 2.414062 -2.753906 2.3125 -3.457031 2.3125 -4.28125 Z M 2.3125 -4.28125 "/></g></g></g></svg>