<svg xmlns="http://www.w3.org/2000/svg" xmlns:xlink="http://www.w3.org/1999/xlink" width="500" zoomAndPan="magnify" viewBox="0 0 375 374.999991" height="500" preserveAspectRatio="xMidYMid meet" version="1.0"><defs><g/></defs><g fill="#d9d9d9" fill-opacity="1"><g transform="translate(45.528777, 276.460604)"><g><path d="M 36.625 -225.828125 C 49.945312 -231.367188 62.765625 -234.140625 75.078125 -234.140625 C 85.328125 -234.140625 95.890625 -230.34375 106.765625 -222.75 C 112.710938 -218.644531 119.378906 -210.644531 126.765625 -198.75 C 131.691406 -190.550781 137.945312 -175.679688 145.53125 -154.140625 L 183.0625 -47.6875 C 191.675781 -23.894531 200.445312 -4.972656 209.375 9.078125 C 218.300781 23.128906 226.453125 33.691406 233.828125 40.765625 C 241.210938 47.835938 248.90625 52.8125 256.90625 55.6875 C 264.90625 58.5625 271.519531 60 276.75 60 C 281.976562 60 286.644531 59.585938 290.75 58.765625 L 291.0625 61.84375 C 281.21875 65.125 271.578125 66.765625 262.140625 66.765625 C 252.703125 66.765625 243.265625 64.351562 233.828125 59.53125 C 224.398438 54.707031 215.582031 47.988281 207.375 39.375 C 189.738281 21.53125 174.765625 -5.644531 162.453125 -42.15625 L 150.453125 -77.21875 L 66.15625 -77.21875 L 44.921875 -22.453125 C 43.898438 -19.992188 43.390625 -17.535156 43.390625 -15.078125 C 43.390625 -12.617188 44.460938 -10.003906 46.609375 -7.234375 C 48.765625 -4.460938 52.097656 -3.078125 56.609375 -3.078125 L 59.078125 -3.078125 L 59.078125 0 L -2.765625 0 L -2.765625 -3.078125 L 0 -3.078125 C 4.925781 -3.078125 9.75 -4.5625 14.46875 -7.53125 C 19.1875 -10.507812 23.082031 -14.972656 26.15625 -20.921875 L 102.453125 -203.671875 C 91.378906 -219.472656 77.640625 -227.375 61.234375 -227.375 C 53.847656 -227.375 45.953125 -225.832031 37.546875 -222.75 Z M 69.53125 -86.453125 L 147.375 -86.453125 L 123.078125 -158.140625 C 118.359375 -171.878906 114.050781 -182.648438 110.15625 -190.453125 Z M 69.53125 -86.453125 "/></g></g></g><g fill="#d9d9d9" fill-opacity="1"><g transform="translate(160.554457, 282.339577)"><g><path d="M 36.609375 -81.84375 C 25.941406 -67.894531 20.609375 -52.816406 20.609375 -36.609375 C 20.609375 -17.328125 28.710938 -2.351562 44.921875 8.3125 C 54.359375 14.664062 65.078125 17.84375 77.078125 17.84375 C 89.078125 17.84375 99.484375 15.484375 108.296875 10.765625 C 124.910156 2.148438 134.242188 -12.304688 136.296875 -32.609375 C 136.503906 -34.046875 136.609375 -35.484375 136.609375 -36.921875 C 136.609375 -44.503906 134.503906 -52.707031 130.296875 -61.53125 C 126.085938 -70.351562 119.269531 -78.457031 109.84375 -85.84375 L 54.453125 -129.53125 C 42.359375 -138.96875 36.3125 -151.171875 36.3125 -166.140625 C 36.3125 -181.117188 41.128906 -193.785156 50.765625 -204.140625 C 60.398438 -214.492188 73.425781 -219.671875 89.84375 -219.671875 C 98.039062 -219.671875 106.960938 -218.644531 116.609375 -216.59375 L 128.921875 -216.59375 L 129.53125 -178.75 L 126.453125 -178.75 C 126.242188 -188.601562 122.703125 -196.347656 115.828125 -201.984375 C 108.960938 -207.628906 100.347656 -210.453125 89.984375 -210.453125 C 79.628906 -210.453125 70.960938 -207.015625 63.984375 -200.140625 C 57.015625 -193.265625 53.53125 -184.441406 53.53125 -173.671875 C 53.53125 -162.910156 58.046875 -153.941406 67.078125 -146.765625 L 123.984375 -101.84375 C 146.546875 -84 157.828125 -62.460938 157.828125 -37.234375 C 157.828125 -18.359375 150.34375 -2.148438 135.375 11.390625 C 122.457031 23.078125 105.226562 28.921875 83.6875 28.921875 C 70.5625 28.921875 58.867188 26.457031 48.609375 21.53125 C 29.328125 12.507812 17.738281 -2.867188 13.84375 -24.609375 C 13.226562 -27.890625 12.921875 -32.039062 12.921875 -37.0625 C 12.921875 -42.09375 14.351562 -48.96875 17.21875 -57.6875 C 20.09375 -66.40625 25.632812 -75.175781 33.84375 -84 Z M 36.609375 -81.84375 "/></g></g></g></svg>