<svg xmlns="http://www.w3.org/2000/svg" xmlns:xlink="http://www.w3.org/1999/xlink" width="500" zoomAndPan="magnify" viewBox="0 0 375 374.999991" height="500" preserveAspectRatio="xMidYMid meet" version="1.0"><defs><clipPath id="c6267d89ed"><path d="M 0 181 L 375 181 L 375 374.71875 L 0 374.71875 Z M 0 181 " clip-rule="nonzero"/></clipPath><clipPath id="3372e2b318"><path d="M 155 0.46875 L 220 0.46875 L 220 64 L 155 64 Z M 155 0.46875 " clip-rule="nonzero"/></clipPath></defs><g clip-path="url(#c6267d89ed)"><path fill="#d9d9d9" d="M 351.332031 185.867188 C 350.070312 185.125 343.933594 181.960938 337.058594 184.605469 L 187.5 334.214844 L 37.941406 184.605469 C 31.066406 181.933594 24.929688 185.125 23.667969 185.867188 L 187.5 349.746094 Z M 342.082031 199.570312 L 187.5 354.199219 L 32.917969 199.570312 C 24.363281 191.011719 12.636719 186.410156 0.570312 186.882812 L 0 186.90625 L 187.5 374.480469 L 375 186.90625 L 374.429688 186.882812 C 362.363281 186.410156 350.636719 191.011719 342.082031 199.570312 Z M 332.582031 184.632812 C 330.628906 183.269531 326.992188 181.441406 322.097656 181.859375 C 318.164062 182.207031 314.527344 184.039062 311.734375 186.832031 L 187.5 310.867188 L 63.265625 186.832031 C 60.472656 184.039062 56.835938 182.207031 52.902344 181.859375 C 47.980469 181.441406 44.371094 183.269531 42.417969 184.632812 L 187.5 329.761719 Z M 332.582031 184.632812 " fill-opacity="1" fill-rule="nonzero"/></g><path fill="#d9d9d9" d="M 170.558594 210.425781 C 170.558594 222.523438 171.746094 232.5625 174.121094 240.550781 C 176.492188 248.566406 180.625 252.546875 186.511719 252.546875 C 189.429688 252.546875 191.628906 251.980469 193.164062 250.816406 C 194.695312 249.679688 195.636719 248.390625 196.03125 246.984375 C 196.402344 245.574219 196.652344 243.890625 196.726562 241.988281 C 196.800781 240.082031 196.847656 237.707031 196.847656 234.863281 L 196.847656 230.386719 C 196.847656 227.097656 196.726562 224.871094 196.503906 223.734375 C 196.28125 221.210938 195.761719 219.503906 194.945312 218.566406 C 194.152344 217.648438 192.890625 217.082031 191.210938 216.832031 C 189.527344 216.609375 187.996094 216.460938 186.609375 216.4375 C 185.222656 216.386719 183.964844 216.339844 182.824219 216.265625 L 182.824219 214.433594 L 236.546875 214.433594 L 236.546875 216.265625 L 231.253906 216.609375 C 228.878906 216.832031 227.296875 217.402344 226.480469 218.292969 C 225.6875 219.183594 225.167969 220.914062 224.921875 223.511719 L 224.699219 228.902344 L 224.699219 243.941406 L 224.921875 254.277344 L 223.191406 254.277344 C 222.199219 252.054688 220.445312 250.023438 217.972656 248.195312 C 215.472656 246.363281 212.753906 245.449219 209.757812 245.449219 C 207.089844 245.449219 203.253906 247.082031 198.285156 250.371094 C 193.3125 253.660156 186.734375 255.292969 178.546875 255.292969 C 167.21875 255.292969 157.695312 251.210938 149.957031 243.027344 C 142.214844 234.839844 138.355469 224.523438 138.355469 212.132812 C 138.355469 199.125 142.609375 188.664062 151.09375 180.796875 C 159.601562 172.90625 170.410156 168.976562 183.59375 168.976562 C 190.789062 168.976562 197.589844 170.582031 204.023438 173.796875 C 210.453125 177.011719 214.039062 178.695312 214.804688 178.84375 C 217.03125 178.84375 218.515625 178.027344 219.28125 176.371094 C 220.046875 174.738281 220.765625 172.363281 221.457031 169.320312 L 223.757812 169.320312 L 223.757812 206.394531 L 221.804688 206.394531 C 219.503906 196.898438 215.695312 188.859375 210.378906 182.28125 C 205.058594 175.703125 198.257812 172.414062 189.996094 172.414062 C 183.417969 172.414062 178.523438 176.222656 175.308594 183.839844 C 172.164062 191.457031 170.558594 200.335938 170.558594 210.425781 Z M 170.558594 210.425781 " fill-opacity="1" fill-rule="nonzero"/><path fill="#d9d9d9" d="M 349.847656 344.109375 L 213.421875 55.425781 C 207.039062 62.550781 197.789062 67.050781 187.5 67.050781 C 186.757812 67.050781 186.015625 67.027344 185.273438 66.976562 L 187.5 72.292969 L 219.28125 148.742188 C 219.28125 148.742188 234.070312 148.941406 251.359375 180.945312 L 343.539062 348.855469 L 354.125 361.347656 Z M 349.847656 344.109375 " fill-opacity="1" fill-rule="nonzero"/><path fill="#d9d9d9" d="M 183.148438 66.753906 C 174.613281 65.691406 167.046875 61.511719 161.578125 55.425781 L 25.152344 344.109375 L 20.851562 361.296875 L 31.433594 348.808594 L 123.613281 180.894531 C 140.929688 148.917969 155.695312 148.695312 155.695312 148.695312 L 186.4375 74.691406 L 185.71875 72.960938 Z M 183.148438 66.753906 " fill-opacity="1" fill-rule="nonzero"/><g clip-path="url(#3372e2b318)"><path fill="#d9d9d9" d="M 187.5 63.886719 C 204.984375 63.886719 219.183594 49.714844 219.183594 32.203125 C 219.183594 14.714844 205.011719 0.519531 187.5 0.519531 C 169.988281 0.519531 155.816406 14.691406 155.816406 32.203125 C 155.816406 49.714844 170.015625 63.886719 187.5 63.886719 Z M 187.5 7.566406 C 201.078125 7.566406 212.132812 18.625 212.132812 32.203125 C 212.132812 45.78125 201.078125 56.835938 187.5 56.835938 C 173.921875 56.835938 162.867188 45.78125 162.867188 32.203125 C 162.867188 18.625 173.921875 7.566406 187.5 7.566406 Z M 187.5 7.566406 " fill-opacity="1" fill-rule="nonzero"/></g><path fill="#d9d9d9" d="M 179.363281 40.363281 L 184.136719 40.363281 L 187.5 43.726562 L 190.863281 40.363281 L 195.636719 40.363281 L 195.636719 35.589844 L 199.027344 32.203125 L 195.636719 28.839844 L 195.636719 24.066406 L 190.863281 24.066406 L 187.5 20.703125 L 184.136719 24.066406 L 179.363281 24.066406 L 179.363281 28.839844 L 175.972656 32.203125 L 179.363281 35.589844 Z M 179.363281 40.363281 " fill-opacity="1" fill-rule="nonzero"/><path fill="#d9d9d9" d="M 187.5 53.078125 C 199 53.078125 208.375 43.703125 208.375 32.203125 C 208.375 20.703125 199 11.328125 187.5 11.328125 C 176 11.328125 166.625 20.703125 166.625 32.203125 C 166.625 43.703125 176 53.078125 187.5 53.078125 Z M 176.839844 27.800781 L 176.839844 21.542969 L 183.074219 21.542969 L 187.5 17.113281 L 191.925781 21.542969 L 198.160156 21.542969 L 198.160156 27.773438 L 202.585938 32.203125 L 198.160156 36.628906 L 198.160156 42.863281 L 191.925781 42.863281 L 187.5 47.289062 L 183.074219 42.863281 L 176.839844 42.863281 L 176.839844 36.628906 L 172.414062 32.203125 Z M 176.839844 27.800781 " fill-opacity="1" fill-rule="nonzero"/></svg>