<svg xmlns="http://www.w3.org/2000/svg" xmlns:xlink="http://www.w3.org/1999/xlink" width="500" zoomAndPan="magnify" viewBox="0 0 375 374.999991" height="500" preserveAspectRatio="xMidYMid meet" version="1.0"><defs><g/><clipPath id="7a2c8291a2"><path d="M 45.789062 228 L 339 228 L 339 344 L 45.789062 344 Z M 45.789062 228 " clip-rule="nonzero"/></clipPath><clipPath id="fadda3ba5d"><path d="M 50 22.09375 L 348.769531 22.09375 L 348.769531 255 L 50 255 Z M 50 22.09375 " clip-rule="nonzero"/></clipPath></defs><path fill="#d9d9d9" d="M 344.027344 264.472656 C 343.953125 264.460938 343.875 264.441406 343.796875 264.425781 C 319.324219 259.519531 300.082031 238.050781 276.980469 229.011719 C 270.019531 226.285156 262.761719 225.097656 255.566406 223.527344 C 251.113281 222.550781 246.691406 221.429688 242.375 219.710938 C 235.820312 217.097656 229.503906 213.898438 223.316406 210.476562 C 219.148438 208.175781 215.035156 205.765625 210.941406 203.371094 C 188.351562 190.136719 166.417969 176.585938 140.121094 172.363281 C 111.488281 167.769531 83.496094 168.898438 56.085938 157.722656 C 55.636719 163.285156 55.632812 168.835938 55.59375 174.40625 C 82.425781 186.339844 109.710938 184.257812 138.097656 187.867188 C 164.683594 191.246094 186.289062 204.691406 208.84375 218.191406 C 211.8125 219.96875 214.792969 221.761719 217.800781 223.519531 C 225.199219 227.847656 232.773438 231.945312 240.757812 234.96875 C 245.882812 236.910156 251.171875 238.050781 256.460938 239.171875 C 262.148438 240.371094 267.839844 241.539062 273.351562 243.625 C 298.152344 253.011719 320.105469 275.148438 346.578125 279.351562 C 345.957031 274.429688 344.78125 269.699219 344.078125 264.804688 C 344.058594 264.695312 344.042969 264.582031 344.027344 264.472656 Z M 344.027344 264.472656 " fill-opacity="1" fill-rule="nonzero"/><path fill="#d9d9d9" d="M 305.703125 280.117188 C 293.570312 272.945312 281.601562 265.21875 268.386719 260.132812 C 264.441406 258.613281 260.390625 257.652344 256.320312 256.832031 C 249.34375 255.429688 242.304688 254.449219 235.597656 251.804688 C 227.074219 248.4375 219.171875 243.542969 211.476562 238.492188 C 209.285156 237.058594 207.109375 235.613281 204.945312 234.183594 C 182.765625 219.566406 162.492188 206.957031 135.441406 204.5 C 107.554688 201.96875 80.867188 204.707031 54.929688 191.941406 C 54.542969 197.988281 53.988281 204.027344 53.234375 210.042969 C 78.144531 223.65625 104.371094 220.117188 131.605469 221.589844 C 159.5 223.097656 178.785156 235.167969 200.945312 251.070312 C 202.261719 252.019531 203.585938 252.980469 204.917969 253.9375 C 213.171875 259.910156 221.671875 265.96875 231.074219 269.839844 C 238.746094 273.003906 246.902344 273.519531 254.890625 275.195312 C 257.855469 275.8125 260.792969 276.589844 263.675781 277.722656 C 276.832031 282.871094 288.488281 291.046875 300.515625 298.316406 C 303.34375 300.027344 306.503906 302.003906 309.847656 303.824219 C 318.203125 308.378906 327.738281 312 336.347656 308.308594 C 338.234375 303.96875 340.382812 299.753906 342.332031 295.445312 C 342.558594 294.933594 342.789062 294.421875 343.015625 293.910156 C 329.734375 295.320312 316.578125 286.535156 305.703125 280.117188 Z M 305.703125 280.117188 " fill-opacity="1" fill-rule="nonzero"/><g clip-path="url(#7a2c8291a2)"><path fill="#d9d9d9" d="M 331.347656 323.890625 C 330.9375 324.148438 330.519531 324.390625 330.101562 324.613281 C 329.679688 324.828125 329.253906 325.027344 328.820312 325.203125 C 328.609375 325.289062 328.394531 325.371094 328.179688 325.449219 C 328.175781 325.449219 328.175781 325.453125 328.175781 325.453125 C 327.4375 325.714844 326.691406 325.917969 325.941406 326.066406 C 325.898438 326.078125 325.855469 326.085938 325.816406 326.089844 C 324.246094 326.390625 322.644531 326.457031 321.03125 326.339844 C 320.535156 326.304688 320.042969 326.253906 319.546875 326.1875 C 319.300781 326.152344 319.054688 326.113281 318.808594 326.074219 C 318.558594 326.027344 318.3125 325.984375 318.066406 325.9375 C 317.820312 325.886719 317.574219 325.835938 317.324219 325.777344 C 317.078125 325.722656 316.832031 325.664062 316.585938 325.601562 C 316.335938 325.539062 316.089844 325.472656 315.84375 325.402344 C 315.597656 325.335938 315.351562 325.261719 315.101562 325.1875 C 314.855469 325.109375 314.609375 325.035156 314.363281 324.953125 C 314.113281 324.871094 313.871094 324.789062 313.625 324.707031 C 313.378906 324.617188 313.136719 324.527344 312.890625 324.441406 C 310.34375 323.492188 307.847656 322.289062 305.476562 321.007812 C 305.242188 320.886719 305.011719 320.757812 304.78125 320.628906 C 303.082031 319.695312 301.445312 318.730469 299.914062 317.808594 C 299.511719 317.566406 299.117188 317.324219 298.726562 317.089844 C 286.117188 309.445312 274.152344 300.316406 260.238281 295.078125 C 259.582031 294.832031 258.917969 294.605469 258.257812 294.398438 C 257.929688 294.296875 257.601562 294.199219 257.273438 294.109375 C 255.933594 293.726562 254.582031 293.410156 253.230469 293.152344 C 252.949219 293.09375 252.664062 293.042969 252.378906 292.988281 C 252.34375 292.984375 252.3125 292.976562 252.277344 292.96875 C 252.25 292.964844 252.21875 292.960938 252.195312 292.957031 C 251.832031 292.890625 251.464844 292.828125 251.105469 292.773438 C 250.542969 292.679688 249.988281 292.597656 249.433594 292.515625 C 249.042969 292.460938 248.65625 292.40625 248.265625 292.351562 C 247.191406 292.207031 246.117188 292.070312 245.046875 291.9375 C 244.640625 291.886719 244.238281 291.835938 243.832031 291.785156 C 243.359375 291.722656 242.894531 291.664062 242.425781 291.597656 C 242.023438 291.546875 241.621094 291.492188 241.226562 291.4375 C 240.6875 291.359375 240.152344 291.28125 239.617188 291.195312 C 239.382812 291.15625 239.148438 291.117188 238.914062 291.078125 C 238.21875 290.964844 237.519531 290.835938 236.824219 290.695312 C 236.640625 290.660156 236.457031 290.621094 236.273438 290.585938 C 235.398438 290.398438 234.527344 290.191406 233.664062 289.953125 C 233.347656 289.871094 233.035156 289.78125 232.726562 289.691406 C 232.710938 289.683594 232.691406 289.679688 232.679688 289.675781 C 232.382812 289.589844 232.09375 289.496094 231.796875 289.398438 C 231.519531 289.308594 231.238281 289.214844 230.953125 289.113281 C 230.621094 288.996094 230.285156 288.871094 229.949219 288.742188 C 229.273438 288.480469 228.609375 288.203125 227.941406 287.917969 C 226.835938 287.4375 225.742188 286.925781 224.660156 286.378906 C 224.347656 286.21875 224.03125 286.054688 223.71875 285.890625 C 223.34375 285.699219 222.972656 285.5 222.601562 285.296875 C 222.261719 285.113281 221.921875 284.921875 221.582031 284.734375 C 221.285156 284.5625 220.984375 284.390625 220.683594 284.214844 C 219.972656 283.804688 219.269531 283.378906 218.5625 282.941406 C 218.285156 282.769531 218.011719 282.597656 217.734375 282.421875 C 217.019531 281.972656 216.308594 281.507812 215.601562 281.035156 C 215.277344 280.820312 214.949219 280.601562 214.628906 280.378906 C 214.210938 280.097656 213.796875 279.8125 213.386719 279.523438 C 212.871094 279.167969 212.363281 278.804688 211.855469 278.441406 C 211.714844 278.339844 211.574219 278.238281 211.429688 278.136719 C 210.894531 277.75 210.359375 277.359375 209.832031 276.964844 C 209.078125 276.410156 208.328125 275.851562 207.582031 275.285156 C 207.074219 274.902344 206.574219 274.519531 206.074219 274.136719 C 203.589844 272.234375 201.148438 270.3125 198.726562 268.445312 C 198.558594 268.3125 198.386719 268.183594 198.21875 268.054688 C 176.984375 251.734375 158.898438 239.636719 131.558594 238.644531 C 103.523438 237.625 75.613281 243.273438 50.273438 228.097656 C 49.066406 233.964844 47.59375 239.773438 45.804688 245.484375 C 70.386719 261.125 98.703125 255.113281 126.222656 254.765625 C 139.058594 254.601562 151.949219 254.949219 163.753906 260.472656 C 174.601562 265.554688 184.1875 273.078125 193.519531 280.585938 C 195.066406 281.835938 196.605469 283.078125 198.144531 284.308594 C 207.722656 291.988281 217.503906 300.464844 228.808594 305.515625 C 235.222656 308.386719 241.992188 308.863281 248.761719 309.613281 C 253.464844 310.140625 258.164062 310.796875 262.746094 312.480469 C 275.621094 317.21875 286.816406 325.289062 298.429688 332.445312 C 300.042969 333.445312 301.667969 334.425781 303.304688 335.375 C 313.53125 341.304688 329.285156 349.15625 338.890625 337.585938 C 335.546875 332.960938 332.953125 328.683594 332.875 322.785156 C 332.375 323.191406 331.863281 323.558594 331.347656 323.890625 Z M 331.347656 323.890625 " fill-opacity="1" fill-rule="nonzero"/></g><g clip-path="url(#fadda3ba5d)"><path fill="#d9d9d9" d="M 345.148438 231.195312 C 331.910156 225.34375 320.996094 212.261719 311.167969 202.441406 C 299.035156 190.3125 287.023438 177.214844 272.542969 167.820312 C 262.101562 161.050781 250.441406 160.53125 239.148438 155.984375 C 234.015625 153.921875 229.085938 151.402344 224.28125 148.652344 C 219.214844 145.757812 214.285156 142.609375 209.402344 139.460938 C 206.089844 137.328125 202.816406 135.222656 199.542969 133.171875 C 199.539062 133.171875 199.539062 133.167969 199.539062 133.167969 C 197.164062 131.683594 194.796875 130.226562 192.425781 128.804688 C 192.289062 126.710938 192.113281 124.625 191.898438 122.554688 C 191.847656 122.050781 191.792969 121.546875 191.738281 121.046875 C 191.582031 119.65625 191.410156 118.273438 191.226562 116.890625 C 197.039062 120.402344 202.835938 123.917969 208.710938 127.226562 C 215.136719 130.855469 221.652344 134.394531 228.351562 137.515625 C 232.402344 139.410156 236.515625 141.148438 240.714844 142.664062 C 252.335938 146.863281 263.1875 148.253906 273.367188 155.90625 C 287.402344 166.464844 298.917969 180.273438 310.722656 193.160156 C 320.933594 204.300781 332.546875 219.644531 347.4375 224.667969 C 346.335938 221.855469 345.527344 220.632812 344.046875 217.925781 C 329.15625 212.292969 318.101562 195.796875 308.433594 183.984375 C 297.074219 170.101562 286.121094 155.296875 272.457031 143.542969 C 262.605469 135.054688 252.378906 132.910156 240.402344 129.003906 C 239.679688 128.773438 238.960938 128.53125 238.242188 128.285156 C 237.832031 128.148438 237.425781 128.011719 237.015625 127.867188 C 236.398438 127.660156 235.785156 127.445312 235.171875 127.226562 C 234.527344 127.003906 233.882812 126.773438 233.242188 126.539062 C 233.121094 126.496094 232.996094 126.449219 232.867188 126.402344 C 232.121094 126.128906 231.371094 125.851562 230.621094 125.570312 C 230.152344 125.398438 229.683594 125.21875 229.21875 125.042969 C 228.707031 124.84375 228.195312 124.644531 227.683594 124.449219 C 227.054688 124.203125 226.433594 123.960938 225.8125 123.710938 C 224.785156 123.300781 223.753906 122.882812 222.730469 122.460938 C 221.707031 122.039062 220.683594 121.609375 219.664062 121.171875 C 218.808594 120.808594 217.953125 120.4375 217.097656 120.0625 C 216.597656 119.847656 216.097656 119.625 215.59375 119.402344 C 213.746094 118.582031 211.902344 117.742188 210.070312 116.886719 C 209.222656 116.496094 208.378906 116.097656 207.539062 115.695312 C 206.960938 115.417969 206.378906 115.140625 205.804688 114.859375 C 204.855469 114.390625 203.914062 113.914062 202.972656 113.433594 C 202.441406 113.160156 201.90625 112.882812 201.375 112.601562 C 200.875 112.335938 200.371094 112.070312 199.867188 111.796875 C 199.777344 111.75 199.683594 111.699219 199.589844 111.648438 C 199.289062 111.484375 198.992188 111.320312 198.691406 111.160156 L 198.253906 110.921875 C 197.691406 110.605469 197.121094 110.292969 196.5625 109.980469 C 196.34375 109.855469 196.128906 109.738281 195.910156 109.609375 C 195.386719 109.320312 194.871094 109.023438 194.355469 108.726562 C 194.191406 108.636719 194.03125 108.539062 193.867188 108.445312 C 193.183594 108.054688 192.5 107.652344 191.816406 107.25 C 191.082031 106.824219 190.347656 106.386719 189.621094 105.949219 C 189.105469 102.578125 188.59375 99.210938 188.164062 95.820312 C 188.164062 95.820312 188.164062 95.816406 188.167969 95.816406 C 188.457031 95.964844 188.746094 96.105469 189.039062 96.253906 C 189.492188 96.476562 189.949219 96.703125 190.410156 96.921875 C 190.683594 97.058594 190.957031 97.191406 191.230469 97.320312 C 191.707031 97.550781 192.1875 97.777344 192.667969 98.003906 C 192.882812 98.105469 193.097656 98.207031 193.316406 98.308594 C 194.050781 98.652344 194.792969 98.992188 195.535156 99.320312 C 196.152344 99.605469 196.769531 99.882812 197.390625 100.15625 C 197.941406 100.398438 198.496094 100.640625 199.046875 100.878906 C 199.433594 101.046875 199.816406 101.210938 200.199219 101.371094 C 200.800781 101.628906 201.402344 101.882812 202.003906 102.136719 C 202.683594 102.417969 203.355469 102.695312 204.039062 102.972656 C 204.847656 103.300781 205.65625 103.621094 206.464844 103.945312 C 206.894531 104.109375 207.320312 104.277344 207.753906 104.441406 C 207.933594 104.507812 208.117188 104.578125 208.300781 104.644531 C 208.429688 104.699219 208.554688 104.742188 208.683594 104.785156 C 209.265625 105.007812 209.847656 105.214844 210.433594 105.421875 C 211.074219 105.644531 211.71875 105.867188 212.367188 106.085938 C 212.402344 106.09375 212.433594 106.109375 212.464844 106.117188 C 212.808594 106.230469 213.148438 106.347656 213.492188 106.457031 C 213.832031 106.566406 214.175781 106.679688 214.519531 106.789062 C 214.996094 106.941406 215.472656 107.09375 215.953125 107.238281 C 216.277344 107.339844 216.609375 107.441406 216.941406 107.542969 C 217.578125 107.742188 218.222656 107.929688 218.867188 108.121094 C 219.511719 108.3125 220.160156 108.5 220.808594 108.6875 C 221.511719 108.894531 222.222656 109.097656 222.933594 109.296875 C 224.734375 109.808594 226.550781 110.3125 228.367188 110.820312 C 229.167969 111.042969 229.976562 111.265625 230.777344 111.488281 C 231.792969 111.777344 232.808594 112.0625 233.820312 112.347656 C 234.492188 112.542969 235.15625 112.738281 235.824219 112.929688 C 237.253906 113.351562 238.679688 113.777344 240.101562 114.222656 C 240.453125 114.332031 240.8125 114.445312 241.164062 114.558594 C 241.515625 114.667969 241.871094 114.785156 242.222656 114.898438 C 242.574219 115.011719 242.929688 115.132812 243.277344 115.246094 C 243.800781 115.421875 244.332031 115.597656 244.851562 115.78125 C 245.375 115.957031 245.894531 116.140625 246.417969 116.332031 C 247.109375 116.578125 247.796875 116.835938 248.484375 117.09375 C 249.191406 117.359375 249.890625 117.636719 250.589844 117.917969 C 250.90625 118.042969 251.222656 118.175781 251.535156 118.308594 C 251.898438 118.457031 252.261719 118.605469 252.617188 118.765625 C 252.914062 118.890625 253.203125 119.015625 253.488281 119.144531 C 253.78125 119.273438 254.066406 119.402344 254.359375 119.539062 C 254.632812 119.65625 254.90625 119.785156 255.175781 119.914062 C 255.484375 120.058594 255.789062 120.203125 256.085938 120.347656 C 256.496094 120.546875 256.902344 120.746094 257.308594 120.953125 C 257.675781 121.144531 258.042969 121.328125 258.402344 121.523438 C 258.558594 121.601562 258.710938 121.679688 258.863281 121.769531 C 258.898438 121.785156 258.9375 121.808594 258.972656 121.828125 C 259.21875 121.953125 259.460938 122.089844 259.703125 122.226562 C 260.023438 122.398438 260.335938 122.582031 260.648438 122.761719 C 260.765625 122.832031 260.890625 122.902344 261.007812 122.972656 C 261.066406 123.003906 261.121094 123.039062 261.175781 123.074219 C 261.46875 123.242188 261.753906 123.414062 262.035156 123.589844 C 262.386719 123.800781 262.726562 124.011719 263.0625 124.234375 C 263.410156 124.449219 263.742188 124.675781 264.078125 124.898438 C 264.25 125.011719 264.421875 125.128906 264.589844 125.25 C 264.863281 125.433594 265.132812 125.625 265.402344 125.816406 C 265.722656 126.042969 266.042969 126.277344 266.355469 126.515625 C 266.425781 126.5625 266.496094 126.617188 266.566406 126.671875 C 266.882812 126.910156 267.195312 127.152344 267.507812 127.402344 C 267.558594 127.441406 267.609375 127.480469 267.660156 127.523438 C 267.960938 127.761719 268.253906 128.003906 268.546875 128.25 C 268.582031 128.277344 268.617188 128.304688 268.652344 128.339844 C 268.859375 128.511719 269.0625 128.683594 269.265625 128.863281 C 269.28125 128.878906 269.296875 128.890625 269.3125 128.90625 C 269.476562 129.046875 269.640625 129.191406 269.796875 129.335938 C 269.804688 129.339844 269.8125 129.34375 269.816406 129.351562 C 270.085938 129.585938 270.351562 129.832031 270.609375 130.078125 C 283.714844 142.398438 293.933594 157.714844 304.539062 172.136719 C 313.851562 184.792969 325.160156 204.609375 340.675781 210.496094 C 339.582031 207.128906 339.167969 205.246094 339.230469 200.445312 C 323.242188 194.582031 311.566406 172.4375 302.632812 159.398438 C 292.632812 144.8125 282.980469 129.398438 270.507812 116.746094 C 259.496094 105.578125 244.144531 101.128906 228.773438 97.265625 C 221.023438 95.320312 213.269531 93.523438 206.066406 91.082031 C 199.519531 88.871094 193.042969 86.34375 186.816406 83.320312 C 178 78.761719 170.402344 72.828125 162.9375 66.789062 C 160.917969 65.152344 158.910156 63.507812 156.882812 61.886719 C 156.878906 61.886719 156.875 61.878906 156.871094 61.875 C 147.882812 54.65625 138.671875 47.796875 127.355469 43.503906 C 103.335938 34.394531 77.519531 30.921875 53.085938 23.011719 C 52.671875 22.878906 52.257812 22.746094 51.847656 22.605469 C 51.328125 22.4375 50.820312 22.265625 50.308594 22.09375 C 52.871094 27.484375 54.964844 33.085938 56.621094 38.820312 C 58.253906 44.46875 59.492188 50.234375 60.398438 56.050781 C 61.050781 60.234375 61.542969 64.441406 61.90625 68.664062 C 61.921875 68.847656 61.9375 69.035156 61.953125 69.21875 C 61.96875 69.382812 61.984375 69.550781 61.992188 69.714844 C 62.042969 70.238281 62.085938 70.757812 62.121094 71.277344 C 62.183594 72.007812 62.230469 72.738281 62.28125 73.464844 C 62.402344 75.324219 62.5 77.183594 62.570312 79.042969 L 62.570312 79.070312 C 63.328125 99.132812 61.191406 119.46875 58.277344 139.433594 C 58.191406 139.992188 58.113281 140.546875 58.027344 141.101562 C 58.453125 141.261719 58.878906 141.414062 59.304688 141.570312 C 59.730469 141.722656 60.15625 141.878906 60.582031 142.023438 C 86.96875 151.226562 113.886719 151.480469 141.164062 156.304688 C 153.28125 158.453125 164.386719 162.363281 175.039062 167.289062 C 175.089844 167.3125 175.140625 167.332031 175.191406 167.355469 C 187.476562 173.042969 199.175781 180.074219 211.171875 187.277344 C 217.019531 190.785156 222.910156 194.308594 228.964844 197.507812 C 233.320312 199.800781 237.753906 201.925781 242.320312 203.753906 C 246.050781 205.25 249.878906 206.269531 253.726562 207.148438 C 261.5 208.917969 269.367188 210.125 276.734375 213.507812 C 288.257812 218.792969 298.5625 226.585938 308.722656 234.046875 C 317.0625 240.171875 326 247.875 335.898438 252.132812 C 338.421875 253.222656 341.007812 254.082031 343.660156 254.636719 C 343.992188 251.574219 344.394531 250.476562 345.242188 248.097656 C 342.347656 247.304688 339.550781 246.148438 336.84375 244.738281 C 326.605469 239.414062 317.582031 230.441406 309.191406 223.320312 C 298.160156 213.957031 287.054688 204.027344 274.164062 197.253906 C 266.507812 193.230469 258.316406 192.035156 250.199219 189.96875 C 247.550781 189.296875 244.902344 188.527344 242.292969 187.539062 C 239.953125 186.652344 237.652344 185.675781 235.386719 184.621094 C 226.730469 180.601562 218.546875 175.5 210.46875 170.492188 C 204.53125 166.804688 198.6875 163.238281 192.8125 159.894531 C 192.914062 154.503906 192.992188 149.09375 192.945312 143.699219 C 198.492188 146.957031 204.015625 150.449219 209.648438 154.078125 C 219.941406 160.714844 230.449219 167.574219 242.050781 171.734375 C 252.023438 175.308594 262.214844 175.730469 271.582031 181.175781 C 285.953125 189.535156 298 201.75 310.023438 213.054688 C 318.976562 221.476562 328.640625 232.1875 339.933594 238.375 C 342.371094 239.710938 344.878906 240.835938 347.472656 241.683594 C 348.328125 238.71875 348.90625 236.339844 348.9375 232.644531 C 347.652344 232.230469 346.390625 231.746094 345.148438 231.195312 Z M 184.511719 164.628906 C 183.273438 162.796875 182.660156 161.886719 181.429688 160.082031 C 180.148438 160.566406 179.503906 160.820312 178.203125 161.335938 C 178.746094 159.726562 179.007812 158.917969 179.535156 157.308594 C 178.3125 155.527344 177.703125 154.640625 176.492188 152.898438 C 178.035156 153.640625 178.800781 154.027344 180.339844 154.820312 C 180.511719 154.296875 180.652344 153.855469 180.78125 153.445312 C 181.054688 152.605469 181.28125 151.890625 181.621094 150.816406 C 181.910156 152.207031 182.105469 153.136719 182.335938 154.226562 C 182.449219 154.773438 182.566406 155.363281 182.71875 156.074219 C 184.253906 156.894531 185.019531 157.316406 186.554688 158.179688 C 185.300781 158.632812 184.671875 158.863281 183.402344 159.339844 C 183.847656 161.449219 184.066406 162.511719 184.511719 164.628906 Z M 184.214844 138.796875 C 184.394531 139.644531 184.566406 140.464844 184.808594 141.601562 C 183.757812 140.023438 183.175781 139.148438 182.242188 137.757812 C 181.972656 137.613281 181.703125 137.476562 181.429688 137.339844 C 180.472656 137.699219 179.863281 137.933594 178.78125 138.367188 C 179.042969 137.542969 179.238281 136.9375 179.4375 136.328125 C 179.613281 135.773438 179.789062 135.222656 180.023438 134.5 C 178.847656 132.78125 178.253906 131.933594 177.078125 130.257812 C 178.5625 130.996094 179.308594 131.375 180.785156 132.160156 C 181.277344 130.660156 181.519531 129.914062 182.007812 128.457031 C 182.425781 130.414062 182.636719 131.402344 183.0625 133.398438 C 184.535156 134.214844 185.265625 134.632812 186.730469 135.484375 C 185.535156 135.871094 184.9375 136.074219 183.722656 136.503906 C 183.917969 137.40625 184.066406 138.113281 184.214844 138.796875 Z M 184.660156 121.453125 C 183.410156 119.9375 182.78125 119.1875 181.507812 117.707031 C 180.402344 117.832031 179.847656 117.902344 178.726562 118.082031 C 179.070312 116.984375 179.230469 116.460938 179.542969 115.4375 C 178.265625 113.972656 177.621094 113.25 176.328125 111.8125 C 177.800781 112.625 178.539062 113.046875 180.003906 113.886719 C 180.296875 112.90625 180.4375 112.429688 180.707031 111.492188 C 181.347656 112.957031 181.660156 113.699219 182.273438 115.203125 C 183.742188 116.058594 184.476562 116.488281 185.941406 117.363281 C 184.851562 117.421875 184.304688 117.457031 183.210938 117.546875 C 183.808594 119.082031 184.097656 119.859375 184.660156 121.453125 Z M 174.621094 125.34375 C 173.433594 123.722656 172.84375 122.925781 171.644531 121.355469 C 170.40625 121.882812 169.777344 122.160156 168.527344 122.753906 C 169.035156 121.214844 169.296875 120.433594 169.738281 119.070312 C 168.496094 117.605469 167.875 116.882812 166.617188 115.449219 C 168.132812 116.050781 168.886719 116.367188 170.386719 117.03125 L 170.386719 117.027344 C 170.792969 115.75 170.976562 115.140625 171.335938 113.972656 C 171.898438 115.585938 172.171875 116.410156 172.703125 118.089844 C 174.195312 118.792969 174.9375 119.15625 176.421875 119.914062 C 176.417969 119.914062 176.40625 119.917969 176.402344 119.917969 C 175.261719 120.1875 174.679688 120.34375 173.496094 120.71875 C 174 122.445312 174.199219 123.414062 174.621094 125.34375 Z M 163.90625 110.976562 C 162.640625 109.566406 162.007812 108.875 160.78125 107.515625 C 159.648438 107.992188 159.070312 108.253906 157.902344 108.828125 C 158.332031 107.414062 158.527344 106.730469 158.898438 105.421875 C 157.6875 104.066406 157.089844 103.390625 155.902344 102.046875 C 157.316406 102.582031 158.027344 102.859375 159.449219 103.4375 C 159.789062 102.179688 159.945312 101.574219 160.238281 100.40625 C 160.804688 101.972656 161.085938 102.761719 161.648438 104.347656 C 163.070312 104.957031 163.855469 105.355469 165.339844 106.070312 C 164.226562 106.328125 163.664062 106.480469 162.519531 106.84375 C 163.089844 108.476562 163.367188 109.300781 163.90625 110.976562 Z M 153.339844 118.1875 C 152.148438 116.816406 151.558594 116.136719 150.371094 114.792969 C 149.15625 115.558594 148.550781 115.949219 147.332031 116.75 C 147.832031 115.121094 148.074219 114.308594 148.621094 112.640625 C 147.484375 111.25 146.921875 110.566406 145.796875 109.199219 C 147.25 109.554688 147.976562 109.734375 149.441406 110.113281 C 149.523438 109.84375 149.601562 109.597656 149.679688 109.367188 C 150.039062 108.226562 150.273438 107.480469 150.65625 106.226562 C 151.019531 107.710938 151.226562 108.578125 151.523438 109.902344 C 151.578125 110.152344 151.636719 110.417969 151.703125 110.707031 C 153.171875 111.105469 153.90625 111.308594 155.390625 111.734375 C 154.171875 112.425781 153.554688 112.785156 152.3125 113.5625 C 152.695312 115.425781 152.910156 116.34375 153.339844 118.1875 Z M 152.847656 96.398438 C 153 96.871094 153.15625 97.367188 153.347656 97.984375 C 152.585938 97.109375 152.066406 96.523438 151.476562 95.847656 C 151.476562 95.84375 151.472656 95.84375 151.472656 95.84375 C 151.160156 95.480469 150.820312 95.09375 150.414062 94.621094 C 150.046875 94.789062 149.738281 94.925781 149.449219 95.0625 L 149.445312 95.0625 C 148.894531 95.316406 148.40625 95.554688 147.679688 95.925781 C 147.832031 95.386719 147.949219 94.953125 148.0625 94.546875 C 148.242188 93.914062 148.394531 93.347656 148.609375 92.539062 C 147.441406 91.191406 146.859375 90.515625 145.691406 89.160156 C 147.082031 89.6875 147.769531 89.953125 149.144531 90.519531 C 149.484375 89.226562 149.648438 88.597656 149.960938 87.347656 C 150.480469 88.980469 150.746094 89.789062 151.265625 91.410156 C 152.632812 92 153.3125 92.308594 154.671875 92.949219 C 153.648438 93.289062 153.121094 93.484375 152.0625 93.914062 C 152.386719 94.925781 152.605469 95.621094 152.847656 96.398438 Z M 154.765625 85.019531 L 154.765625 85.015625 C 154.65625 84.878906 154.546875 84.734375 154.425781 84.578125 C 155.691406 85.332031 156.335938 85.734375 157.554688 86.53125 C 157.554688 86.535156 157.554688 86.539062 157.558594 86.539062 C 157.585938 86.550781 157.613281 86.566406 157.636719 86.582031 C 157.867188 85.523438 157.976562 85 158.199219 83.960938 C 158.710938 85.457031 158.984375 86.242188 159.480469 87.609375 L 159.480469 87.613281 C 159.515625 87.707031 159.550781 87.808594 159.59375 87.910156 C 160.847656 88.78125 161.660156 89.308594 163.074219 90.238281 C 162.050781 90.25 161.542969 90.257812 160.519531 90.3125 C 161.140625 91.863281 161.453125 92.628906 162.082031 94.152344 C 160.808594 92.679688 160.203125 91.941406 159.050781 90.488281 C 158.109375 90.644531 157.628906 90.746094 156.648438 90.992188 C 156.910156 89.871094 157.035156 89.324219 157.277344 88.242188 C 156.253906 86.9375 155.691406 86.214844 154.765625 85.019531 Z M 164.96875 98.441406 C 166.414062 99.269531 167.140625 99.683594 168.597656 100.527344 C 168.84375 99.578125 168.96875 99.113281 169.207031 98.199219 C 169.863281 99.652344 170.195312 100.375 170.847656 101.832031 C 172.304688 102.679688 173.039062 103.105469 174.503906 103.960938 C 173.449219 103.992188 172.917969 104.015625 171.855469 104.082031 C 172.207031 104.878906 172.464844 105.457031 172.730469 106.058594 C 172.949219 106.558594 173.171875 107.082031 173.457031 107.757812 C 172.476562 106.6875 171.871094 106.019531 171.070312 105.152344 C 171.066406 105.148438 171.066406 105.148438 171.0625 105.148438 C 170.804688 104.859375 170.527344 104.554688 170.207031 104.207031 C 169.929688 104.234375 169.683594 104.257812 169.457031 104.28125 L 169.453125 104.28125 C 168.816406 104.347656 168.316406 104.414062 167.515625 104.535156 C 167.636719 104.09375 167.734375 103.75 167.820312 103.421875 L 167.820312 103.417969 C 167.945312 102.976562 168.050781 102.570312 168.199219 102.011719 C 166.902344 100.59375 166.253906 99.878906 164.96875 98.441406 Z M 182.492188 106.296875 C 181.164062 104.890625 180.5 104.191406 179.167969 102.785156 C 178.105469 102.785156 177.574219 102.785156 176.523438 102.792969 C 176.761719 101.910156 176.878906 101.472656 177.117188 100.601562 C 175.789062 99.183594 175.125 98.476562 173.808594 97.039062 C 175.273438 97.929688 176.007812 98.371094 177.484375 99.246094 C 177.554688 99.003906 177.609375 98.792969 177.664062 98.597656 C 177.804688 98.089844 177.917969 97.6875 178.101562 97.042969 C 178.59375 98.109375 178.90625 98.773438 179.3125 99.625 C 179.3125 99.628906 179.316406 99.636719 179.316406 99.636719 C 179.453125 99.925781 179.605469 100.238281 179.773438 100.597656 C 179.957031 100.703125 180.128906 100.804688 180.292969 100.894531 L 180.292969 100.902344 L 180.296875 100.902344 C 181.457031 101.578125 182.1875 102 183.5 102.742188 C 182.597656 102.761719 182.078125 102.769531 181.308594 102.773438 L 180.8125 102.773438 C 181.488281 104.1875 181.824219 104.886719 182.492188 106.296875 Z M 175.25 83.933594 C 175.597656 82.867188 175.773438 82.320312 176.15625 81.183594 C 176.695312 82.890625 176.976562 83.714844 177.554688 85.332031 C 179.058594 86.222656 179.8125 86.65625 181.332031 87.496094 C 180.171875 87.640625 179.601562 87.703125 178.464844 87.796875 C 179.03125 89.285156 179.339844 90.050781 179.90625 91.40625 L 179.90625 91.410156 C 179.941406 91.484375 179.96875 91.566406 180.003906 91.648438 C 179.886719 91.515625 179.777344 91.394531 179.667969 91.273438 L 179.660156 91.273438 C 179.546875 91.207031 179.433594 91.140625 179.316406 91.070312 C 179.433594 91.136719 179.542969 91.199219 179.65625 91.265625 C 178.558594 90.042969 177.910156 89.308594 176.734375 87.925781 C 175.722656 87.988281 175.175781 88.015625 174.277344 88.039062 L 174.273438 88.039062 C 174.179688 88.046875 174.078125 88.046875 173.976562 88.050781 C 173.996094 87.996094 174.007812 87.945312 174.027344 87.890625 L 174.027344 87.886719 C 174.285156 87.023438 174.4375 86.523438 174.742188 85.554688 C 173.460938 83.996094 172.828125 83.199219 171.578125 81.5625 C 173.035156 82.542969 173.769531 83.011719 175.25 83.933594 Z M 166.074219 85.394531 C 166.335938 84.4375 166.472656 83.953125 166.753906 82.957031 C 167.34375 84.574219 167.652344 85.363281 168.273438 86.910156 C 169.707031 87.886719 170.433594 88.363281 171.886719 89.296875 C 170.824219 89.296875 170.296875 89.292969 169.25 89.277344 C 169.890625 90.789062 170.214844 91.53125 170.867188 92.996094 C 169.566406 91.523438 168.917969 90.773438 167.640625 89.253906 C 166.605469 89.234375 166.09375 89.222656 165.066406 89.210938 C 165.308594 88.277344 165.425781 87.8125 165.675781 86.867188 C 164.417969 85.300781 163.792969 84.503906 162.570312 82.867188 C 163.957031 83.894531 164.660156 84.402344 166.074219 85.394531 Z M 156.039062 68.980469 C 156.335938 67.753906 156.496094 67.132812 156.828125 65.851562 C 157.214844 67.835938 157.417969 68.800781 157.84375 70.675781 C 158.996094 71.800781 159.777344 72.472656 161.125 73.628906 C 160.089844 73.605469 159.578125 73.589844 158.570312 73.546875 C 159.035156 75.234375 159.296875 76.117188 159.765625 77.589844 C 159.804688 77.71875 159.847656 77.847656 159.890625 77.992188 C 159.742188 77.765625 159.601562 77.558594 159.46875 77.359375 C 159.46875 77.355469 159.464844 77.355469 159.464844 77.355469 C 158.570312 75.996094 158.046875 75.109375 157.160156 73.574219 C 156.269531 73.628906 155.8125 73.671875 154.890625 73.796875 C 155.160156 72.632812 155.296875 72.046875 155.582031 70.851562 C 154.558594 69.078125 154.046875 68.1875 153.007812 66.402344 C 154.246094 67.394531 154.851562 67.90625 156.039062 68.980469 Z M 147.804688 72.210938 C 148.089844 71.007812 148.242188 70.375 148.515625 69.222656 C 148.53125 69.152344 148.550781 69.078125 148.566406 69.003906 C 148.597656 69.109375 148.625 69.214844 148.65625 69.316406 C 149.097656 70.917969 149.347656 71.792969 149.828125 73.433594 C 151.128906 74.246094 151.769531 74.664062 153.03125 75.542969 C 152.082031 75.726562 151.601562 75.839844 150.621094 76.09375 C 151.140625 77.800781 151.402344 78.632812 151.929688 80.292969 C 150.800781 78.792969 150.238281 78.039062 149.101562 76.523438 C 148.109375 76.820312 147.601562 76.988281 146.582031 77.355469 C 146.886719 76.082031 147.035156 75.445312 147.339844 74.175781 C 146.195312 72.65625 145.621094 71.886719 144.457031 70.347656 C 145.816406 71.066406 146.484375 71.4375 147.804688 72.210938 Z M 143.472656 104.671875 C 142.339844 103.332031 141.773438 102.664062 140.632812 101.332031 C 139.457031 102.085938 138.859375 102.484375 137.660156 103.300781 C 138.164062 101.65625 138.40625 100.851562 138.875 99.28125 C 137.730469 97.953125 137.152344 97.292969 136.003906 95.976562 C 137.4375 96.328125 138.148438 96.507812 139.574219 96.882812 C 140.019531 95.351562 140.230469 94.601562 140.644531 93.132812 C 141.109375 94.863281 141.339844 95.726562 141.78125 97.476562 C 143.199219 97.871094 143.914062 98.078125 145.335938 98.496094 C 144.191406 99.140625 143.613281 99.484375 142.445312 100.199219 C 142.875 101.96875 143.078125 102.859375 143.472656 104.671875 Z M 143.152344 84.820312 C 141.976562 83.453125 141.386719 82.769531 140.199219 81.390625 C 139.121094 81.925781 138.574219 82.207031 137.476562 82.800781 C 137.835938 81.367188 138.011719 80.664062 138.359375 79.261719 C 137.382812 78.132812 136.800781 77.460938 135.957031 76.496094 C 135.769531 76.28125 135.566406 76.042969 135.339844 75.785156 C 136.769531 76.292969 137.480469 76.558594 138.886719 77.101562 C 139.222656 75.710938 139.386719 75.019531 139.710938 73.636719 C 140.253906 75.382812 140.519531 76.25 141.046875 77.960938 C 142.441406 78.53125 143.128906 78.828125 144.496094 79.441406 C 144.269531 79.535156 144.070312 79.617188 143.882812 79.695312 C 143.199219 79.984375 142.695312 80.207031 141.859375 80.597656 C 142.382812 82.292969 142.640625 83.140625 143.152344 84.820312 Z M 137.519531 56.808594 C 137.863281 55.296875 138.039062 54.527344 138.402344 52.96875 C 138.941406 54.984375 139.207031 55.972656 139.742188 57.90625 C 141.164062 58.636719 141.863281 59.015625 143.242188 59.800781 C 142.175781 60.210938 141.636719 60.421875 140.5625 60.871094 C 141.066406 62.660156 141.328125 63.59375 141.804688 65.230469 C 141.832031 65.328125 141.859375 65.425781 141.890625 65.527344 C 141.78125 65.382812 141.679688 65.246094 141.578125 65.113281 C 140.59375 63.804688 139.996094 63.023438 138.890625 61.585938 C 137.929688 62.007812 137.390625 62.25 136.515625 62.664062 C 136.402344 62.714844 136.289062 62.765625 136.171875 62.824219 C 136.191406 62.726562 136.214844 62.628906 136.230469 62.539062 C 136.519531 61.257812 136.6875 60.523438 137 59.132812 C 135.761719 57.542969 135.128906 56.738281 133.847656 55.136719 C 135.335938 55.78125 136.074219 56.117188 137.519531 56.808594 Z M 132.867188 113.828125 C 131.738281 112.519531 131.171875 111.867188 130.035156 110.5625 C 128.84375 111.445312 128.246094 111.894531 127.03125 112.800781 C 127.546875 111.082031 127.796875 110.230469 128.355469 108.4375 C 127.261719 107.066406 126.707031 106.382812 125.589844 105.023438 C 127.035156 105.289062 127.761719 105.421875 129.203125 105.695312 C 129.316406 105.328125 129.417969 105.003906 129.507812 104.703125 C 129.863281 103.546875 130.109375 102.726562 130.507812 101.386719 C 130.816406 102.878906 130.996094 103.78125 131.238281 105.058594 C 131.296875 105.382812 131.363281 105.730469 131.433594 106.117188 C 132.875 106.394531 133.59375 106.535156 135.03125 106.828125 C 133.8125 107.710938 133.195312 108.167969 131.953125 109.101562 C 132.28125 111.050781 132.484375 111.972656 132.867188 113.828125 Z M 133.046875 89.890625 C 133.199219 90.457031 133.351562 91.046875 133.546875 91.796875 C 132.699219 90.839844 132.15625 90.234375 131.46875 89.464844 L 131.464844 89.464844 C 131.203125 89.175781 130.917969 88.859375 130.589844 88.496094 C 130.289062 88.6875 130.023438 88.859375 129.78125 89.019531 L 129.777344 89.023438 C 129.09375 89.464844 128.554688 89.824219 127.695312 90.398438 C 127.882812 89.691406 128.035156 89.140625 128.171875 88.609375 C 128.351562 87.949219 128.515625 87.316406 128.738281 86.445312 C 127.535156 85.117188 126.925781 84.457031 125.695312 83.121094 C 127.167969 83.480469 127.902344 83.667969 129.355469 84.050781 C 129.75 82.511719 129.9375 81.746094 130.308594 80.238281 C 130.839844 82.007812 131.097656 82.890625 131.601562 84.648438 C 133.046875 85.046875 133.765625 85.25 135.195312 85.671875 C 134.070312 86.324219 133.507812 86.667969 132.363281 87.375 C 132.648438 88.394531 132.84375 89.117188 133.046875 89.890625 Z M 128.003906 63.355469 C 128.320312 61.828125 128.480469 61.058594 128.792969 59.519531 C 129.410156 61.398438 129.714844 62.332031 130.308594 64.167969 C 131.796875 64.707031 132.527344 64.984375 133.984375 65.5625 C 132.882812 66.109375 132.332031 66.398438 131.222656 66.992188 C 131.808594 68.804688 132.09375 69.703125 132.65625 71.484375 C 131.410156 70.066406 130.78125 69.355469 129.503906 67.925781 C 128.386719 68.542969 127.828125 68.863281 126.703125 69.519531 C 127.03125 67.992188 127.191406 67.234375 127.511719 65.707031 C 126.210938 64.269531 125.554688 63.546875 124.214844 62.097656 C 125.746094 62.585938 126.503906 62.835938 128.003906 63.355469 Z M 121.441406 119.746094 C 121.644531 120.964844 121.789062 121.871094 122.023438 123.351562 C 120.929688 122.042969 120.382812 121.390625 119.285156 120.074219 C 118.007812 121.035156 117.363281 121.523438 116.058594 122.496094 C 116.554688 121.082031 116.855469 120.226562 117.246094 119.046875 C 117.351562 118.738281 117.460938 118.410156 117.585938 118.039062 C 116.484375 116.71875 115.929688 116.058594 114.8125 114.730469 C 116.285156 114.960938 117.015625 115.078125 118.480469 115.308594 C 119.050781 113.542969 119.324219 112.667969 119.851562 110.929688 C 120.222656 112.816406 120.398438 113.765625 120.738281 115.660156 C 122.199219 115.894531 122.925781 116.007812 124.378906 116.238281 C 123.136719 117.171875 122.511719 117.644531 121.25 118.597656 C 121.320312 119.019531 121.382812 119.394531 121.441406 119.746094 Z M 112.523438 110.382812 C 111.386719 109.042969 110.808594 108.367188 109.644531 107.011719 C 108.394531 107.945312 107.765625 108.410156 106.484375 109.351562 C 107.050781 107.570312 107.3125 106.683594 107.839844 104.855469 C 106.660156 103.457031 106.0625 102.761719 104.847656 101.367188 C 106.375 101.644531 107.132812 101.78125 108.644531 102.046875 C 108.78125 101.570312 108.894531 101.160156 109.003906 100.777344 C 109.304688 99.710938 109.535156 98.882812 109.890625 97.574219 C 110.222656 99.007812 110.429688 99.917969 110.679688 101.089844 C 110.765625 101.5 110.859375 101.945312 110.96875 102.457031 C 112.460938 102.71875 113.207031 102.84375 114.6875 103.105469 C 113.449219 104.058594 112.828125 104.539062 111.578125 105.507812 C 111.964844 107.5 112.15625 108.460938 112.523438 110.382812 Z M 112.21875 84.949219 C 112.421875 85.660156 112.621094 86.363281 112.878906 87.308594 C 111.828125 86.183594 111.210938 85.523438 110.273438 84.539062 C 110.09375 84.351562 109.898438 84.148438 109.6875 83.925781 C 109.492188 84.0625 109.316406 84.1875 109.15625 84.304688 C 108.277344 84.933594 107.6875 85.355469 106.664062 86.085938 C 106.875 85.207031 107.03125 84.550781 107.1875 83.894531 C 107.335938 83.273438 107.484375 82.648438 107.671875 81.824219 C 106.355469 80.457031 105.6875 79.773438 104.335938 78.386719 C 105.917969 78.722656 106.703125 78.890625 108.261719 79.214844 C 108.636719 77.535156 108.820312 76.703125 109.167969 75.039062 C 109.789062 76.917969 110.085938 77.855469 110.667969 79.726562 C 112.214844 80.054688 112.980469 80.222656 114.511719 80.554688 C 113.332031 81.363281 112.738281 81.777344 111.542969 82.621094 C 111.816406 83.550781 112.019531 84.253906 112.21875 84.949219 Z M 114.632812 69.910156 C 114.566406 69.84375 114.496094 69.773438 114.425781 69.699219 C 115.980469 70.085938 116.757812 70.28125 118.292969 70.679688 C 118.621094 69.082031 118.78125 68.289062 119.09375 66.707031 C 119.734375 68.554688 120.046875 69.46875 120.652344 71.296875 C 122.171875 71.703125 122.925781 71.910156 124.425781 72.335938 C 124.308594 72.40625 124.191406 72.476562 124.085938 72.542969 C 123.160156 73.109375 122.601562 73.460938 121.574219 74.113281 C 122.15625 75.929688 122.441406 76.835938 122.992188 78.644531 C 121.726562 77.292969 121.089844 76.617188 119.792969 75.257812 C 118.636719 76.007812 118.058594 76.390625 116.890625 77.171875 C 117.25 75.550781 117.425781 74.75 117.773438 73.144531 C 116.523438 71.847656 115.851562 71.160156 114.632812 69.910156 Z M 123.273438 100.394531 C 122.125 99.054688 121.546875 98.382812 120.367188 97.046875 C 119.160156 97.9375 118.550781 98.390625 117.332031 99.3125 C 117.828125 97.558594 118.070312 96.695312 118.539062 94.976562 C 117.347656 93.640625 116.742188 92.972656 115.523438 91.628906 C 117.023438 91.917969 117.765625 92.0625 119.253906 92.351562 C 119.707031 90.664062 119.929688 89.832031 120.355469 88.183594 C 120.851562 90.019531 121.089844 90.945312 121.542969 92.804688 C 123.019531 93.097656 123.757812 93.246094 125.214844 93.550781 C 124.03125 94.382812 123.433594 94.808594 122.234375 95.683594 C 122.667969 97.554688 122.875 98.492188 123.273438 100.394531 Z M 115.769531 48.753906 C 116.023438 47.085938 116.148438 46.242188 116.40625 44.539062 C 117.183594 46.550781 117.5625 47.546875 118.300781 49.511719 C 119.929688 50.011719 120.734375 50.269531 122.335938 50.792969 C 121.167969 51.480469 120.585938 51.824219 119.421875 52.527344 C 120.042969 54.210938 120.386719 55.15625 120.90625 56.613281 C 120.992188 56.839844 121.074219 57.074219 121.164062 57.324219 C 120.851562 56.988281 120.566406 56.691406 120.308594 56.417969 C 119.417969 55.472656 118.742188 54.765625 117.625 53.621094 C 116.769531 54.144531 116.226562 54.480469 115.535156 54.917969 L 115.53125 54.917969 C 115.285156 55.066406 115.023438 55.234375 114.722656 55.425781 C 114.765625 55.167969 114.804688 54.929688 114.839844 54.707031 C 115.03125 53.511719 115.15625 52.707031 115.371094 51.3125 C 113.898438 49.820312 113.144531 49.070312 111.609375 47.566406 C 113.289062 48.027344 114.121094 48.265625 115.769531 48.753906 Z M 105.917969 56.996094 C 106.160156 55.332031 106.273438 54.5 106.5 52.828125 C 107.304688 54.765625 107.695312 55.730469 108.453125 57.636719 C 110.089844 58.0625 110.894531 58.273438 112.507812 58.699219 C 111.347656 59.445312 110.769531 59.820312 109.605469 60.585938 C 110.332031 62.480469 110.683594 63.425781 111.367188 65.304688 C 109.964844 63.902344 109.25 63.191406 107.800781 61.769531 C 106.632812 62.539062 106.050781 62.929688 104.871094 63.714844 C 105.148438 62.050781 105.28125 61.222656 105.539062 59.5625 C 104.054688 58.128906 103.300781 57.40625 101.773438 55.953125 C 103.441406 56.367188 104.273438 56.574219 105.917969 56.996094 Z M 102.261719 96.601562 C 101.003906 95.207031 100.363281 94.511719 99.070312 93.113281 C 97.808594 94.015625 97.171875 94.472656 95.894531 95.378906 C 96.371094 93.597656 96.597656 92.707031 97.054688 90.941406 C 95.734375 89.53125 95.0625 88.824219 93.710938 87.402344 C 95.332031 87.738281 96.140625 87.898438 97.738281 88.222656 C 98.167969 86.464844 98.378906 85.59375 98.785156 83.855469 C 99.367188 85.796875 99.652344 86.765625 100.191406 88.707031 C 101.777344 89.015625 102.5625 89.171875 104.121094 89.46875 C 102.886719 90.359375 102.265625 90.808594 101.011719 91.714844 C 101.53125 93.660156 101.78125 94.636719 102.261719 96.601562 Z M 91.015625 106.421875 C 89.777344 104.980469 89.144531 104.253906 87.855469 102.789062 C 86.496094 103.671875 85.804688 104.109375 84.402344 104.984375 C 85.003906 103.195312 85.289062 102.304688 85.796875 100.511719 C 84.457031 99.035156 83.777344 98.292969 82.398438 96.804688 C 84.085938 97.195312 84.925781 97.386719 86.582031 97.746094 C 86.710938 97.292969 86.820312 96.894531 86.921875 96.527344 C 87.222656 95.449219 87.453125 94.617188 87.804688 93.292969 C 88.210938 94.773438 88.460938 95.707031 88.769531 96.910156 C 88.882812 97.328125 88.996094 97.78125 89.128906 98.296875 C 90.765625 98.648438 91.574219 98.816406 93.179688 99.140625 C 91.878906 100.050781 91.226562 100.503906 89.90625 101.402344 C 90.398438 103.417969 90.617188 104.417969 91.015625 106.421875 Z M 79.417969 91.789062 C 77.996094 90.28125 77.277344 89.523438 75.820312 87.988281 C 74.441406 88.800781 73.746094 89.207031 72.332031 90 C 72.832031 88.242188 73.082031 87.363281 73.554688 85.597656 C 72.074219 84.046875 71.328125 83.261719 69.816406 81.671875 C 71.617188 82.175781 72.507812 82.414062 74.269531 82.875 C 74.726562 81.117188 74.941406 80.234375 75.355469 78.476562 C 76.027344 80.523438 76.347656 81.539062 76.980469 83.578125 C 78.722656 84.019531 79.585938 84.230469 81.296875 84.640625 C 79.96875 85.480469 79.292969 85.894531 77.9375 86.71875 C 78.542969 88.75 78.839844 89.765625 79.417969 91.789062 Z M 81.261719 73.175781 C 82.980469 73.605469 83.832031 73.820312 85.523438 74.222656 C 85.878906 72.484375 86.046875 71.613281 86.359375 69.878906 C 87.089844 71.863281 87.445312 72.855469 88.121094 74.835938 C 89.796875 75.230469 90.632812 75.417969 92.285156 75.789062 C 91.042969 76.628906 90.417969 77.050781 89.15625 77.894531 C 89.480469 78.867188 89.722656 79.605469 89.957031 80.335938 C 90.195312 81.085938 90.429688 81.832031 90.738281 82.832031 C 89.582031 81.636719 88.898438 80.9375 87.878906 79.894531 C 87.863281 79.890625 87.847656 79.886719 87.832031 79.882812 C 87.84375 79.886719 87.863281 79.886719 87.875 79.890625 C 87.667969 79.675781 87.445312 79.449219 87.195312 79.199219 C 86.972656 79.347656 86.769531 79.480469 86.574219 79.609375 C 85.675781 80.199219 85.050781 80.609375 83.976562 81.300781 C 84.179688 80.441406 84.324219 79.792969 84.476562 79.152344 L 84.476562 79.144531 C 84.625 78.476562 84.769531 77.808594 84.960938 76.917969 C 83.5 75.4375 82.761719 74.6875 81.261719 73.175781 Z M 91.882812 64.460938 C 91.84375 64.421875 91.804688 64.382812 91.761719 64.339844 C 93.441406 64.742188 94.273438 64.941406 95.933594 65.332031 C 96.210938 63.636719 96.34375 62.789062 96.589844 61.097656 C 97.375 63.035156 97.753906 64.003906 98.488281 65.929688 C 100.132812 66.316406 100.949219 66.507812 102.570312 66.882812 C 102.546875 66.894531 102.527344 66.914062 102.503906 66.925781 C 101.367188 67.703125 100.769531 68.109375 99.597656 68.90625 C 100.300781 70.828125 100.636719 71.785156 101.296875 73.699219 C 99.894531 72.296875 99.183594 71.589844 97.742188 70.167969 C 96.539062 70.992188 95.929688 71.402344 94.710938 72.234375 C 95.039062 70.519531 95.195312 69.664062 95.492188 67.960938 C 94.0625 66.5625 93.324219 65.839844 91.882812 64.460938 Z M 91.695312 42.445312 C 91.792969 40.730469 91.835938 39.871094 91.910156 38.140625 C 92.957031 40.144531 93.464844 41.144531 94.4375 43.128906 C 96.207031 43.570312 97.089844 43.785156 98.835938 44.226562 C 97.660156 45.011719 97.078125 45.40625 95.910156 46.191406 C 96.664062 47.785156 97.105469 48.734375 97.707031 50.070312 C 97.847656 50.386719 98 50.726562 98.167969 51.101562 C 97.648438 50.621094 97.214844 50.21875 96.804688 49.847656 C 95.957031 49.070312 95.222656 48.402344 94.105469 47.402344 C 93.3125 47.9375 92.792969 48.285156 92.171875 48.699219 C 91.878906 48.898438 91.566406 49.105469 91.191406 49.355469 C 91.21875 49.039062 91.246094 48.746094 91.265625 48.480469 C 91.367188 47.304688 91.429688 46.480469 91.523438 45.089844 C 89.832031 43.59375 88.972656 42.84375 87.21875 41.324219 C 89.019531 41.78125 89.914062 42.003906 91.695312 42.445312 Z M 82.042969 50.960938 C 82.1875 49.25 82.246094 48.398438 82.351562 46.6875 C 83.34375 48.691406 83.824219 49.6875 84.75 51.679688 C 86.496094 52.140625 87.367188 52.359375 89.097656 52.800781 C 87.925781 53.582031 87.332031 53.972656 86.152344 54.753906 C 87.039062 56.738281 87.464844 57.726562 88.289062 59.703125 C 86.726562 58.21875 85.929688 57.46875 84.316406 55.957031 C 83.125 56.738281 82.527344 57.125 81.324219 57.902344 C 81.535156 56.183594 81.632812 55.324219 81.800781 53.609375 C 80.152344 52.082031 79.320312 51.308594 77.628906 49.757812 C 79.398438 50.25 80.28125 50.492188 82.042969 50.960938 Z M 79.011719 61.097656 C 78.902344 61.167969 78.796875 61.234375 78.695312 61.296875 C 77.667969 61.945312 77.050781 62.332031 75.910156 63.03125 C 76.722656 65.074219 77.109375 66.089844 77.871094 68.121094 C 76.324219 66.578125 75.546875 65.796875 73.960938 64.222656 C 72.691406 64.984375 72.046875 65.367188 70.746094 66.125 C 71.074219 64.375 71.222656 63.503906 71.5 61.765625 C 70.15625 60.429688 69.367188 59.644531 68.179688 58.464844 C 67.953125 58.234375 67.703125 57.988281 67.433594 57.71875 C 69.234375 58.28125 70.125 58.554688 71.898438 59.082031 C 72.144531 57.347656 72.253906 56.484375 72.445312 54.757812 C 73.355469 56.808594 73.789062 57.832031 74.632812 59.878906 C 76.398438 60.382812 77.273438 60.625 79.011719 61.097656 Z M 66.753906 42.074219 C 66.589844 42.171875 66.414062 42.277344 66.222656 42.394531 C 66.226562 42.230469 66.230469 42.070312 66.234375 41.921875 C 66.265625 40.523438 66.277344 39.683594 66.257812 38.15625 C 64.414062 36.53125 63.476562 35.714844 61.574219 34.070312 C 63.429688 34.679688 64.355469 34.976562 66.203125 35.542969 C 66.15625 33.859375 66.113281 33.015625 66.003906 31.332031 C 67.273438 33.359375 67.886719 34.375 69.0625 36.410156 C 70.90625 36.957031 71.828125 37.222656 73.664062 37.742188 C 72.539062 38.472656 71.972656 38.832031 70.839844 39.546875 C 71.820312 41.316406 72.351562 42.316406 73.164062 43.886719 C 73.289062 44.121094 73.414062 44.367188 73.546875 44.628906 C 73.171875 44.292969 72.835938 43.992188 72.523438 43.710938 L 72.519531 43.710938 C 71.363281 42.675781 70.507812 41.914062 69.085938 40.644531 C 68.136719 41.238281 67.582031 41.578125 66.757812 42.074219 L 66.75 42.074219 Z M 75.140625 139.386719 C 73.953125 137.847656 73.363281 137.070312 72.160156 135.507812 C 70.59375 136.277344 69.804688 136.652344 68.21875 137.378906 C 69.050781 135.660156 69.464844 134.800781 70.292969 133.066406 C 69.074219 131.484375 68.464844 130.679688 67.21875 129.066406 C 68.976562 129.625 69.84375 129.886719 71.566406 130.386719 C 72.015625 129.433594 72.34375 128.742188 72.679688 128.023438 C 72.953125 127.425781 73.238281 126.8125 73.601562 126.019531 C 73.714844 126.933594 73.800781 127.644531 73.882812 128.332031 C 73.984375 129.183594 74.082031 130.003906 74.214844 131.132812 C 75.914062 131.597656 76.761719 131.820312 78.4375 132.234375 C 76.902344 133.078125 76.128906 133.488281 74.574219 134.289062 C 74.800781 136.332031 74.914062 137.347656 75.140625 139.386719 Z M 75.339844 111.761719 C 73.828125 112.570312 73.066406 112.964844 71.523438 113.738281 C 72.082031 112.429688 72.421875 111.609375 72.855469 110.53125 C 73 110.179688 73.152344 109.800781 73.324219 109.367188 C 72 107.8125 71.324219 107.027344 69.949219 105.453125 C 71.738281 105.953125 72.621094 106.191406 74.371094 106.652344 C 75.035156 104.890625 75.351562 104.007812 75.960938 102.246094 C 76.433594 104.289062 76.648438 105.304688 77.050781 107.34375 C 78.773438 107.78125 79.625 107.992188 81.308594 108.390625 C 79.863281 109.246094 79.128906 109.667969 77.644531 110.496094 C 77.726562 110.957031 77.804688 111.367188 77.871094 111.746094 C 78.097656 113.046875 78.253906 114.011719 78.503906 115.589844 C 77.257812 114.070312 76.625 113.300781 75.339844 111.761719 Z M 85.632812 126.628906 C 84.148438 127.527344 83.398438 127.96875 81.886719 128.84375 C 82.675781 127.050781 83.066406 126.152344 83.832031 124.359375 C 82.660156 122.878906 82.0625 122.136719 80.859375 120.636719 C 82.53125 121.03125 83.359375 121.222656 85 121.582031 C 85.746094 119.785156 86.113281 118.882812 86.820312 117.082031 C 87.121094 119.101562 87.257812 120.105469 87.523438 122.121094 C 89.144531 122.460938 89.949219 122.621094 91.546875 122.929688 C 90.109375 123.859375 89.378906 124.324219 87.914062 125.234375 C 88.160156 127.246094 88.277344 128.25 88.503906 130.257812 C 87.363281 128.820312 86.792969 128.09375 85.632812 126.628906 Z M 97.929688 143.953125 C 96.824219 142.59375 96.269531 141.910156 95.160156 140.527344 C 93.707031 141.5 92.96875 141.980469 91.496094 142.9375 C 92.277344 141.117188 92.667969 140.207031 93.441406 138.382812 C 92.332031 136.988281 91.769531 136.28125 90.644531 134.863281 C 92.25 135.164062 93.050781 135.300781 94.632812 135.5625 C 95.109375 134.433594 95.433594 133.652344 95.792969 132.785156 C 96.011719 132.257812 96.242188 131.695312 96.523438 131.003906 C 96.613281 131.753906 96.679688 132.367188 96.738281 132.941406 C 96.847656 133.882812 96.9375 134.730469 97.070312 135.960938 C 98.644531 136.210938 99.425781 136.332031 100.984375 136.554688 C 99.558594 137.542969 98.84375 138.039062 97.398438 139.019531 C 97.613281 140.996094 97.714844 141.984375 97.929688 143.953125 Z M 98.222656 116.742188 C 96.851562 117.683594 96.15625 118.160156 94.753906 119.101562 C 95.324219 117.609375 95.652344 116.734375 96.113281 115.460938 C 96.214844 115.1875 96.320312 114.898438 96.4375 114.574219 C 95.273438 113.164062 94.679688 112.460938 93.484375 111.03125 C 95.074219 111.34375 95.859375 111.492188 97.417969 111.785156 C 98.042969 109.984375 98.339844 109.085938 98.914062 107.289062 C 99.300781 109.265625 99.484375 110.253906 99.816406 112.226562 C 101.367188 112.503906 102.132812 112.640625 103.65625 112.898438 C 102.339844 113.851562 101.675781 114.324219 100.320312 115.277344 C 100.375 115.621094 100.421875 115.9375 100.472656 116.234375 C 100.691406 117.625 100.828125 118.582031 101.058594 120.207031 C 99.933594 118.832031 99.367188 118.136719 98.222656 116.742188 Z M 107.628906 130.394531 C 106.257812 131.390625 105.566406 131.890625 104.167969 132.882812 C 104.890625 131.054688 105.246094 130.144531 105.945312 128.328125 C 104.851562 126.980469 104.304688 126.300781 103.199219 124.941406 C 104.730469 125.179688 105.492188 125.292969 107.011719 125.515625 C 107.695312 123.699219 108.023438 122.796875 108.671875 120.992188 C 108.957031 122.9375 109.09375 123.90625 109.347656 125.855469 C 110.855469 126.074219 111.605469 126.175781 113.105469 126.382812 C 111.769531 127.371094 111.097656 127.867188 109.742188 128.859375 C 109.988281 130.804688 110.105469 131.773438 110.34375 133.71875 C 109.261719 132.398438 108.71875 131.730469 107.628906 130.394531 Z M 119.570312 146.535156 C 118.472656 145.253906 117.921875 144.609375 116.832031 143.316406 C 115.460938 144.332031 114.773438 144.835938 113.386719 145.859375 C 114.09375 144.039062 114.445312 143.132812 115.148438 141.3125 C 114.058594 140.019531 113.515625 139.363281 112.429688 138.054688 C 113.949219 138.242188 114.707031 138.332031 116.21875 138.515625 C 116.605469 137.484375 116.890625 136.75 117.179688 135.972656 C 117.402344 135.382812 117.628906 134.769531 117.921875 133.988281 C 118.03125 134.828125 118.121094 135.484375 118.203125 136.117188 C 118.308594 136.933594 118.410156 137.710938 118.550781 138.792969 C 120.054688 138.96875 120.808594 139.0625 122.3125 139.242188 C 120.972656 140.242188 120.296875 140.746094 118.9375 141.75 C 119.1875 143.667969 119.316406 144.625 119.570312 146.535156 Z M 128.5625 133.171875 C 127.257812 134.140625 126.601562 134.628906 125.28125 135.613281 C 125.929688 133.824219 126.246094 132.933594 126.875 131.164062 C 125.785156 129.855469 125.242188 129.203125 124.152344 127.902344 C 125.628906 128.105469 126.363281 128.210938 127.835938 128.429688 C 128.449219 126.660156 128.746094 125.78125 129.335938 124.035156 C 129.652344 125.921875 129.800781 126.867188 130.105469 128.761719 C 131.574219 128.984375 132.3125 129.097656 133.785156 129.332031 C 132.503906 130.265625 131.863281 130.738281 130.570312 131.691406 C 130.863281 133.585938 131.011719 134.535156 131.304688 136.4375 C 130.203125 135.132812 129.65625 134.480469 128.5625 133.171875 Z M 140.074219 144.628906 C 140.394531 146.535156 140.554688 147.488281 140.882812 149.390625 C 139.734375 148.046875 139.164062 147.382812 138.03125 146.054688 C 136.707031 146.984375 136.042969 147.453125 134.710938 148.40625 C 135.34375 146.644531 135.664062 145.769531 136.289062 144.011719 C 135.164062 142.691406 134.605469 142.03125 133.492188 140.722656 C 134.992188 140.945312 135.746094 141.058594 137.25 141.300781 C 137.550781 140.453125 137.78125 139.808594 138 139.175781 C 138.238281 138.5 138.46875 137.835938 138.78125 136.9375 C 138.945312 137.917969 139.066406 138.644531 139.191406 139.382812 C 139.304688 140.074219 139.421875 140.765625 139.578125 141.6875 C 141.082031 141.949219 141.839844 142.085938 143.355469 142.378906 C 142.042969 143.261719 141.386719 143.71875 140.074219 144.628906 Z M 141.625 122.046875 C 141.730469 122.582031 141.820312 123.035156 141.902344 123.457031 C 142.109375 124.519531 142.273438 125.378906 142.523438 126.726562 C 141.394531 125.386719 140.832031 124.71875 139.707031 123.390625 C 138.464844 124.273438 137.835938 124.71875 136.582031 125.628906 C 136.992188 124.382812 137.25 123.589844 137.574219 122.605469 C 137.691406 122.226562 137.824219 121.820312 137.972656 121.351562 C 136.855469 120.03125 136.292969 119.375 135.171875 118.058594 C 136.621094 118.324219 137.347656 118.457031 138.804688 118.734375 C 139.328125 117.050781 139.582031 116.214844 140.082031 114.5625 C 140.480469 116.398438 140.671875 117.320312 141.050781 119.171875 C 142.511719 119.460938 143.242188 119.613281 144.710938 119.925781 C 143.480469 120.757812 142.863281 121.183594 141.625 122.046875 Z M 152.359375 140.398438 C 151.1875 138.972656 150.605469 138.269531 149.449219 136.878906 C 148.15625 137.714844 147.507812 138.144531 146.207031 139.007812 C 146.796875 137.292969 147.089844 136.4375 147.667969 134.734375 C 146.515625 133.355469 145.945312 132.675781 144.808594 131.316406 C 146.300781 131.621094 147.046875 131.773438 148.550781 132.109375 C 149.113281 130.417969 149.390625 129.574219 149.9375 127.902344 C 150.316406 129.789062 150.503906 130.738281 150.875 132.644531 C 152.386719 132.996094 153.140625 133.183594 154.664062 133.574219 C 153.378906 134.367188 152.734375 134.769531 151.441406 135.59375 C 151.8125 137.507812 151.992188 138.46875 152.359375 140.398438 Z M 162.652344 154.769531 C 161.445312 153.210938 160.835938 152.449219 159.617188 150.9375 C 158.285156 151.675781 157.617188 152.058594 156.285156 152.828125 C 156.871094 151.144531 157.167969 150.296875 157.75 148.613281 C 156.542969 147.125 155.945312 146.390625 154.757812 144.9375 C 156.304688 145.34375 157.082031 145.554688 158.648438 146.011719 C 158.863281 145.382812 159.039062 144.867188 159.207031 144.386719 C 159.480469 143.582031 159.726562 142.863281 160.085938 141.816406 C 160.335938 143.070312 160.507812 143.925781 160.703125 144.894531 C 160.8125 145.441406 160.929688 146.023438 161.070312 146.738281 C 162.644531 147.226562 163.40625 147.46875 164.957031 148.027344 C 163.652344 148.710938 162.996094 149.066406 161.679688 149.800781 C 162.066406 151.777344 162.261719 152.777344 162.652344 154.769531 Z M 162.65625 127.207031 C 162.832031 128.007812 162.972656 128.644531 163.105469 129.257812 C 163.289062 130.097656 163.453125 130.894531 163.691406 132.019531 C 162.519531 130.554688 161.910156 129.820312 160.761719 128.433594 C 160.699219 128.410156 160.636719 128.386719 160.578125 128.371094 C 159.347656 129.070312 158.707031 129.445312 157.453125 130.191406 C 157.800781 129.132812 158.039062 128.417969 158.304688 127.617188 C 158.453125 127.164062 158.613281 126.683594 158.800781 126.089844 C 157.597656 124.65625 157 123.949219 155.808594 122.550781 C 157.320312 122.945312 158.082031 123.152344 159.617188 123.585938 C 160.136719 121.976562 160.394531 121.179688 160.902344 119.597656 C 161.347656 121.453125 161.566406 122.386719 162 124.273438 C 163.546875 124.734375 164.3125 124.976562 165.839844 125.503906 C 164.574219 126.15625 163.9375 126.496094 162.65625 127.207031 Z M 172.964844 142.609375 C 173.375 144.644531 173.582031 145.671875 173.996094 147.726562 C 172.792969 146.019531 172.191406 145.175781 170.992188 143.523438 C 169.710938 144.128906 169.070312 144.441406 167.773438 145.089844 C 168.324219 143.445312 168.597656 142.625 169.144531 140.992188 C 167.945312 139.371094 167.347656 138.570312 166.148438 137.003906 C 167.683594 137.5625 168.445312 137.855469 169.972656 138.484375 C 170.511719 136.863281 170.777344 136.058594 171.300781 134.464844 C 171.710938 136.453125 171.917969 137.460938 172.328125 139.480469 C 173.847656 140.144531 174.609375 140.492188 176.121094 141.21875 C 174.863281 141.753906 174.234375 142.03125 172.964844 142.609375 Z M 172.964844 142.609375 " fill-opacity="1" fill-rule="nonzero"/></g><path stroke-linecap="butt" transform="matrix(3.257765, 0, 0, 3.257765, 4.212364, 117.103286)" fill="none" stroke-linejoin="miter" d="M 23.39079 -1.362659 C 23.748109 -1.362659 24.047874 -1.349469 24.292481 -1.320692 L 24.292481 -1.106061 C 23.405178 -1.064094 22.63898 -0.849462 21.996285 -0.460967 C 21.264859 -0.0173158 20.745667 0.39516 20.438708 0.776461 C 20.13055 1.154164 19.885943 1.462322 19.704885 1.699736 C 19.526225 1.933552 19.351163 2.215331 19.179697 2.543872 C 18.907511 3.047477 18.656908 3.541489 18.430286 4.028307 L 12.672408 16.613621 C 12.011727 18.033306 11.660403 18.972169 11.618436 19.430209 L 11.424189 19.430209 L 4.915701 5.402427 C 4.702269 5.003141 4.430082 4.700978 4.097943 4.49474 C 3.769401 4.284905 3.433665 4.180587 3.090734 4.180587 L 2.91807 4.180587 L 2.91807 3.964756 L 9.751503 3.964756 L 9.751503 4.180587 L 9.577639 4.180587 C 9.263486 4.180587 9.030869 4.276512 8.880986 4.468361 C 8.729905 4.66021 8.655563 4.844865 8.655563 5.018729 C 8.655563 5.190194 8.683142 5.361659 8.738298 5.533125 L 12.394227 14.401359 L 16.841534 4.028307 C 17.511807 2.437156 18.298389 1.241695 19.20128 0.440724 C 20.533434 -0.761931 21.929138 -1.362659 23.39079 -1.362659 Z M 20.116162 18.785116 C 20.490268 18.785116 20.808018 18.65202 21.070612 18.387028 C 21.335604 18.120838 21.475894 17.803087 21.490282 17.432578 L 21.490282 5.469574 C 21.448315 4.967169 21.212101 4.594262 20.781639 4.353251 C 20.568207 4.238142 20.346381 4.180587 20.116162 4.180587 L 19.83798 4.180587 L 19.83798 3.964756 L 28.065918 3.964756 C 28.509569 3.964756 28.996387 3.922789 29.523972 3.838855 C 30.055155 3.751324 30.428062 3.663793 30.640295 3.577461 L 30.640295 7.336508 L 30.425664 7.336508 L 30.425664 7.07991 C 30.425664 6.433617 30.235014 5.914425 29.853713 5.522333 C 29.477209 5.127843 28.96641 4.91561 28.322516 4.888031 L 24.71455 4.888031 L 24.71455 11.138722 L 27.546725 11.138722 C 28.077908 11.125532 28.515564 10.943275 28.857296 10.59315 C 29.203824 10.240627 29.376488 9.806568 29.376488 9.293371 L 29.376488 9.099124 L 29.592319 9.099124 L 29.592319 14.059627 L 29.376488 14.059627 L 29.376488 13.886963 C 29.376488 13.169926 29.089913 12.641142 28.516763 12.298211 C 28.230189 12.141134 27.916035 12.054802 27.573105 12.041612 L 24.71455 12.041612 L 24.71455 18.076472 L 27.526341 18.076472 C 28.570721 18.076472 29.448432 17.776708 30.158274 17.174781 C 30.868117 16.574052 31.394503 15.720323 31.737434 14.61599 L 31.952065 14.61599 L 30.966439 18.999747 L 19.83798 18.999747 L 19.83798 18.785116 Z M 41.266349 4.846064 L 41.266349 17.452962 C 41.280738 17.827068 41.421028 18.14362 41.68602 18.402616 C 41.952211 18.656817 42.269961 18.785116 42.64047 18.785116 L 42.903064 18.785116 L 42.923448 18.999747 L 36.38978 18.999747 L 36.38978 18.785116 L 36.672757 18.785116 C 37.028878 18.785116 37.340633 18.656817 37.605625 18.402616 C 37.871815 18.14362 38.0193 17.834263 38.046878 17.474545 L 38.046878 4.846064 L 35.146356 4.846064 C 34.485675 4.860453 33.961687 5.06789 33.573192 5.469574 C 33.188294 5.868861 32.996445 6.39165 32.996445 7.037943 L 32.996445 7.294541 L 32.781813 7.294541 L 32.781813 3.555878 C 32.984454 3.643409 33.34657 3.73094 33.866961 3.818471 C 34.39095 3.902405 34.875369 3.944372 35.32022 3.944372 L 43.972624 3.944372 C 44.675272 3.929984 45.248422 3.872429 45.692073 3.770509 C 46.136924 3.669788 46.40911 3.597845 46.51103 3.555878 L 46.51103 7.294541 L 46.295199 7.294541 L 46.295199 7.037943 C 46.295199 6.39165 46.102151 5.868861 45.713656 5.469574 C 45.328758 5.06789 44.805969 4.860453 44.145288 4.846064 Z M 47.960691 18.785116 C 48.334797 18.785116 48.652548 18.65202 48.915142 18.387028 C 49.181332 18.120838 49.320423 17.803087 49.334812 17.432578 L 49.334812 5.469574 C 49.292845 4.967169 49.05663 4.594262 48.626168 4.353251 C 48.413935 4.238142 48.19091 4.180587 47.960691 4.180587 L 47.68251 4.180587 L 47.68251 3.964756 L 55.910447 3.964756 C 56.355298 3.964756 56.840916 3.922789 57.368502 3.838855 C 57.899685 3.751324 58.272592 3.663793 58.486024 3.577461 L 58.486024 7.336508 L 58.270194 7.336508 L 58.270194 7.07991 C 58.270194 6.433617 58.080742 5.914425 57.699442 5.522333 C 57.321739 5.127843 56.81094 4.91561 56.168245 4.888031 L 52.560278 4.888031 L 52.560278 11.138722 L 55.391255 11.138722 C 55.923637 11.125532 56.360094 10.943275 56.703025 10.59315 C 57.048353 10.240627 57.222217 9.806568 57.222217 9.293371 L 57.222217 9.099124 L 57.436848 9.099124 L 57.436848 14.059627 L 57.222217 14.059627 L 57.222217 13.886963 C 57.222217 13.169926 56.935642 12.641142 56.361293 12.298211 C 56.074718 12.141134 55.760565 12.054802 55.417634 12.041612 L 52.560278 12.041612 L 52.560278 18.076472 L 55.370871 18.076472 C 56.41645 18.076472 57.292961 17.776708 58.002804 17.174781 C 58.712646 16.574052 59.239033 15.720323 59.581963 14.61599 L 59.796595 14.61599 L 58.810969 18.999747 L 47.68251 18.999747 L 47.68251 18.785116 Z M 67.160011 4.908415 L 66.23194 4.908415 C 66.204362 4.908415 66.183978 4.908415 66.169589 4.908415 L 66.169589 17.432578 C 66.183978 17.963761 66.412998 18.357052 66.856649 18.612451 C 67.073679 18.727561 67.302699 18.785116 67.54371 18.785116 L 67.826687 18.785116 L 67.826687 18.999747 L 61.29182 18.999747 L 61.29182 18.785116 L 61.575997 18.785116 C 62.089194 18.785116 62.482485 18.56329 62.75587 18.118439 C 62.87098 17.919396 62.935729 17.69757 62.950118 17.452962 L 62.950118 5.533125 C 62.935729 5.159018 62.795439 4.841268 62.530447 4.578674 C 62.264256 4.312483 61.946506 4.180587 61.575997 4.180587 L 61.29182 4.180587 L 61.29182 3.964756 L 68.660033 3.964756 C 70.052139 3.964756 71.226017 4.26572 72.184065 4.866448 C 72.670883 5.167412 73.056979 5.587082 73.343554 6.125459 C 73.630129 6.660239 73.774016 7.269361 73.774016 7.950426 C 73.774016 8.629093 73.65411 9.255001 73.416697 9.828151 C 73.18288 10.401301 72.789589 10.902507 72.236823 11.332969 C 71.687655 11.763431 71.025775 12.020029 70.249984 12.103964 C 71.080931 12.37615 71.812357 13.008053 72.441862 13.997276 C 73.989847 16.472133 75.134947 17.945775 75.875965 18.418204 C 76.250071 18.648423 76.717704 18.770727 77.276465 18.785116 L 77.276465 18.999747 L 75.168521 18.999747 C 73.951477 18.999747 72.934675 18.831879 72.115719 18.496143 C 71.301558 18.158008 70.63728 17.580062 70.124083 16.765902 C 69.865086 16.349829 69.534146 15.72392 69.132462 14.888177 C 68.734374 14.050035 68.469383 13.451705 68.341083 13.095585 C 67.952589 12.234661 67.464572 11.753839 66.877033 11.653118 L 66.877033 11.438486 L 67.54371 11.438486 C 68.190002 11.438486 68.759555 11.245438 69.253567 10.86054 C 69.74638 10.473244 70.078519 9.84254 70.249984 8.968426 C 70.308738 8.667463 70.338714 8.431248 70.338714 8.259783 C 70.338714 7.085905 70.101301 6.236972 69.625275 5.71658 C 69.152846 5.192592 68.544923 4.922804 67.800308 4.908415 C 67.65762 4.908415 67.444188 4.908415 67.160011 4.908415 Z M 92.196346 18.785116 L 92.390594 18.785116 L 92.390594 18.999747 L 85.535578 18.999747 L 85.535578 18.785116 L 85.729825 18.785116 C 86.045178 18.785116 86.277795 18.689191 86.427677 18.496143 C 86.57756 18.300696 86.6531 18.11724 86.6531 17.945775 C 86.6531 17.77431 86.618328 17.602844 86.548782 17.432578 L 85.493611 14.788655 L 80.464761 14.788655 L 79.348438 17.432578 C 79.277693 17.617233 79.242921 17.792296 79.242921 17.956567 C 79.242921 18.120838 79.318461 18.300696 79.468343 18.496143 C 79.619425 18.689191 79.858037 18.785116 80.186579 18.785116 L 80.360443 18.785116 L 80.360443 18.999747 L 75.760856 18.999747 L 75.760856 18.785116 L 75.955103 18.785116 C 76.283645 18.785116 76.612187 18.685594 76.940729 18.48655 C 77.272868 18.28271 77.546253 17.982946 77.758486 17.583659 L 82.720189 6.346086 C 83.395259 4.929998 83.752578 3.993534 83.794545 3.535494 L 83.988793 3.535494 L 90.37138 17.536896 C 90.584812 17.952969 90.855799 18.265924 91.184341 18.475759 C 91.512883 18.681997 91.849818 18.785116 92.196346 18.785116 Z M 80.831673 13.886963 L 85.126699 13.886963 L 83.045134 8.606311 Z M 109.261343 4.180587 C 108.905222 4.180587 108.597064 4.306488 108.338068 4.557091 C 108.083867 4.805296 107.947175 5.109857 107.929189 5.469574 L 107.929189 16.55127 C 107.929189 17.509318 107.993938 18.318682 108.123436 18.979363 L 108.191783 19.299512 L 107.997535 19.299512 L 97.147258 8.968426 L 97.147258 17.494929 C 97.147258 17.854647 97.276756 18.160406 97.535752 18.412209 C 97.794749 18.660414 98.101708 18.785116 98.459027 18.785116 L 98.867906 18.785116 L 98.867906 18.999747 L 92.359418 18.999747 L 92.359418 18.785116 L 92.747913 18.785116 C 93.118422 18.785116 93.432575 18.660414 93.691572 18.412209 C 93.950568 18.160406 94.080067 17.847452 94.080067 17.474545 L 94.080067 6.324503 C 94.080067 5.380844 94.015318 4.594262 93.885819 3.964756 L 93.843852 3.639812 L 94.032104 3.639812 L 104.882382 13.975693 L 104.882382 5.491158 C 104.869192 5.117051 104.7325 4.805296 104.473503 4.557091 C 104.214507 4.306488 103.907548 4.180587 103.550228 4.180587 L 103.162933 4.180587 L 103.162933 3.964756 L 109.670221 3.964756 L 109.670221 4.180587 Z M 109.261343 4.180587 " stroke="#0a3161" stroke-width="5.640311" stroke-opacity="1" stroke-miterlimit="4"/><path stroke-linecap="butt" transform="matrix(3.257765, 0, 0, 3.257765, 4.212364, 117.103286)" fill="none" stroke-linejoin="miter" d="M 18.678491 34.398053 C 18.420693 33.852481 18.291195 33.333289 18.291195 32.840476 C 18.291195 32.347663 18.355944 31.889623 18.485443 31.466355 C 18.613742 31.043088 18.829572 30.629413 19.129337 30.224131 C 19.4303 29.814053 19.853568 29.473521 20.399139 29.201334 C 21.143755 28.81284 22.038252 28.618592 23.083831 28.618592 C 24.457951 28.618592 25.760129 28.969916 26.990362 29.672564 C 28.609091 30.588645 29.733808 31.856049 30.363313 33.474778 C 30.719433 34.36328 30.898093 35.315332 30.898093 36.333333 C 30.898093 38.724255 30.034771 40.651141 28.306928 42.111594 C 26.583882 43.569649 24.335647 44.298676 21.563425 44.298676 C 18.7948 44.298676 16.539371 43.569649 14.798339 42.111594 C 13.060903 40.651141 12.191586 38.731449 12.191586 36.353717 C 12.191586 34.577911 12.69519 33.034723 13.702399 31.722954 C 14.712006 30.412383 16.077734 29.521483 17.798382 29.049054 L 17.92908 29.243301 C 17.198853 29.858418 16.646087 30.76011 16.271981 31.948377 C 15.901472 33.137842 15.715618 34.418437 15.715618 35.792557 C 15.715618 38.113934 16.252796 39.961683 17.325953 41.335803 C 18.39911 42.709924 19.804407 43.396984 21.541842 43.396984 C 23.282874 43.396984 24.686972 42.750692 25.752934 41.456908 C 26.822494 40.159527 27.358473 38.444874 27.358473 36.311749 C 27.358473 35.021563 27.160629 33.857277 26.764939 32.818893 C 26.370449 31.781708 25.800897 30.978339 25.056281 30.412383 C 24.311666 29.846428 23.480719 29.56345 22.564639 29.56345 C 21.547837 29.56345 20.724084 29.828442 20.094579 30.359625 C 19.207276 31.118628 18.762425 32.085069 18.762425 33.260146 C 18.762425 33.630655 18.813984 34.009558 18.914705 34.398053 Z M 53.013522 29.179751 L 52.819275 29.179751 C 52.463155 29.179751 52.101039 29.288866 51.734127 29.504696 C 51.370813 29.718128 51.110617 30.023888 50.952341 30.423175 L 47.344375 42.00248 C 47.099767 42.789062 46.977463 43.519288 46.977463 44.194358 C 46.977463 44.263903 46.977463 44.328653 46.977463 44.388606 L 46.762832 44.388606 L 42.079311 34.009558 L 38.687175 42.00248 C 38.358633 42.834626 38.187168 43.629602 38.172779 44.388606 L 37.958148 44.388606 L 32.82378 30.423175 C 32.637926 30.010699 32.372935 29.701342 32.026407 29.495104 C 31.683476 29.285268 31.33455 29.179751 30.977231 29.179751 L 30.804566 29.179751 L 30.804566 28.96512 L 37.355021 28.96512 L 37.355021 29.179751 L 37.160774 29.179751 C 36.85981 29.179751 36.634387 29.275676 36.484505 29.468724 C 36.333424 29.660574 36.259082 29.84403 36.259082 30.019092 C 36.259082 30.190557 36.28786 30.354828 36.347813 30.511905 L 38.985741 37.984436 L 42.876684 28.618592 L 43.070932 28.640175 L 47.344375 38.074365 L 49.48949 30.511905 C 49.535055 30.354828 49.557837 30.190557 49.557837 30.019092 C 49.557837 29.84403 49.48949 29.660574 49.352798 29.468724 C 49.217304 29.275676 48.991881 29.179751 48.676529 29.179751 L 48.482282 29.179751 L 48.482282 28.96512 L 53.013522 28.96512 Z M 69.905854 29.179751 C 69.548535 29.179751 69.241576 29.305652 68.98258 29.557455 C 68.72718 29.80566 68.591687 30.11022 68.573701 30.469938 L 68.573701 41.550435 C 68.573701 42.508482 68.63845 43.317847 68.767948 43.978528 L 68.836294 44.298676 L 68.642047 44.298676 L 57.791769 33.967591 L 57.791769 42.495293 C 57.791769 42.85501 57.921268 43.16077 58.180264 43.412572 C 58.438062 43.660777 58.74622 43.785479 59.10234 43.785479 L 59.511219 43.785479 L 59.511219 44.000111 L 53.00393 44.000111 L 53.00393 43.785479 L 53.392425 43.785479 C 53.762934 43.785479 54.077087 43.660777 54.336084 43.412572 C 54.59508 43.16077 54.723379 42.847816 54.723379 42.47371 L 54.723379 31.324866 C 54.723379 30.381208 54.65863 29.594625 54.530331 28.96512 L 54.488364 28.640175 L 54.676616 28.640175 L 65.526894 38.976057 L 65.526894 30.491521 C 65.512505 30.117415 65.377012 29.80566 65.118015 29.557455 C 64.859018 29.305652 64.55086 29.179751 64.19474 29.179751 L 63.806245 29.179751 L 63.806245 28.96512 L 70.314733 28.96512 L 70.314733 29.179751 Z M 72.108524 43.785479 C 72.48263 43.785479 72.80158 43.652384 73.062975 43.386193 C 73.329166 43.121201 73.469455 42.802252 73.482645 42.431743 L 73.482645 30.469938 C 73.440678 29.966333 73.205663 29.594625 72.775201 29.353615 C 72.561768 29.237306 72.339942 29.179751 72.108524 29.179751 L 71.831542 29.179751 L 71.831542 28.96512 L 80.059479 28.96512 C 80.503131 28.96512 80.988749 28.923153 81.517534 28.839219 C 82.048717 28.751688 82.420425 28.664156 82.633857 28.576625 L 82.633857 32.336872 L 82.419226 32.336872 L 82.419226 32.080273 C 82.419226 31.432782 82.228575 30.913589 81.847275 30.522697 C 81.469572 30.127007 80.959972 29.915973 80.316078 29.888395 L 76.708112 29.888395 L 76.708112 36.139085 L 79.540287 36.139085 C 80.07147 36.124696 80.507927 35.943639 80.850858 35.593514 C 81.197385 35.240991 81.37005 34.806931 81.37005 34.292535 L 81.37005 34.099487 L 81.584681 34.099487 L 81.584681 39.059991 L 81.37005 39.059991 L 81.37005 38.887327 C 81.37005 38.17029 81.083475 37.640306 80.510325 37.298574 C 80.22375 37.140299 79.908398 37.055166 79.566666 37.040777 L 76.708112 37.040777 L 76.708112 43.076836 L 79.518704 43.076836 C 80.564283 43.076836 81.441993 42.775872 82.151836 42.175144 C 82.861678 41.573217 83.388065 40.720686 83.729796 39.616354 L 83.945627 39.616354 L 82.958802 44.000111 L 71.831542 44.000111 L 71.831542 43.785479 Z M 93.175977 28.96512 C 95.710786 28.96512 97.715611 29.637792 99.190453 30.984334 C 100.666493 32.329677 101.403914 34.164236 101.403914 36.485613 C 101.403914 38.803392 100.666493 40.635553 99.190453 41.980897 C 97.715611 43.327439 95.710786 44.000111 93.175977 44.000111 L 85.377302 44.000111 L 85.377302 43.785479 L 85.655484 43.785479 C 86.02959 43.785479 86.348539 43.652384 86.609934 43.386193 C 86.876125 43.121201 87.015216 42.802252 87.029604 42.431743 L 87.029604 30.401592 C 86.987637 30.05986 86.837755 29.770887 86.578759 29.537071 C 86.323359 29.298458 86.0164 29.179751 85.655484 29.179751 L 85.377302 29.179751 L 85.377302 28.96512 Z M 92.897795 43.098419 C 93.928985 43.098419 94.821085 42.831029 95.572894 42.296249 C 96.323505 41.756673 96.899053 40.989276 97.298339 39.994057 C 97.700023 38.99764 97.900266 37.82616 97.900266 36.479618 C 97.900266 34.448413 97.453017 32.839277 96.55852 31.649811 C 95.662824 30.461545 94.443381 29.866812 92.897795 29.866812 L 90.255071 29.866812 L 90.255071 43.098419 Z M 92.897795 43.098419 " stroke="#0a3161" stroke-width="5.640311" stroke-opacity="1" stroke-miterlimit="4"/><g fill="#ffffff" fill-opacity="1"><g transform="translate(15.614541, 179.000824)"><g><path d="M 64.796875 -66.34375 C 65.960938 -66.34375 66.941406 -66.296875 67.734375 -66.203125 L 67.734375 -65.5 C 64.835938 -65.363281 62.34375 -64.664062 60.25 -63.40625 C 57.875 -61.957031 56.179688 -60.613281 55.171875 -59.375 C 54.171875 -58.144531 53.378906 -57.144531 52.796875 -56.375 C 52.210938 -55.601562 51.640625 -54.679688 51.078125 -53.609375 C 50.191406 -51.972656 49.375 -50.363281 48.625 -48.78125 L 29.875 -7.765625 C 27.726562 -3.148438 26.585938 -0.09375 26.453125 1.40625 L 25.8125 1.40625 L 4.609375 -44.296875 C 3.910156 -45.609375 3.023438 -46.601562 1.953125 -47.28125 C 0.878906 -47.957031 -0.21875 -48.296875 -1.34375 -48.296875 L -1.890625 -48.296875 L -1.890625 -48.984375 L 20.359375 -48.984375 L 20.359375 -48.296875 L 19.796875 -48.296875 C 18.773438 -48.296875 18.015625 -47.976562 17.515625 -47.34375 C 17.023438 -46.71875 16.78125 -46.125 16.78125 -45.5625 C 16.78125 -45 16.875 -44.4375 17.0625 -43.875 L 28.96875 -14.984375 L 43.453125 -48.78125 C 45.640625 -53.957031 48.207031 -57.851562 51.15625 -60.46875 C 55.488281 -64.382812 60.035156 -66.34375 64.796875 -66.34375 Z M 64.796875 -66.34375 "/></g></g></g><g fill="#ffffff" fill-opacity="1"><g transform="translate(65.90127, 179.000824)"><g><path d="M 3.84375 -0.703125 C 5.0625 -0.703125 6.101562 -1.132812 6.96875 -2 C 7.832031 -2.863281 8.285156 -3.898438 8.328125 -5.109375 L 8.328125 -44.09375 C 8.191406 -45.726562 7.421875 -46.941406 6.015625 -47.734375 C 5.316406 -48.109375 4.59375 -48.296875 3.84375 -48.296875 L 2.9375 -48.296875 L 2.9375 -48.984375 L 29.75 -48.984375 C 31.1875 -48.984375 32.769531 -49.125 34.5 -49.40625 C 36.226562 -49.6875 37.441406 -49.96875 38.140625 -50.25 L 38.140625 -38 L 37.4375 -38 L 37.4375 -38.84375 C 37.4375 -40.9375 36.816406 -42.625 35.578125 -43.90625 C 34.347656 -45.195312 32.679688 -45.890625 30.578125 -45.984375 L 18.828125 -45.984375 L 18.828125 -25.609375 L 28.0625 -25.609375 C 29.789062 -25.660156 31.210938 -26.253906 32.328125 -27.390625 C 33.453125 -28.535156 34.015625 -29.953125 34.015625 -31.640625 L 34.015625 -32.265625 L 34.71875 -32.265625 L 34.71875 -16.09375 L 34.015625 -16.09375 L 34.015625 -16.65625 C 34.015625 -18.988281 33.082031 -20.710938 31.21875 -21.828125 C 30.28125 -22.347656 29.253906 -22.628906 28.140625 -22.671875 L 18.828125 -22.671875 L 18.828125 -3.015625 L 28 -3.015625 C 31.40625 -3.015625 34.257812 -3.992188 36.5625 -5.953125 C 38.875 -7.910156 40.585938 -10.6875 41.703125 -14.28125 L 42.40625 -14.28125 L 39.1875 0 L 2.9375 0 L 2.9375 -0.703125 Z M 3.84375 -0.703125 "/></g></g></g><g fill="#ffffff" fill-opacity="1"><g transform="translate(110.033261, 179.000824)"><g><path d="M 28.625 -46.125 L 28.625 -5.03125 C 28.664062 -3.820312 29.117188 -2.796875 29.984375 -1.953125 C 30.847656 -1.117188 31.890625 -0.703125 33.109375 -0.703125 L 33.9375 -0.703125 L 34.015625 0 L 12.734375 0 L 12.734375 -0.703125 L 13.640625 -0.703125 C 14.804688 -0.703125 15.820312 -1.117188 16.6875 -1.953125 C 17.550781 -2.796875 18.03125 -3.800781 18.125 -4.96875 L 18.125 -46.125 L 8.671875 -46.125 C 6.523438 -46.070312 4.820312 -45.390625 3.5625 -44.078125 C 2.300781 -42.773438 1.671875 -41.078125 1.671875 -38.984375 L 1.671875 -38.140625 L 0.984375 -38.140625 L 0.984375 -50.3125 C 1.628906 -50.039062 2.800781 -49.765625 4.5 -49.484375 C 6.207031 -49.203125 7.785156 -49.0625 9.234375 -49.0625 L 37.4375 -49.0625 C 39.726562 -49.101562 41.59375 -49.285156 43.03125 -49.609375 C 44.476562 -49.941406 45.367188 -50.175781 45.703125 -50.3125 L 45.703125 -38.140625 L 45 -38.140625 L 45 -38.984375 C 45 -41.078125 44.367188 -42.773438 43.109375 -44.078125 C 41.847656 -45.390625 40.144531 -46.070312 38 -46.125 Z M 28.625 -46.125 "/></g></g></g><g fill="#ffffff" fill-opacity="1"><g transform="translate(156.613148, 179.000824)"><g><path d="M 3.84375 -0.703125 C 5.0625 -0.703125 6.101562 -1.132812 6.96875 -2 C 7.832031 -2.863281 8.285156 -3.898438 8.328125 -5.109375 L 8.328125 -44.09375 C 8.191406 -45.726562 7.421875 -46.941406 6.015625 -47.734375 C 5.316406 -48.109375 4.59375 -48.296875 3.84375 -48.296875 L 2.9375 -48.296875 L 2.9375 -48.984375 L 29.75 -48.984375 C 31.1875 -48.984375 32.769531 -49.125 34.5 -49.40625 C 36.226562 -49.6875 37.441406 -49.96875 38.140625 -50.25 L 38.140625 -38 L 37.4375 -38 L 37.4375 -38.84375 C 37.4375 -40.9375 36.816406 -42.625 35.578125 -43.90625 C 34.347656 -45.195312 32.679688 -45.890625 30.578125 -45.984375 L 18.828125 -45.984375 L 18.828125 -25.609375 L 28.0625 -25.609375 C 29.789062 -25.660156 31.210938 -26.253906 32.328125 -27.390625 C 33.453125 -28.535156 34.015625 -29.953125 34.015625 -31.640625 L 34.015625 -32.265625 L 34.71875 -32.265625 L 34.71875 -16.09375 L 34.015625 -16.09375 L 34.015625 -16.65625 C 34.015625 -18.988281 33.082031 -20.710938 31.21875 -21.828125 C 30.28125 -22.347656 29.253906 -22.628906 28.140625 -22.671875 L 18.828125 -22.671875 L 18.828125 -3.015625 L 28 -3.015625 C 31.40625 -3.015625 34.257812 -3.992188 36.5625 -5.953125 C 38.875 -7.910156 40.585938 -10.6875 41.703125 -14.28125 L 42.40625 -14.28125 L 39.1875 0 L 2.9375 0 L 2.9375 -0.703125 Z M 3.84375 -0.703125 "/></g></g></g><g fill="#ffffff" fill-opacity="1"><g transform="translate(200.745139, 179.000824)"><g><path d="M 22.25 -45.90625 L 19.25 -45.90625 C 19.15625 -45.90625 19.082031 -45.90625 19.03125 -45.90625 L 19.03125 -5.109375 C 19.082031 -3.378906 19.832031 -2.097656 21.28125 -1.265625 C 21.976562 -0.890625 22.722656 -0.703125 23.515625 -0.703125 L 24.421875 -0.703125 L 24.421875 0 L 3.15625 0 L 3.15625 -0.703125 L 4.0625 -0.703125 C 5.738281 -0.703125 7.019531 -1.425781 7.90625 -2.875 C 8.28125 -3.519531 8.488281 -4.238281 8.53125 -5.03125 L 8.53125 -43.875 C 8.488281 -45.09375 8.035156 -46.132812 7.171875 -47 C 6.304688 -47.863281 5.269531 -48.296875 4.0625 -48.296875 L 3.15625 -48.296875 L 3.15625 -48.984375 L 27.15625 -48.984375 C 31.675781 -48.984375 35.5 -48.003906 38.625 -46.046875 C 40.21875 -45.066406 41.476562 -43.703125 42.40625 -41.953125 C 43.34375 -40.203125 43.8125 -38.21875 43.8125 -36 C 43.8125 -33.789062 43.425781 -31.75 42.65625 -29.875 C 41.882812 -28.007812 40.597656 -26.378906 38.796875 -24.984375 C 37.003906 -23.585938 34.847656 -22.75 32.328125 -22.46875 C 35.035156 -21.582031 37.414062 -19.53125 39.46875 -16.3125 C 44.507812 -8.238281 48.242188 -3.429688 50.671875 -1.890625 C 51.878906 -1.140625 53.394531 -0.742188 55.21875 -0.703125 L 55.21875 0 L 48.359375 0 C 44.390625 0 41.078125 -0.546875 38.421875 -1.640625 C 35.765625 -2.742188 33.59375 -4.625 31.90625 -7.28125 C 31.070312 -8.632812 30 -10.675781 28.6875 -13.40625 C 27.382812 -16.132812 26.523438 -18.082031 26.109375 -19.25 C 24.847656 -22.039062 23.257812 -23.601562 21.34375 -23.9375 L 21.34375 -24.640625 L 23.515625 -24.640625 C 25.617188 -24.640625 27.472656 -25.265625 29.078125 -26.515625 C 30.691406 -27.773438 31.773438 -29.832031 32.328125 -32.6875 C 32.515625 -33.664062 32.609375 -34.4375 32.609375 -35 C 32.609375 -38.820312 31.835938 -41.582031 30.296875 -43.28125 C 28.765625 -44.988281 26.785156 -45.863281 24.359375 -45.90625 C 23.890625 -45.90625 23.1875 -45.90625 22.25 -45.90625 Z M 22.25 -45.90625 "/></g></g></g><g fill="#ffffff" fill-opacity="1"><g transform="translate(252.920234, 179.000824)"><g><path d="M 51.640625 -0.703125 L 52.265625 -0.703125 L 52.265625 0 L 29.953125 0 L 29.953125 -0.703125 L 30.578125 -0.703125 C 31.597656 -0.703125 32.351562 -1.015625 32.84375 -1.640625 C 33.332031 -2.273438 33.578125 -2.867188 33.578125 -3.421875 C 33.578125 -3.984375 33.460938 -4.546875 33.234375 -5.109375 L 29.8125 -13.71875 L 13.421875 -13.71875 L 9.796875 -5.109375 C 9.554688 -4.503906 9.4375 -3.929688 9.4375 -3.390625 C 9.4375 -2.859375 9.679688 -2.273438 10.171875 -1.640625 C 10.660156 -1.015625 11.441406 -0.703125 12.515625 -0.703125 L 13.078125 -0.703125 L 13.078125 0 L -1.890625 0 L -1.890625 -0.703125 L -1.265625 -0.703125 C -0.191406 -0.703125 0.878906 -1.023438 1.953125 -1.671875 C 3.023438 -2.328125 3.910156 -3.3125 4.609375 -4.625 L 20.78125 -41.21875 C 22.96875 -45.84375 24.132812 -48.898438 24.28125 -50.390625 L 24.90625 -50.390625 L 45.6875 -4.765625 C 46.382812 -3.410156 47.269531 -2.394531 48.34375 -1.71875 C 49.425781 -1.039062 50.523438 -0.703125 51.640625 -0.703125 Z M 14.625 -16.65625 L 28.609375 -16.65625 L 21.828125 -33.875 Z M 14.625 -16.65625 "/></g></g></g><g fill="#ffffff" fill-opacity="1"><g transform="translate(302.997138, 179.000824)"><g><path d="M 57.171875 -48.296875 C 56.003906 -48.296875 55 -47.882812 54.15625 -47.0625 C 53.320312 -46.25 52.882812 -45.257812 52.84375 -44.09375 L 52.84375 -7.984375 C 52.84375 -4.859375 53.050781 -2.21875 53.46875 -0.0625 L 53.671875 0.984375 L 53.046875 0.984375 L 17.703125 -32.6875 L 17.703125 -4.90625 C 17.703125 -3.738281 18.117188 -2.742188 18.953125 -1.921875 C 19.796875 -1.109375 20.800781 -0.703125 21.96875 -0.703125 L 23.3125 -0.703125 L 23.3125 0 L 2.09375 0 L 2.09375 -0.703125 L 3.359375 -0.703125 C 4.566406 -0.703125 5.59375 -1.109375 6.4375 -1.921875 C 7.28125 -2.742188 7.703125 -3.757812 7.703125 -4.96875 L 7.703125 -41.296875 C 7.703125 -44.367188 7.488281 -46.929688 7.0625 -48.984375 L 6.921875 -50.03125 L 7.5625 -50.03125 L 42.90625 -16.375 L 42.90625 -44.015625 C 42.851562 -45.234375 42.40625 -46.25 41.5625 -47.0625 C 40.726562 -47.882812 39.726562 -48.296875 38.5625 -48.296875 L 37.296875 -48.296875 L 37.296875 -48.984375 L 58.5 -48.984375 L 58.5 -48.296875 Z M 57.171875 -48.296875 "/></g></g></g><g fill="#ffffff" fill-opacity="1"><g transform="translate(41.82937, 260.444952)"><g><path d="M 23.234375 -31.28125 C 22.390625 -33.050781 21.96875 -34.738281 21.96875 -36.34375 C 21.96875 -37.957031 22.175781 -39.453125 22.59375 -40.828125 C 23.019531 -42.210938 23.722656 -43.566406 24.703125 -44.890625 C 25.679688 -46.222656 27.054688 -47.332031 28.828125 -48.21875 C 31.253906 -49.476562 34.171875 -50.109375 37.578125 -50.109375 C 42.054688 -50.109375 46.300781 -48.960938 50.3125 -46.671875 C 55.59375 -43.691406 59.257812 -39.566406 61.3125 -34.296875 C 62.476562 -31.398438 63.0625 -28.296875 63.0625 -24.984375 C 63.0625 -17.191406 60.25 -10.914062 54.625 -6.15625 C 49 -1.394531 41.671875 0.984375 32.640625 0.984375 C 23.617188 0.984375 16.269531 -1.394531 10.59375 -6.15625 C 4.925781 -10.914062 2.09375 -17.171875 2.09375 -24.921875 C 2.09375 -30.703125 3.738281 -35.726562 7.03125 -40 C 10.320312 -44.269531 14.765625 -47.171875 20.359375 -48.703125 L 20.78125 -48.078125 C 18.40625 -46.066406 16.609375 -43.125 15.390625 -39.25 C 14.179688 -35.382812 13.578125 -31.210938 13.578125 -26.734375 C 13.578125 -19.171875 15.328125 -13.148438 18.828125 -8.671875 C 22.328125 -4.191406 26.910156 -1.953125 32.578125 -1.953125 C 38.242188 -1.953125 42.816406 -4.0625 46.296875 -8.28125 C 49.773438 -12.507812 51.515625 -18.097656 51.515625 -25.046875 C 51.515625 -29.253906 50.867188 -33.046875 49.578125 -36.421875 C 48.296875 -39.804688 46.441406 -42.421875 44.015625 -44.265625 C 41.585938 -46.109375 38.882812 -47.03125 35.90625 -47.03125 C 32.59375 -47.03125 29.910156 -46.164062 27.859375 -44.4375 C 24.960938 -41.96875 23.515625 -38.820312 23.515625 -35 C 23.515625 -33.78125 23.675781 -32.539062 24 -31.28125 Z M 23.234375 -31.28125 "/></g></g></g><g fill="#ffffff" fill-opacity="1"><g transform="translate(106.873375, 260.444952)"><g><path d="M 70.046875 -48.296875 L 69.421875 -48.296875 C 68.253906 -48.296875 67.070312 -47.941406 65.875 -47.234375 C 64.6875 -46.535156 63.835938 -45.535156 63.328125 -44.234375 L 51.578125 -6.515625 C 50.773438 -3.941406 50.375 -1.5625 50.375 0.625 C 50.375 0.863281 50.375 1.078125 50.375 1.265625 L 49.6875 1.265625 L 34.421875 -32.546875 L 23.375 -6.515625 C 22.289062 -3.804688 21.726562 -1.210938 21.6875 1.265625 L 20.984375 1.265625 L 4.265625 -44.234375 C 3.660156 -45.585938 2.796875 -46.601562 1.671875 -47.28125 C 0.554688 -47.957031 -0.582031 -48.296875 -1.75 -48.296875 L -2.3125 -48.296875 L -2.3125 -48.984375 L 19.03125 -48.984375 L 19.03125 -48.296875 L 18.390625 -48.296875 C 17.410156 -48.296875 16.675781 -47.976562 16.1875 -47.34375 C 15.695312 -46.71875 15.453125 -46.125 15.453125 -45.5625 C 15.453125 -45 15.546875 -44.460938 15.734375 -43.953125 L 24.34375 -19.59375 L 37.015625 -50.109375 L 37.640625 -50.03125 L 51.578125 -19.3125 L 58.5625 -43.953125 C 58.707031 -44.460938 58.78125 -45 58.78125 -45.5625 C 58.78125 -46.125 58.554688 -46.71875 58.109375 -47.34375 C 57.671875 -47.976562 56.9375 -48.296875 55.90625 -48.296875 L 55.28125 -48.296875 L 55.28125 -48.984375 L 70.046875 -48.984375 Z M 70.046875 -48.296875 "/></g></g></g><g fill="#ffffff" fill-opacity="1"><g transform="translate(174.784923, 260.444952)"><g><path d="M 57.171875 -48.296875 C 56.003906 -48.296875 55 -47.882812 54.15625 -47.0625 C 53.320312 -46.25 52.882812 -45.257812 52.84375 -44.09375 L 52.84375 -7.984375 C 52.84375 -4.859375 53.050781 -2.21875 53.46875 -0.0625 L 53.671875 0.984375 L 53.046875 0.984375 L 17.703125 -32.6875 L 17.703125 -4.90625 C 17.703125 -3.738281 18.117188 -2.742188 18.953125 -1.921875 C 19.796875 -1.109375 20.800781 -0.703125 21.96875 -0.703125 L 23.3125 -0.703125 L 23.3125 0 L 2.09375 0 L 2.09375 -0.703125 L 3.359375 -0.703125 C 4.566406 -0.703125 5.59375 -1.109375 6.4375 -1.921875 C 7.28125 -2.742188 7.703125 -3.757812 7.703125 -4.96875 L 7.703125 -41.296875 C 7.703125 -44.367188 7.488281 -46.929688 7.0625 -48.984375 L 6.921875 -50.03125 L 7.5625 -50.03125 L 42.90625 -16.375 L 42.90625 -44.015625 C 42.851562 -45.234375 42.40625 -46.25 41.5625 -47.0625 C 40.726562 -47.882812 39.726562 -48.296875 38.5625 -48.296875 L 37.296875 -48.296875 L 37.296875 -48.984375 L 58.5 -48.984375 L 58.5 -48.296875 Z M 57.171875 -48.296875 "/></g></g></g><g fill="#ffffff" fill-opacity="1"><g transform="translate(235.28284, 260.444952)"><g><path d="M 3.84375 -0.703125 C 5.0625 -0.703125 6.101562 -1.132812 6.96875 -2 C 7.832031 -2.863281 8.285156 -3.898438 8.328125 -5.109375 L 8.328125 -44.09375 C 8.191406 -45.726562 7.421875 -46.941406 6.015625 -47.734375 C 5.316406 -48.109375 4.59375 -48.296875 3.84375 -48.296875 L 2.9375 -48.296875 L 2.9375 -48.984375 L 29.75 -48.984375 C 31.1875 -48.984375 32.769531 -49.125 34.5 -49.40625 C 36.226562 -49.6875 37.441406 -49.96875 38.140625 -50.25 L 38.140625 -38 L 37.4375 -38 L 37.4375 -38.84375 C 37.4375 -40.9375 36.816406 -42.625 35.578125 -43.90625 C 34.347656 -45.195312 32.679688 -45.890625 30.578125 -45.984375 L 18.828125 -45.984375 L 18.828125 -25.609375 L 28.0625 -25.609375 C 29.789062 -25.660156 31.210938 -26.253906 32.328125 -27.390625 C 33.453125 -28.535156 34.015625 -29.953125 34.015625 -31.640625 L 34.015625 -32.265625 L 34.71875 -32.265625 L 34.71875 -16.09375 L 34.015625 -16.09375 L 34.015625 -16.65625 C 34.015625 -18.988281 33.082031 -20.710938 31.21875 -21.828125 C 30.28125 -22.347656 29.253906 -22.628906 28.140625 -22.671875 L 18.828125 -22.671875 L 18.828125 -3.015625 L 28 -3.015625 C 31.40625 -3.015625 34.257812 -3.992188 36.5625 -5.953125 C 38.875 -7.910156 40.585938 -10.6875 41.703125 -14.28125 L 42.40625 -14.28125 L 39.1875 0 L 2.9375 0 L 2.9375 -0.703125 Z M 3.84375 -0.703125 "/></g></g></g><g fill="#ffffff" fill-opacity="1"><g transform="translate(279.41483, 260.444952)"><g><path d="M 28.34375 -48.984375 C 36.601562 -48.984375 43.132812 -46.789062 47.9375 -42.40625 C 52.738281 -38.019531 55.140625 -32.046875 55.140625 -24.484375 C 55.140625 -16.929688 52.738281 -10.960938 47.9375 -6.578125 C 43.132812 -2.191406 36.601562 0 28.34375 0 L 2.9375 0 L 2.9375 -0.703125 L 3.84375 -0.703125 C 5.0625 -0.703125 6.101562 -1.132812 6.96875 -2 C 7.832031 -2.863281 8.285156 -3.898438 8.328125 -5.109375 L 8.328125 -44.296875 C 8.191406 -45.421875 7.703125 -46.367188 6.859375 -47.140625 C 6.015625 -47.910156 5.007812 -48.296875 3.84375 -48.296875 L 2.9375 -48.296875 L 2.9375 -48.984375 Z M 27.4375 -2.9375 C 30.789062 -2.9375 33.691406 -3.8125 36.140625 -5.5625 C 38.597656 -7.3125 40.476562 -9.804688 41.78125 -13.046875 C 43.082031 -16.296875 43.734375 -20.113281 43.734375 -24.5 C 43.734375 -31.125 42.273438 -36.367188 39.359375 -40.234375 C 36.453125 -44.109375 32.476562 -46.046875 27.4375 -46.046875 L 18.828125 -46.046875 L 18.828125 -2.9375 Z M 27.4375 -2.9375 "/></g></g></g></svg>