<svg xmlns="http://www.w3.org/2000/svg" xmlns:xlink="http://www.w3.org/1999/xlink" width="500" zoomAndPan="magnify" viewBox="0 0 375 374.999991" height="500" preserveAspectRatio="xMidYMid meet" version="1.0"><defs><clipPath id="14731430d7"><path d="M 100.558594 9 L 274.558594 9 L 274.558594 366 L 100.558594 366 Z M 100.558594 9 " clip-rule="nonzero"/></clipPath></defs><g clip-path="url(#14731430d7)"><path fill="#d9d9d9" d="M 251.953125 365.023438 L 123.402344 365.023438 C 110.875 365.023438 100.71875 354.863281 100.71875 342.335938 L 100.71875 32.292969 C 100.71875 19.765625 110.875 9.609375 123.402344 9.609375 L 251.957031 9.609375 C 264.484375 9.609375 274.644531 19.765625 274.644531 32.292969 L 274.644531 342.335938 C 274.640625 354.863281 264.484375 365.023438 251.953125 365.023438 Z M 187.679688 357.453125 C 196.03125 357.453125 202.800781 350.683594 202.800781 342.335938 C 202.800781 333.980469 196.03125 327.207031 187.679688 327.207031 C 179.328125 327.207031 172.554688 333.980469 172.554688 342.335938 C 172.554688 350.683594 179.328125 357.453125 187.679688 357.453125 Z M 157.429688 28.515625 C 155.34375 28.515625 153.652344 30.207031 153.652344 32.292969 C 153.652344 34.382812 155.34375 36.074219 157.429688 36.074219 C 159.515625 36.074219 161.210938 34.386719 161.210938 32.292969 C 161.210938 30.207031 159.519531 28.515625 157.429688 28.515625 Z M 187.679688 13.390625 C 185.589844 13.390625 183.902344 15.082031 183.902344 17.171875 C 183.902344 19.257812 185.589844 20.953125 187.679688 20.953125 C 189.761719 20.953125 191.457031 19.261719 191.457031 17.171875 C 191.457031 15.082031 189.761719 13.390625 187.679688 13.390625 Z M 202.800781 28.515625 L 172.554688 28.515625 C 170.464844 28.515625 168.773438 30.207031 168.773438 32.292969 C 168.773438 34.382812 170.464844 36.074219 172.554688 36.074219 L 202.800781 36.074219 C 204.890625 36.074219 206.582031 34.386719 206.582031 32.292969 C 206.585938 30.207031 204.894531 28.515625 202.800781 28.515625 Z M 263.296875 47.417969 L 112.0625 47.417969 L 112.0625 319.648438 L 263.300781 319.648438 L 263.300781 47.417969 Z M 187.679688 330.992188 C 193.941406 330.992188 199.023438 336.066406 199.023438 342.335938 C 199.023438 348.59375 193.941406 353.679688 187.679688 353.679688 C 181.414062 353.679688 176.335938 348.59375 176.335938 342.335938 C 176.335938 336.066406 181.414062 330.992188 187.679688 330.992188 Z M 187.679688 330.992188 " fill-opacity="1" fill-rule="evenodd"/></g></svg>