<svg xmlns="http://www.w3.org/2000/svg" xmlns:xlink="http://www.w3.org/1999/xlink" width="500" zoomAndPan="magnify" viewBox="0 0 375 374.999991" height="500" preserveAspectRatio="xMidYMid meet" version="1.0"><defs><clipPath id="a6b100b786"><path d="M 73.546875 7.339844 L 301.546875 7.339844 L 301.546875 367.339844 L 73.546875 367.339844 Z M 73.546875 7.339844 " clip-rule="nonzero"/></clipPath></defs><g clip-path="url(#a6b100b786)"><path fill="#d9d9d9" d="M 125.804688 7.492188 C 125.804688 7.5625 125.710938 7.621094 125.59375 7.621094 C 125.085938 7.621094 124.246094 8.023438 123.769531 8.5 C 123.027344 9.230469 122.492188 9.824219 122.492188 9.917969 C 122.492188 9.953125 122.304688 10.273438 122.066406 10.605469 C 121.773438 11.042969 121.664062 11.300781 121.722656 11.492188 C 121.761719 11.644531 121.738281 11.871094 121.664062 12 C 121.558594 12.199219 121.417969 12.238281 120.707031 12.238281 C 119.867188 12.238281 119.265625 12.4375 119.144531 12.746094 C 119.109375 12.839844 118.839844 12.96875 118.542969 13.054688 C 118.222656 13.125 117.949219 13.277344 117.878906 13.417969 C 117.808594 13.550781 117.703125 13.65625 117.644531 13.65625 C 117.464844 13.65625 116.671875 14.234375 116.496094 14.484375 C 116.402344 14.613281 116.257812 14.722656 116.175781 14.722656 C 115.867188 14.722656 114.992188 15.953125 114.496094 17.074219 C 114.222656 17.714844 113.796875 18.589844 113.574219 19.015625 C 113.335938 19.441406 113.148438 19.867188 113.148438 19.949219 C 113.148438 20.03125 112.980469 20.421875 112.78125 20.8125 C 112.34375 21.652344 112.238281 22.125 112.070312 23.949219 C 112.011719 24.695312 111.871094 25.546875 111.761719 25.839844 C 111.632812 26.230469 111.5625 27.15625 111.503906 29.273438 C 111.457031 30.871094 111.371094 32.242188 111.324219 32.335938 C 111.160156 32.585938 111.46875 33.742188 111.917969 34.609375 C 112.140625 35.046875 112.320312 35.496094 112.320312 35.613281 C 112.320312 35.742188 112.4375 36.074219 112.566406 36.371094 C 112.734375 36.714844 112.816406 37.128906 112.804688 37.542969 C 112.792969 37.945312 112.863281 38.296875 112.980469 38.464844 C 113.480469 39.222656 113.597656 41.742188 113.277344 44.582031 C 113.125 45.894531 113.066406 46.945312 113.113281 47.585938 C 113.230469 49.277344 112.839844 50.128906 111.492188 51.160156 C 111.277344 51.324219 110.933594 51.632812 110.734375 51.855469 C 110.214844 52.414062 109.800781 52.589844 108.710938 52.71875 C 108.085938 52.789062 107.695312 52.886719 107.5625 53.027344 C 107.386719 53.203125 106.664062 55.238281 106.285156 56.601562 C 106.203125 56.894531 106.039062 57.382812 105.917969 57.6875 C 105.789062 57.996094 105.695312 58.398438 105.695312 58.585938 C 105.695312 59.285156 105.539062 59.699219 105.054688 60.230469 C 103.824219 61.617188 102.003906 63.34375 100.632812 64.421875 C 99.804688 65.070312 98.820312 65.851562 98.429688 66.160156 C 98.050781 66.464844 97.566406 66.820312 97.355469 66.953125 C 97.152344 67.082031 96.726562 67.402344 96.40625 67.660156 C 93.6875 69.933594 92.515625 71.175781 91.378906 72.996094 C 89.949219 75.292969 87.699219 79.988281 86.847656 82.460938 C 86.683594 82.933594 86.46875 83.492188 86.375 83.703125 C 86.28125 83.929688 86.113281 84.425781 85.996094 84.816406 C 85.878906 85.207031 85.714844 85.738281 85.617188 86 C 85.523438 86.257812 85.371094 86.875 85.285156 87.359375 C 85.203125 87.84375 85.027344 88.613281 84.871094 89.074219 C 84.730469 89.523438 84.566406 90.304688 84.496094 90.789062 C 84.339844 92.007812 84.445312 94.8125 84.683594 95.261719 C 85.085938 96.042969 85.335938 97.082031 85.464844 98.480469 C 85.535156 99.296875 85.617188 100.042969 85.640625 100.136719 C 85.675781 100.230469 85.785156 100.871094 85.878906 101.554688 C 86.140625 103.328125 86.246094 103.863281 86.503906 104.867188 C 86.625 105.351562 86.800781 106.121094 86.882812 106.582031 C 86.96875 107.03125 87.109375 107.707031 87.203125 108.0625 C 87.296875 108.417969 87.453125 109.03125 87.535156 109.421875 C 87.9375 111.304688 88.183594 112.34375 88.246094 112.4375 C 88.292969 112.511719 88.363281 112.804688 88.421875 113.125 C 88.777344 114.984375 88.894531 115.5625 89.0625 116.070312 C 89.296875 116.839844 89.488281 117.714844 89.488281 118.035156 C 89.488281 118.175781 89.628906 118.875 89.792969 119.597656 C 90.292969 121.738281 90.316406 121.878906 90.433594 123.003906 C 90.492188 123.605469 90.621094 124.351562 90.730469 124.683594 C 90.824219 125.003906 90.90625 125.429688 90.90625 125.628906 C 90.90625 126.03125 91.167969 127.5 91.523438 129.0625 C 91.734375 130.007812 91.757812 130.574219 91.78125 134.265625 C 91.792969 138.609375 91.757812 139.542969 91.460938 141.1875 C 91.367188 141.742188 91.191406 142.9375 91.082031 143.847656 C 90.859375 145.835938 90.847656 145.90625 90.683594 146.816406 C 90.609375 147.207031 90.503906 148.402344 90.433594 149.480469 C 90.253906 152.601562 90.078125 154.636719 89.890625 156.035156 C 89.582031 158.269531 89.355469 160.140625 89.25 161.144531 C 89.203125 161.675781 89.121094 162.210938 89.085938 162.328125 C 89.027344 162.527344 88.613281 165.757812 88.421875 167.570312 C 88.363281 168.054688 88.269531 168.691406 88.210938 168.988281 C 88.136719 169.285156 88.019531 170.207031 87.949219 171.058594 C 87.878906 171.898438 87.769531 172.890625 87.710938 173.246094 C 87.640625 173.601562 87.558594 174.585938 87.523438 175.4375 C 87.476562 176.277344 87.394531 177.082031 87.320312 177.210938 C 87.191406 177.445312 86.980469 179.28125 86.765625 181.824219 C 86.695312 182.605469 86.601562 183.5625 86.527344 183.953125 C 86.304688 185.386719 86.175781 188.78125 86.328125 189.347656 C 86.421875 189.738281 88.078125 191.441406 88.742188 191.855469 C 89.285156 192.199219 89.285156 192.175781 89.546875 194.1875 C 89.652344 194.933594 89.804688 195.84375 89.902344 196.199219 C 90.089844 196.929688 90.386719 198.550781 90.492188 199.453125 C 90.527344 199.769531 90.632812 200.304688 90.71875 200.632812 C 91.226562 202.503906 91.261719 202.847656 91.238281 205.25 C 91.203125 207.566406 91.214844 207.625 91.484375 208.109375 C 91.652344 208.394531 91.972656 208.75 92.21875 208.902344 C 92.46875 209.070312 92.859375 209.367188 93.082031 209.578125 L 93.507812 209.945312 L 93.507812 211.339844 C 93.507812 212.109375 93.425781 213.164062 93.332031 213.671875 C 93.046875 215.148438 93.070312 215.375 93.921875 220.628906 C 94.113281 221.773438 94.207031 222.746094 94.171875 223.089844 C 94.113281 223.621094 94.382812 227.972656 94.515625 228.542969 C 94.550781 228.671875 94.65625 229.855469 94.75 231.144531 C 94.859375 232.433594 94.964844 233.546875 95 233.605469 C 95.09375 233.757812 95.238281 235.023438 95.460938 237.59375 C 95.554688 238.714844 95.722656 239.957031 95.816406 240.324219 C 95.910156 240.703125 95.992188 241.246094 95.992188 241.542969 C 95.992188 242.027344 95.957031 242.101562 95.578125 242.324219 C 95.34375 242.453125 95.023438 242.609375 94.871094 242.644531 C 94.703125 242.679688 94.574219 242.761719 94.574219 242.820312 C 94.574219 242.878906 94.503906 242.929688 94.410156 242.929688 C 94.324219 242.929688 94.066406 243.070312 93.828125 243.246094 C 93.605469 243.4375 93.25 243.671875 93.046875 243.78125 C 92.789062 243.921875 92.539062 244.289062 92.101562 245.164062 C 91.605469 246.144531 91.472656 246.546875 91.320312 247.53125 C 91.226562 248.179688 91.097656 248.832031 91.035156 248.984375 C 90.765625 249.695312 90.644531 250.203125 90.539062 251.171875 C 90.183594 254.15625 90.101562 254.617188 89.855469 255.089844 C 89.769531 255.242188 89.652344 255.679688 89.59375 256.070312 C 89.535156 256.460938 89.355469 257.054688 89.214844 257.394531 C 89.0625 257.738281 88.8125 258.414062 88.671875 258.898438 C 88.410156 259.738281 87.785156 261.585938 87.261719 263.039062 C 86.957031 263.878906 86.601562 265.121094 86.164062 266.8125 C 85.972656 267.546875 85.785156 268.210938 85.738281 268.28125 C 85.699219 268.339844 85.488281 269.074219 85.273438 269.890625 C 84.53125 272.742188 84.386719 273.273438 84.046875 274.277344 C 83.371094 276.265625 82.707031 278.878906 82.507812 280.3125 C 82.4375 280.796875 82.328125 281.386719 82.269531 281.613281 C 82.117188 282.167969 81.960938 284.179688 81.796875 287.46875 C 81.726562 288.960938 81.609375 290.828125 81.546875 291.609375 C 81.40625 293.253906 81.253906 295.347656 81.085938 297.523438 C 80.851562 300.835938 80.734375 302.164062 80.613281 302.671875 C 80.542969 302.96875 80.414062 304.160156 80.320312 305.332031 C 80.09375 307.910156 79.929688 309.59375 79.441406 314.085938 C 79.242188 315.96875 79.078125 317.742188 79.078125 318.027344 C 79.078125 318.3125 78.992188 318.914062 78.898438 319.386719 C 78.804688 319.859375 78.675781 320.796875 78.601562 321.480469 C 78.484375 322.699219 78.449219 323.03125 78.070312 325.679688 C 77.847656 327.289062 77.714844 328.414062 77.539062 329.941406 C 77.46875 330.589844 77.359375 331.382812 77.300781 331.714844 C 76.980469 333.3125 76.828125 334.636719 76.710938 336.800781 C 76.578125 339.261719 76.484375 339.664062 75.988281 339.78125 C 75.65625 339.878906 75.445312 340.292969 74.996094 341.722656 C 74.664062 342.765625 74.582031 343.238281 74.582031 343.996094 C 74.570312 344.964844 74.425781 346.148438 74.035156 348.394531 C 73.824219 349.625 73.8125 349.753906 73.917969 353.1875 C 73.964844 354.878906 73.941406 355.351562 73.789062 355.789062 C 73.679688 356.085938 73.597656 356.570312 73.597656 356.890625 C 73.585938 357.386719 73.644531 357.503906 74.058594 357.929688 C 74.472656 358.355469 76.164062 359.457031 76.414062 359.457031 C 76.472656 359.457031 76.605469 359.527344 76.699219 359.621094 C 76.804688 359.707031 77.207031 359.894531 77.597656 360.046875 C 79.761719 360.863281 80.4375 361.265625 81.621094 362.472656 C 83.050781 363.917969 84.472656 364.851562 85.914062 365.277344 C 87.59375 365.761719 87.9375 365.855469 89.546875 366.199219 C 91.722656 366.671875 92.054688 366.730469 94.277344 367.074219 C 97.78125 367.632812 98.136719 367.65625 101.375 367.65625 C 104.203125 367.65625 104.699219 367.632812 105.671875 367.40625 C 106.722656 367.171875 107.574219 366.757812 108.59375 366.011719 C 108.792969 365.867188 109.066406 365.714844 109.207031 365.667969 C 109.363281 365.632812 109.503906 365.476562 109.527344 365.335938 C 109.550781 365.195312 109.632812 364.804688 109.691406 364.484375 C 109.800781 363.976562 109.789062 363.859375 109.609375 363.65625 C 109.265625 363.265625 109.207031 363.125 109.113281 362.308594 C 108.960938 360.851562 108.78125 360.570312 106.78125 358.414062 C 105.777344 357.328125 104.746094 356.179688 104.511719 355.847656 C 104.273438 355.527344 103.660156 354.878906 103.140625 354.429688 C 101.660156 353.117188 101.316406 352.714844 100.832031 351.753906 C 100.570312 351.257812 100.371094 350.796875 100.371094 350.75 C 100.371094 350.691406 100.191406 350.371094 99.980469 350.050781 C 99.542969 349.378906 99.105469 348.632812 98.5 347.507812 C 98.277344 347.082031 98.027344 346.65625 97.957031 346.5625 C 97.554688 346.042969 97.269531 345.34375 97.355469 345.058594 C 97.449219 344.65625 99.554688 342.574219 99.957031 342.46875 C 100.15625 342.421875 100.253906 342.316406 100.253906 342.125 C 100.253906 341.734375 100.523438 341.558594 100.960938 341.652344 L 101.339844 341.734375 L 101.058594 341.25 C 100.785156 340.777344 100.785156 340.777344 101.007812 340.363281 C 101.351562 339.710938 101.246094 338.421875 100.75 337.488281 C 100.546875 337.085938 100.371094 336.683594 100.371094 336.601562 C 100.371094 336.519531 100.074219 335.867188 99.71875 335.167969 C 99 333.75 98.9375 333.371094 99.246094 332.09375 C 99.671875 330.28125 99.898438 329.148438 99.898438 328.734375 C 99.898438 327.480469 100.925781 322.203125 101.328125 321.457031 C 101.601562 320.9375 102.25 318.738281 102.617188 317.105469 C 102.761719 316.488281 102.9375 315.707031 103.03125 315.390625 C 103.246094 314.632812 103.554688 313.199219 103.683594 312.371094 C 103.742188 312.015625 103.871094 311.34375 103.980469 310.894531 C 104.074219 310.433594 104.238281 309.578125 104.332031 309 C 104.429688 308.410156 104.59375 307.558594 104.6875 307.109375 C 104.9375 305.925781 105.199219 304.550781 105.398438 303.320312 C 105.492188 302.730469 105.671875 301.75 105.8125 301.132812 C 105.941406 300.519531 106.132812 299.5 106.226562 298.886719 C 106.320312 298.269531 106.511719 297.207031 106.640625 296.519531 C 106.78125 295.832031 106.9375 294.804688 106.996094 294.222656 C 107.066406 293.644531 107.183594 292.945312 107.28125 292.6875 C 107.375 292.414062 107.503906 291.988281 107.5625 291.726562 C 107.777344 290.921875 108.78125 287.492188 108.914062 287.113281 C 108.984375 286.914062 109.183594 286.25 109.375 285.636719 C 109.5625 285.019531 109.765625 284.40625 109.835938 284.273438 C 109.894531 284.144531 110.046875 283.636719 110.191406 283.152344 C 110.507812 281.96875 110.792969 281.023438 110.910156 280.667969 C 110.957031 280.5 111.113281 279.96875 111.242188 279.484375 C 111.480469 278.5625 111.917969 277.011719 112.390625 275.402344 C 112.542969 274.882812 112.757812 274.054688 112.863281 273.570312 C 112.96875 273.082031 113.242188 272.125 113.457031 271.449219 C 113.679688 270.777344 113.855469 270.019531 113.855469 269.757812 C 113.855469 269.417969 113.941406 269.226562 114.164062 269.015625 C 114.757812 268.46875 114.921875 268.648438 114.921875 269.816406 C 114.921875 270.21875 115.027344 271.167969 115.148438 271.914062 C 115.621094 274.738281 115.738281 275.96875 115.867188 279.246094 C 115.941406 281.105469 116.082031 283.28125 116.175781 284.097656 C 116.28125 284.949219 116.402344 287.574219 116.460938 290.308594 C 116.578125 295.394531 116.742188 299.167969 116.933594 300.765625 C 116.992188 301.3125 117.074219 302.742188 117.121094 303.960938 C 117.183594 306.042969 117.417969 307.921875 117.808594 309.59375 C 117.902344 309.980469 118.09375 311.175781 118.234375 312.253906 C 118.472656 314.097656 118.613281 314.925781 119.003906 316.75 C 119.097656 317.175781 119.203125 317.753906 119.253906 318.050781 C 119.289062 318.347656 119.394531 318.714844 119.476562 318.890625 C 119.570312 319.054688 119.691406 319.695312 119.761719 320.308594 C 120.019531 322.523438 120.128906 323.207031 120.304688 323.730469 C 120.398438 324.023438 120.589844 324.875 120.71875 325.621094 C 120.992188 327.066406 121.335938 327.894531 122.125 329.003906 C 122.730469 329.84375 123.511719 330.710938 123.664062 330.710938 C 123.867188 330.710938 123.949219 331.265625 123.820312 331.75 C 123.746094 331.988281 123.605469 332.507812 123.5 332.898438 C 123.394531 333.289062 123.238281 333.796875 123.167969 334.023438 C 123.074219 334.28125 123.027344 335.300781 123.027344 336.859375 C 123.027344 338.976562 123.003906 339.320312 122.824219 339.582031 C 122.707031 339.734375 122.613281 339.925781 122.613281 340.007812 C 122.613281 340.078125 122.882812 340.527344 123.214844 340.988281 C 123.699219 341.6875 123.808594 341.914062 123.734375 342.171875 C 123.5 343.179688 123.332031 344.433594 123.273438 345.734375 C 123.109375 349.554688 123.0625 350.050781 122.871094 350.253906 C 122.683594 350.488281 122.648438 350.726562 122.539062 353.152344 C 122.445312 355.019531 122.445312 355.019531 123.226562 355.503906 C 124.171875 356.109375 128.941406 356.628906 133.683594 356.652344 L 136.65625 356.675781 L 137.210938 356.273438 C 137.660156 355.953125 137.835938 355.894531 138.132812 355.953125 C 138.523438 356.027344 139.304688 355.847656 139.730469 355.578125 C 139.953125 355.433594 140.097656 355.445312 140.710938 355.601562 C 141.113281 355.707031 141.648438 355.789062 141.894531 355.789062 C 142.296875 355.789062 144.179688 356.191406 146.058594 356.675781 C 148.34375 357.269531 152.789062 358.035156 155.261719 358.273438 C 158.917969 358.617188 161.179688 358.769531 161.425781 358.710938 C 161.546875 358.675781 162.457031 358.699219 163.449219 358.757812 C 165.746094 358.902344 168.597656 358.734375 170.996094 358.332031 C 172.003906 358.167969 172.9375 357.976562 173.066406 357.917969 C 173.28125 357.824219 173.589844 357.730469 175.136719 357.328125 C 175.433594 357.246094 175.882812 357.078125 176.15625 356.960938 C 176.429688 356.832031 176.6875 356.734375 176.746094 356.734375 C 176.804688 356.734375 177.054688 356.582031 177.28125 356.378906 C 177.621094 356.109375 177.71875 355.929688 177.789062 355.480469 C 177.859375 354.902344 177.671875 354.488281 177.304688 354.488281 C 177.101562 354.488281 176.914062 354.003906 176.914062 353.46875 C 176.914062 352.617188 176.261719 351.671875 175.199219 350.996094 C 174.394531 350.476562 172.121094 349.753906 170.925781 349.636719 C 170.382812 349.578125 169.660156 349.460938 169.316406 349.367188 C 168.3125 349.082031 167.210938 348.832031 166.382812 348.703125 C 164.847656 348.453125 161.6875 347.285156 160.433594 346.503906 C 158.019531 344.988281 157.039062 344.089844 156.386719 342.824219 C 156.128906 342.300781 155.785156 341.675781 155.605469 341.414062 C 155.441406 341.15625 155.097656 340.621094 154.847656 340.230469 C 154.589844 339.84375 154.257812 339.390625 154.105469 339.226562 C 153.75 338.859375 153.546875 338.480469 153.371094 337.808594 C 153.191406 337.15625 153.109375 337.039062 152.328125 336.351562 C 151.84375 335.914062 151.621094 335.796875 151.300781 335.796875 C 150.992188 335.796875 150.78125 335.691406 150.414062 335.347656 C 150.152344 335.085938 149.941406 334.800781 149.941406 334.707031 C 149.941406 334.613281 149.808594 334.421875 149.644531 334.28125 C 149.476562 334.140625 149.347656 333.960938 149.347656 333.890625 C 149.347656 333.820312 148.992188 333.324219 148.542969 332.792969 C 148.105469 332.269531 147.609375 331.644531 147.433594 331.417969 C 147.265625 331.195312 146.6875 330.519531 146.140625 329.929688 C 144.839844 328.519531 144.6875 328.34375 143.835938 327.160156 C 143.433594 326.605469 142.984375 326.023438 142.839844 325.882812 C 142.675781 325.691406 142.605469 325.480469 142.628906 325.230469 C 142.664062 324.875 142.699219 324.839844 143.433594 324.664062 C 145.078125 324.25 145.363281 323.964844 145.5625 322.59375 C 145.777344 321.054688 145.714844 320.226562 145.324219 319.386719 C 145.136719 318.984375 144.972656 318.59375 144.972656 318.535156 C 144.972656 318.488281 144.851562 318.261719 144.699219 318.039062 C 144.558594 317.8125 144.355469 317.445312 144.273438 317.222656 C 144.179688 316.996094 143.953125 316.5 143.777344 316.121094 C 143.585938 315.742188 143.363281 315.058594 143.265625 314.585938 C 143.160156 314.109375 143.007812 313.4375 142.902344 313.082031 C 142.414062 311.34375 142.402344 309.816406 142.867188 308.929688 C 143.101562 308.480469 143.550781 306.894531 143.789062 305.710938 C 144.09375 304.222656 144.15625 303.820312 144.261719 302.554688 C 144.320312 301.808594 144.402344 301.003906 144.4375 300.765625 C 144.484375 300.53125 144.449219 298.304688 144.378906 295.820312 C 144.273438 292.4375 144.273438 289.976562 144.367188 285.964844 C 144.4375 283.019531 144.558594 276.289062 144.628906 271.023438 C 144.6875 265.75 144.792969 260.269531 144.851562 258.839844 C 144.921875 257.410156 145.03125 254.332031 145.089844 251.988281 C 145.160156 249.660156 145.242188 247.695312 145.277344 247.636719 C 145.324219 247.578125 145.398438 246.394531 145.457031 245.023438 C 145.679688 239.226562 145.941406 233.9375 146.152344 231.273438 C 146.53125 226.390625 146.863281 222.910156 147.042969 221.8125 C 147.136719 221.21875 147.265625 220.261719 147.335938 219.679688 C 147.515625 218.144531 147.679688 216.960938 147.871094 216.015625 C 148.140625 214.582031 148.164062 214.40625 148.234375 212.289062 C 148.273438 211.152344 148.34375 209.875 148.402344 209.449219 C 148.460938 209.023438 148.519531 208.148438 148.519531 207.496094 C 148.53125 206.84375 148.578125 206.039062 148.648438 205.722656 C 148.710938 205.390625 148.804688 204.480469 148.863281 203.6875 C 148.96875 202.113281 149.015625 201.984375 149.714844 201.640625 C 149.953125 201.511719 150.496094 200.988281 150.933594 200.457031 C 151.371094 199.9375 151.773438 199.511719 151.84375 199.511719 C 152.058594 199.511719 152.105469 199.878906 151.960938 200.503906 C 151.867188 200.953125 151.714844 201.226562 151.359375 201.570312 C 151.097656 201.816406 150.886719 202.066406 150.886719 202.125 C 150.886719 202.171875 150.78125 202.242188 150.660156 202.289062 C 150.414062 202.363281 150.058594 203.128906 150.058594 203.570312 C 150.058594 204.371094 151.0625 204.289062 151.878906 203.425781 C 152.082031 203.226562 152.304688 203.058594 152.402344 203.058594 C 152.496094 203.058594 152.765625 202.90625 153.015625 202.703125 C 153.511719 202.3125 153.914062 202.253906 154.433594 202.527344 C 154.648438 202.632812 154.910156 202.679688 155.097656 202.632812 C 155.5 202.527344 156.671875 201.5 157.015625 200.953125 C 157.417969 200.292969 157.867188 199.296875 157.867188 199.0625 C 157.867188 198.941406 157.9375 198.753906 158.03125 198.625 C 158.113281 198.492188 158.234375 198.257812 158.28125 198.089844 C 158.328125 197.925781 158.503906 197.5 158.671875 197.144531 C 159.015625 196.375 159.132812 195.417969 158.941406 194.875 C 158.859375 194.660156 158.648438 193.761719 158.457031 192.886719 C 158.269531 192.011719 158.054688 191.074219 157.996094 190.816406 C 157.925781 190.554688 157.820312 189.929688 157.746094 189.40625 C 157.511719 187.785156 157.417969 187.621094 155.878906 185.929688 C 155.441406 185.457031 155.039062 184.9375 154.980469 184.769531 C 154.898438 184.582031 154.910156 184.082031 155.003906 183.328125 C 155.40625 180.214844 155.273438 177.398438 154.566406 173.542969 C 154.507812 173.210938 154.386719 172.503906 154.316406 171.945312 C 154.117188 170.46875 153.960938 169.589844 153.785156 168.988281 C 153.703125 168.691406 153.570312 168.007812 153.488281 167.449219 C 153.289062 166.007812 153.144531 165.214844 152.957031 164.609375 C 152.863281 164.316406 152.707031 163.546875 152.601562 162.894531 C 152.496094 162.246094 152.304688 161.285156 152.1875 160.765625 C 152.058594 160.246094 151.84375 158.992188 151.714844 157.984375 C 151.574219 156.980469 151.382812 155.941406 151.289062 155.679688 C 151.195312 155.40625 151.121094 155.027344 151.121094 154.816406 C 151.121094 154.507812 151.183594 154.425781 151.441406 154.367188 C 151.621094 154.320312 151.84375 154.34375 151.988281 154.4375 C 152.753906 154.910156 158.648438 157.109375 159.9375 157.394531 C 160.195312 157.441406 160.707031 157.582031 161.058594 157.691406 C 161.414062 157.796875 162.136719 157.984375 162.65625 158.105469 C 163.179688 158.210938 163.816406 158.363281 164.078125 158.4375 C 165.839844 158.898438 169.199219 159.523438 169.449219 159.429688 C 169.554688 159.394531 169.71875 159.253906 169.816406 159.132812 C 170.207031 158.613281 171.824219 155.359375 172.0625 154.613281 C 172.144531 154.355469 172.558594 153.480469 172.960938 152.675781 C 173.375 151.859375 173.71875 151.113281 173.71875 151.019531 C 173.71875 150.910156 173.800781 150.722656 173.894531 150.605469 C 174.0625 150.390625 174.121094 150.378906 174.6875 150.53125 C 175.550781 150.746094 175.765625 150.910156 176.097656 151.632812 C 176.25 151.964844 176.429688 152.308594 176.5 152.390625 C 176.699219 152.628906 177.964844 154.011719 178.261719 154.320312 C 178.757812 154.839844 179.753906 155.527344 180.320312 155.738281 C 181.195312 156.058594 182.25 156.210938 184.601562 156.328125 C 185.808594 156.390625 187.109375 156.496094 187.5 156.566406 C 189.015625 156.828125 189.429688 156.839844 189.925781 156.636719 C 190.433594 156.4375 191.6875 155.609375 192.707031 154.792969 C 193.039062 154.53125 193.746094 154.023438 194.304688 153.65625 C 194.859375 153.277344 195.414062 152.886719 195.546875 152.769531 C 195.675781 152.664062 195.984375 152.460938 196.230469 152.320312 C 196.46875 152.175781 196.871094 151.953125 197.121094 151.824219 C 197.355469 151.679688 198.183594 151.277344 198.964844 150.921875 C 199.828125 150.53125 200.941406 149.894531 201.863281 149.253906 C 203.507812 148.121094 204.679688 147.457031 205.082031 147.457031 C 205.222656 147.457031 205.566406 147.671875 205.851562 147.929688 C 206.453125 148.488281 206.75 148.511719 208.617188 148.226562 C 209.234375 148.132812 210.074219 148.046875 210.488281 148.046875 C 210.984375 148.046875 211.433594 147.964844 211.824219 147.800781 C 212.144531 147.660156 212.425781 147.5625 212.441406 147.585938 C 212.464844 147.609375 212.699219 147.964844 212.972656 148.378906 C 213.242188 148.78125 213.609375 149.457031 213.777344 149.859375 C 213.941406 150.261719 214.132812 150.652344 214.179688 150.710938 C 214.238281 150.78125 214.390625 151.125 214.535156 151.480469 C 214.675781 151.835938 214.851562 152.214844 214.949219 152.308594 C 215.03125 152.402344 215.136719 152.613281 215.183594 152.78125 C 215.230469 152.945312 215.457031 153.46875 215.679688 153.929688 C 216.179688 154.957031 216.214844 154.96875 217.738281 154.378906 C 218.332031 154.152344 218.875 153.964844 218.945312 153.964844 C 219.027344 153.964844 219.359375 153.84375 219.703125 153.703125 C 220.222656 153.492188 220.378906 153.46875 220.636719 153.597656 C 220.886719 153.703125 220.933594 153.785156 220.863281 154 C 220.828125 154.140625 220.734375 154.710938 220.671875 155.265625 C 220.199219 159.238281 220.070312 160.304688 219.929688 161.238281 C 219.832031 161.820312 219.679688 163.15625 219.574219 164.195312 C 219.464844 165.238281 219.324219 166.421875 219.253906 166.824219 C 219.195312 167.226562 219.027344 168.585938 218.898438 169.839844 C 218.601562 172.679688 218.496094 173.566406 218.273438 175.140625 C 218.164062 175.828125 218.011719 177.019531 217.90625 177.800781 C 217.796875 178.582031 217.667969 179.480469 217.609375 179.8125 C 217.550781 180.132812 217.410156 181.148438 217.3125 182.0625 C 217.078125 184.226562 216.921875 185.242188 216.722656 185.964844 C 216.449219 186.96875 216.332031 187.46875 216.191406 188.332031 C 216.117188 188.78125 216 189.371094 215.929688 189.632812 C 215.644531 190.769531 215.46875 192.304688 215.503906 193.265625 C 215.539062 194.164062 215.574219 194.328125 215.835938 194.601562 C 216.105469 194.898438 216.179688 194.910156 217.019531 194.859375 C 218.1875 194.789062 219.171875 194.519531 220.519531 193.890625 C 221.289062 193.535156 221.855469 193.359375 222.402344 193.300781 C 223.289062 193.203125 223.796875 192.910156 224.222656 192.269531 C 224.519531 191.808594 225.605469 191.253906 225.949219 191.394531 C 226.175781 191.476562 226.1875 192.246094 225.960938 192.777344 C 225.867188 193.003906 225.738281 193.714844 225.664062 194.363281 C 225.59375 195.015625 225.453125 195.914062 225.347656 196.375 C 224.863281 198.445312 224.875 206.882812 225.359375 213.824219 C 225.464844 215.222656 225.558594 217.03125 225.59375 217.847656 C 225.617188 218.664062 225.691406 219.480469 225.761719 219.65625 C 225.832031 219.847656 225.867188 220.105469 225.832031 220.25 C 225.773438 220.484375 225.855469 222.519531 226.128906 227.488281 C 226.1875 228.589844 226.234375 230.882812 226.246094 232.589844 C 226.257812 234.28125 226.316406 236.230469 226.363281 236.90625 C 226.421875 237.582031 226.492188 239.886719 226.542969 242.039062 C 226.589844 244.183594 226.660156 248.285156 226.71875 251.148438 C 226.90625 260.96875 227.308594 268.339844 227.734375 270.207031 C 227.832031 270.597656 227.902344 271.15625 227.902344 271.4375 C 227.902344 272.136719 228.101562 273.203125 228.445312 274.289062 C 228.601562 274.785156 228.730469 275.296875 228.742188 275.414062 C 228.742188 275.53125 228.894531 276.089844 229.097656 276.644531 C 229.285156 277.199219 229.546875 278.050781 229.6875 278.539062 C 229.816406 279.023438 230.03125 279.660156 230.136719 279.957031 C 230.433594 280.703125 231.074219 282.902344 231.320312 284.039062 C 231.488281 284.773438 231.511719 285.1875 231.4375 285.871094 C 231.390625 286.355469 231.308594 287.234375 231.273438 287.824219 C 231.226562 288.402344 231.15625 289.125 231.097656 289.421875 C 230.90625 290.308594 230.492188 294.140625 230.445312 295.453125 C 230.410156 296.140625 230.28125 297.488281 230.148438 298.472656 C 229.914062 300.257812 229.734375 303.34375 229.546875 309.296875 C 229.5 311.082031 229.417969 313.023438 229.367188 313.589844 C 229.285156 314.632812 229.464844 317.386719 229.6875 318.664062 C 229.746094 319.03125 229.914062 319.648438 230.042969 320.027344 C 230.445312 321.1875 230.515625 321.492188 230.621094 322.78125 C 230.71875 323.894531 230.777344 324.121094 231.203125 324.972656 C 231.78125 326.105469 232.007812 326.390625 232.433594 326.496094 C 232.609375 326.53125 232.824219 326.722656 232.929688 326.921875 L 233.105469 327.265625 L 232.433594 327.714844 C 230.976562 328.675781 227.902344 332.367188 227.902344 333.144531 C 227.902344 333.394531 227.097656 334.007812 226.578125 334.152344 C 225.890625 334.351562 225.796875 334.460938 226.164062 334.601562 C 226.589844 334.765625 226.566406 334.910156 226.019531 335.441406 C 225.761719 335.691406 225.5 336.09375 225.417969 336.316406 C 225.347656 336.554688 225.238281 336.742188 225.179688 336.742188 C 224.898438 336.742188 223.289062 338.800781 222.921875 339.628906 C 222.589844 340.375 221.925781 340.917969 220.566406 341.570312 C 218.769531 342.433594 217.550781 342.789062 216.011719 342.894531 C 215.300781 342.953125 214.390625 343.09375 214 343.226562 C 213.253906 343.460938 212.167969 343.722656 210.867188 343.957031 C 208.085938 344.46875 207.519531 344.621094 206.394531 345.214844 C 205.472656 345.6875 205.152344 346.027344 205.023438 346.644531 C 204.972656 346.855469 204.796875 347.222656 204.644531 347.460938 C 204.429688 347.757812 204.359375 348.015625 204.382812 348.3125 C 204.417969 348.667969 204.488281 348.761719 204.949219 349 C 206.996094 350.039062 209.648438 350.914062 211.988281 351.292969 C 212.320312 351.339844 212.664062 351.425781 212.757812 351.460938 C 212.855469 351.496094 213.550781 351.578125 214.296875 351.648438 C 215.042969 351.71875 216.238281 351.863281 216.945312 351.957031 C 219.796875 352.371094 226.554688 351.824219 229.792969 350.925781 C 230.683594 350.691406 232.089844 350.027344 232.714844 349.566406 C 232.917969 349.414062 233.128906 349.28125 233.179688 349.28125 C 233.226562 349.28125 233.53125 349.105469 233.863281 348.890625 C 235.046875 348.113281 237.402344 347.152344 238.125 347.152344 C 238.300781 347.152344 238.632812 347.257812 238.867188 347.390625 C 239.117188 347.519531 239.378906 347.625 239.460938 347.625 C 239.589844 347.625 240.144531 347.898438 240.914062 348.347656 C 241.082031 348.441406 241.386719 348.65625 241.601562 348.832031 C 242.394531 349.496094 242.582031 349.542969 244.273438 349.484375 C 249.835938 349.269531 253.015625 348.75 253.585938 347.980469 C 253.796875 347.710938 253.796875 347.542969 253.679688 345.496094 C 253.621094 344.289062 253.5625 343.035156 253.5625 342.714844 C 253.574219 342.386719 253.574219 341.722656 253.574219 341.238281 C 253.574219 340.621094 253.632812 340.269531 253.773438 340.066406 C 253.917969 339.84375 253.964844 339.523438 253.941406 338.765625 C 253.929688 338.222656 253.894531 337.710938 253.84375 337.652344 C 253.808594 337.582031 253.785156 336.269531 253.785156 334.71875 C 253.808594 332.152344 253.785156 331.84375 253.574219 331.300781 C 253.445312 330.96875 253.335938 330.589844 253.335938 330.460938 C 253.335938 330.34375 253.277344 330.128906 253.195312 330 C 253.015625 329.714844 253.183594 329.183594 253.515625 329.015625 C 253.644531 328.945312 253.832031 328.851562 253.929688 328.792969 C 254.023438 328.746094 254.390625 328.566406 254.722656 328.414062 C 255.371094 328.105469 255.75 327.644531 255.890625 326.984375 C 255.929688 326.792969 256.035156 326.542969 256.128906 326.4375 C 256.304688 326.25 256.625 324.710938 256.730469 323.609375 C 256.769531 323.257812 256.730469 322.640625 256.660156 322.25 C 256.589844 321.859375 256.472656 319.824219 256.414062 317.730469 C 256.34375 315.636719 256.234375 313.320312 256.175781 312.585938 C 256.105469 311.851562 256 310.125 255.941406 308.765625 C 255.878906 307.390625 255.773438 305.722656 255.691406 305.039062 C 255.453125 302.917969 255.773438 293.882812 256.175781 291.375 C 256.234375 290.984375 256.34375 289.304688 256.414062 287.648438 C 256.472656 285.992188 256.554688 284.359375 256.589844 284.039062 C 256.707031 282.960938 256.660156 274.125 256.53125 272.859375 C 256.378906 271.378906 256.378906 266.445312 256.53125 263.867188 C 256.648438 261.84375 256.78125 260.804688 257.015625 259.90625 C 257.21875 259.171875 257.207031 255.078125 257.003906 253.871094 C 256.921875 253.410156 256.816406 252.535156 256.769531 251.917969 C 256.566406 249.46875 256.390625 248.15625 256.164062 247.339844 C 256.046875 246.867188 255.941406 246.214844 255.941406 245.898438 C 255.941406 245.566406 255.878906 245.023438 255.808594 244.679688 C 255.644531 243.910156 255.855469 241.992188 256.164062 241.449219 C 256.28125 241.246094 256.414062 240.941406 256.460938 240.761719 C 256.507812 240.539062 256.601562 240.445312 256.730469 240.46875 C 257.097656 240.539062 257.359375 241.082031 257.476562 241.980469 C 257.570312 242.761719 257.738281 243.578125 258.164062 245.414062 C 258.234375 245.707031 258.351562 246.3125 258.4375 246.773438 C 258.507812 247.222656 258.695312 248.097656 258.851562 248.714844 C 259.003906 249.316406 259.132812 249.941406 259.132812 250.085938 C 259.132812 250.382812 259.5 252.109375 259.785156 253.21875 C 259.878906 253.574219 260.019531 254.191406 260.09375 254.582031 C 260.164062 254.972656 260.328125 255.691406 260.457031 256.179688 C 260.589844 256.664062 260.742188 257.335938 260.800781 257.65625 C 260.859375 257.988281 261.039062 258.839844 261.203125 259.550781 C 261.371094 260.269531 261.558594 261.148438 261.628906 261.5 C 261.699219 261.855469 261.84375 262.449219 261.9375 262.804688 C 262.042969 263.15625 262.164062 263.667969 262.210938 263.925781 C 262.257812 264.1875 262.398438 264.933594 262.527344 265.582031 C 262.671875 266.234375 262.835938 267.167969 262.917969 267.652344 C 262.992188 268.136719 263.121094 268.777344 263.214844 269.074219 C 263.296875 269.367188 263.40625 269.867188 263.453125 270.195312 C 263.5 270.515625 263.664062 271.449219 263.832031 272.265625 C 263.996094 273.082031 264.171875 274.007812 264.222656 274.335938 C 264.304688 274.917969 264.386719 275.320312 264.753906 276.941406 C 264.859375 277.390625 265.011719 278.277344 265.109375 278.890625 C 265.214844 279.507812 265.402344 280.570312 265.535156 281.257812 C 265.664062 281.945312 265.816406 282.84375 265.878906 283.269531 C 265.925781 283.695312 266.113281 284.832031 266.292969 285.8125 C 266.65625 287.871094 266.644531 287.800781 266.964844 289.894531 C 267.09375 290.769531 267.25 291.726562 267.296875 292.023438 C 267.355469 292.320312 267.460938 292.980469 267.535156 293.503906 C 267.769531 295.160156 268.148438 297.277344 268.253906 297.558594 C 268.3125 297.703125 268.398438 298.128906 268.433594 298.507812 C 268.515625 299.347656 268.917969 301.628906 269.09375 302.257812 C 269.164062 302.515625 269.261719 303.132812 269.320312 303.617188 C 269.367188 304.101562 269.496094 304.871094 269.59375 305.332031 C 269.699219 305.78125 269.78125 306.328125 269.78125 306.527344 C 269.78125 306.730469 269.863281 307.132812 269.957031 307.402344 C 270.054688 307.675781 270.136719 308.136719 270.136719 308.433594 C 270.136719 308.714844 270.183594 309.179688 270.242188 309.449219 C 270.300781 309.722656 270.421875 310.265625 270.492188 310.65625 C 270.5625 311.046875 270.703125 311.675781 270.796875 312.039062 C 270.894531 312.417969 270.964844 312.953125 270.964844 313.222656 C 270.976562 313.660156 271.1875 314.785156 271.792969 317.398438 C 271.957031 318.132812 272.359375 319.445312 272.515625 319.765625 C 272.585938 319.894531 272.679688 320.488281 272.726562 321.066406 C 272.785156 321.660156 272.90625 322.6875 273.011719 323.375 C 273.390625 326 273.472656 326.816406 273.566406 328.992188 C 273.625 330.222656 273.734375 332.035156 273.816406 333.015625 C 273.886719 333.984375 273.957031 335.359375 273.96875 336.042969 C 273.96875 336.824219 274.039062 337.359375 274.121094 337.464844 C 274.207031 337.558594 274.3125 337.855469 274.382812 338.101562 C 274.441406 338.363281 274.609375 338.941406 274.726562 339.402344 C 274.855469 339.855469 275.210938 341.109375 275.519531 342.183594 C 275.828125 343.296875 276.050781 344.3125 276.039062 344.5625 C 276.015625 344.800781 276.0625 345.082031 276.144531 345.175781 C 276.359375 345.4375 276.265625 345.792969 275.839844 346.21875 C 275.636719 346.417969 275.351562 346.832031 275.222656 347.128906 C 275.082031 347.425781 274.667969 348.0625 274.300781 348.5625 C 273.933594 349.058594 273.542969 349.601562 273.449219 349.769531 C 273.355469 349.945312 273.175781 350.21875 273.046875 350.394531 C 272.929688 350.570312 272.691406 351.070312 272.539062 351.496094 C 272.277344 352.203125 272.101562 352.453125 270.773438 353.800781 C 269.96875 354.628906 269.308594 355.363281 269.308594 355.421875 C 269.308594 355.480469 269.105469 355.777344 268.859375 356.0625 C 268.609375 356.34375 268.066406 357.066406 267.652344 357.648438 C 267.167969 358.332031 266.707031 358.828125 266.386719 359.042969 C 266.101562 359.21875 265.878906 359.410156 265.878906 359.457031 C 265.878906 359.515625 265.78125 359.585938 265.664062 359.621094 C 265.464844 359.691406 264.8125 360.839844 264.8125 361.125 C 264.8125 361.421875 264.421875 362.035156 264.171875 362.152344 C 263.972656 362.238281 263.878906 362.402344 263.84375 362.699219 C 263.796875 363.101562 263.832031 363.136719 264.28125 363.359375 C 264.550781 363.492188 264.847656 363.597656 264.941406 363.597656 C 265.039062 363.597656 265.390625 363.738281 265.746094 363.894531 C 266.183594 364.09375 266.917969 364.273438 268.054688 364.4375 C 268.976562 364.566406 270.125 364.746094 270.609375 364.828125 C 273.757812 365.417969 276.441406 365.539062 280.546875 365.289062 C 283.457031 365.125 284.804688 364.933594 286.699219 364.4375 C 289.480469 363.703125 290.746094 362.734375 291.148438 361.042969 C 291.253906 360.582031 291.417969 360.25 291.691406 359.964844 L 292.082031 359.5625 L 292.992188 359.632812 C 293.890625 359.71875 293.925781 359.707031 294.695312 359.292969 C 295.121094 359.054688 295.546875 358.792969 295.628906 358.710938 C 295.726562 358.628906 295.996094 358.4375 296.257812 358.285156 C 296.519531 358.132812 296.847656 357.789062 297.003906 357.527344 C 297.25 357.089844 297.261719 356.925781 297.226562 355.625 C 297.203125 354.832031 297.191406 353.980469 297.203125 353.71875 C 297.214844 353.457031 297.214844 352.9375 297.226562 352.558594 C 297.226562 352.179688 297.308594 351.71875 297.40625 351.53125 C 297.664062 351.023438 297.628906 349.53125 297.332031 348.511719 C 297.191406 348.050781 297.0625 347.414062 297.027344 347.09375 C 296.980469 346.539062 297.003906 346.46875 297.394531 346.066406 C 297.628906 345.828125 297.820312 345.554688 297.820312 345.460938 C 297.820312 345.367188 297.902344 345.226562 297.996094 345.140625 C 298.089844 345.058594 298.175781 344.882812 298.175781 344.75 C 298.175781 344.621094 298.257812 344.421875 298.363281 344.300781 C 298.46875 344.183594 298.636719 343.722656 298.71875 343.285156 C 299.015625 341.863281 299.097656 341.546875 299.238281 341.179688 C 299.605469 340.257812 299.757812 338.457031 299.757812 335.203125 C 299.757812 331.925781 299.605469 329.832031 299.191406 327.574219 C 299.085938 327.054688 299.015625 326.285156 299.003906 325.859375 C 299.003906 325.433594 298.953125 324.898438 298.894531 324.675781 C 298.824219 324.449219 298.71875 323.386719 298.660156 322.308594 C 298.589844 321.234375 298.46875 320.167969 298.410156 319.945312 C 298.339844 319.71875 298.234375 318.761719 298.160156 317.8125 C 298.101562 316.867188 297.996094 315.71875 297.9375 315.269531 C 297.878906 314.808594 297.832031 313.957031 297.820312 313.378906 C 297.820312 312.785156 297.734375 311.757812 297.628906 311.070312 C 297.535156 310.382812 297.40625 309.238281 297.347656 308.527344 C 297.273438 307.804688 297.179688 306.929688 297.121094 306.574219 C 297.0625 306.21875 297.003906 305.605469 297.003906 305.214844 C 296.992188 304.824219 296.882812 303.890625 296.765625 303.144531 C 296.445312 301.3125 296.28125 300.007812 296.164062 298.589844 C 296.105469 297.9375 295.996094 297.132812 295.925781 296.816406 C 295.714844 295.820312 295.453125 293.609375 295.347656 291.667969 C 295.277344 290.664062 295.167969 289.5625 295.097656 289.242188 C 295.027344 288.914062 294.886719 287.71875 294.789062 286.582031 C 294.695312 285.445312 294.566406 283.871094 294.496094 283.09375 C 294.433594 282.3125 294.28125 281.246094 294.164062 280.726562 C 294.035156 280.207031 293.878906 279.402344 293.796875 278.953125 C 293.726562 278.488281 293.558594 277.671875 293.417969 277.117188 C 292.945312 275.140625 292.730469 273.863281 292.730469 272.988281 C 292.730469 272.632812 292.625 271.757812 292.496094 271.035156 C 292.011719 268.316406 291.902344 267.582031 291.902344 267.167969 C 291.902344 266.933594 291.820312 266.554688 291.726562 266.316406 C 291.632812 266.089844 291.5 265.617188 291.441406 265.277344 C 291.171875 263.726562 290.839844 262.234375 290.460938 260.851562 C 290.390625 260.589844 290.28125 260.105469 290.234375 259.785156 C 290.1875 259.453125 290.011719 258.746094 289.832031 258.1875 C 289.667969 257.632812 289.480469 256.921875 289.417969 256.617188 C 289.347656 256.296875 289.230469 255.871094 289.136719 255.667969 C 288.910156 255.171875 288.625 254.214844 288.53125 253.632812 C 288.484375 253.375 288.402344 253.101562 288.34375 253.03125 C 288.285156 252.960938 288.128906 252.617188 288.011719 252.261719 C 287.894531 251.90625 287.667969 251.328125 287.527344 250.972656 C 287.089844 249.847656 286.816406 248.949219 286.816406 248.582031 C 286.816406 248.394531 286.746094 248.097656 286.652344 247.921875 C 286.414062 247.457031 285.988281 246.230469 285.988281 245.992188 C 285.988281 245.886719 285.917969 245.730469 285.824219 245.660156 C 285.632812 245.507812 285.160156 244.097656 285.160156 243.707031 C 285.160156 243.566406 285.066406 243.292969 284.949219 243.105469 C 284.839844 242.902344 284.640625 242.441406 284.511719 242.0625 C 284.308594 241.425781 284.296875 241.261719 284.425781 239.933594 C 284.511719 239.140625 284.59375 237.367188 284.628906 236.007812 C 284.664062 234.636719 284.78125 232.222656 284.875 230.625 C 284.972656 229.027344 285.089844 226.707031 285.160156 225.464844 C 285.277344 222.933594 285.445312 220.78125 285.703125 218.476562 C 285.941406 216.261719 286.128906 211.199219 286.035156 209.425781 L 285.953125 207.921875 L 286.332031 207.210938 C 286.757812 206.394531 286.78125 206.101562 286.496094 205.402344 C 286.214844 204.691406 286.226562 203.570312 286.519531 203.023438 C 286.734375 202.632812 286.734375 202.550781 286.582031 202.207031 C 286.496094 201.996094 286.402344 201.367188 286.367188 200.824219 C 286.332031 200.007812 286.367188 199.722656 286.566406 199.285156 C 286.699219 198.976562 286.839844 198.492188 286.875 198.1875 C 286.933594 197.722656 287.019531 197.59375 287.335938 197.394531 C 287.550781 197.261719 287.824219 197.050781 287.941406 196.90625 C 288.222656 196.589844 288.519531 196.613281 288.875 196.96875 C 289.039062 197.132812 289.277344 197.261719 289.394531 197.261719 C 289.621094 197.261719 289.632812 197.132812 289.714844 194.921875 C 289.820312 192.246094 289.703125 185.835938 289.539062 185.136719 C 289.480469 184.875 289.417969 184.179688 289.417969 183.585938 C 289.417969 182.640625 289.183594 180.371094 289.003906 179.613281 C 288.96875 179.457031 288.886719 178.675781 288.828125 177.859375 C 288.449219 173.378906 288.367188 172.550781 288.25 172.089844 C 288.164062 171.816406 288.058594 170.964844 287.988281 170.195312 C 287.929688 169.4375 287.824219 168.324219 287.761719 167.746094 C 287.703125 167.15625 287.597656 165 287.550781 162.941406 C 287.492188 160.882812 287.410156 159.132812 287.359375 159.0625 C 287.3125 158.992188 287.230469 158.496094 287.171875 157.960938 C 287.125 157.417969 286.980469 156.449219 286.863281 155.796875 C 286.746094 155.148438 286.675781 154.269531 286.6875 153.84375 C 286.722656 153.015625 286.722656 152.53125 286.710938 149.289062 C 286.6875 147.246094 286.664062 147.019531 286.226562 145.351562 C 286.128906 144.972656 286.296875 144.5 286.699219 143.96875 C 286.746094 143.894531 286.816406 143.683594 286.851562 143.492188 C 286.875 143.292969 286.957031 142.972656 287.03125 142.785156 C 287.410156 141.695312 287.5625 140.867188 287.632812 139.425781 C 287.726562 137.839844 287.847656 137.332031 288.296875 136.808594 C 288.664062 136.382812 289.3125 134.230469 289.417969 133.082031 C 289.527344 131.960938 289.785156 130.894531 290.058594 130.492188 C 290.164062 130.328125 290.246094 130.101562 290.246094 129.984375 C 290.246094 129.867188 290.425781 129.390625 290.648438 128.941406 C 291.207031 127.820312 291.902344 126.101562 291.902344 125.878906 C 291.902344 125.703125 292.140625 125.003906 292.4375 124.328125 C 292.53125 124.128906 292.730469 123.546875 292.898438 123.039062 C 293.074219 122.519531 293.253906 122.046875 293.3125 121.976562 C 293.359375 121.902344 293.546875 121.441406 293.714844 120.957031 C 293.878906 120.472656 294.234375 119.515625 294.507812 118.828125 C 295.3125 116.804688 295.324219 116.769531 295.335938 116.542969 C 295.335938 116.425781 295.523438 115.917969 295.761719 115.421875 C 295.996094 114.921875 296.257812 114.34375 296.339844 114.15625 C 296.824219 113.042969 297.15625 112.453125 297.5 112.039062 C 297.722656 111.789062 297.972656 111.386719 298.054688 111.148438 C 298.136719 110.914062 298.328125 110.570312 298.480469 110.394531 C 298.789062 110.039062 299.003906 109.375 299.003906 108.832031 C 299.003906 108.628906 299.085938 108.347656 299.191406 108.203125 C 299.511719 107.742188 300.066406 105.8125 300.246094 104.511719 C 300.351562 103.828125 300.480469 102.890625 300.539062 102.441406 C 300.609375 101.980469 300.71875 101.082031 300.777344 100.429688 C 300.835938 99.78125 300.941406 98.871094 301.011719 98.421875 C 301.132812 97.652344 301.402344 94.269531 301.378906 93.867188 C 301.378906 93.769531 301.320312 92.625 301.273438 91.320312 C 301.167969 88.980469 300.929688 87.417969 300.46875 86.070312 C 300.171875 85.171875 299.390625 83.832031 298.613281 82.828125 C 297.558594 81.46875 293.65625 77.574219 291.832031 76.0625 C 291.523438 75.800781 291.160156 75.457031 291.027344 75.316406 C 290.78125 75.03125 289.632812 74.109375 289.066406 73.730469 C 288.898438 73.625 288.507812 73.28125 288.175781 72.972656 C 287.160156 72.027344 285.574219 70.960938 284.058594 70.230469 C 282.273438 69.351562 281.871094 69.046875 281.777344 68.429688 C 281.730469 68.171875 281.601562 67.875 281.480469 67.769531 C 281.351562 67.660156 281.257812 67.519531 281.257812 67.460938 C 281.257812 67.414062 281.03125 67.035156 280.746094 66.621094 C 280.464844 66.21875 280.15625 65.722656 280.050781 65.53125 C 279.433594 64.324219 279.199219 63.851562 279.128906 63.699219 C 278.714844 62.824219 278.25 62.042969 278.132812 62.042969 C 278.050781 62.042969 277.886719 61.9375 277.753906 61.792969 C 277.578125 61.605469 277.433594 61.558594 277.09375 61.605469 C 276.796875 61.640625 276.546875 61.59375 276.289062 61.4375 C 275.921875 61.203125 275.910156 61.203125 275.96875 60.410156 C 276.027344 59.425781 276.21875 58.257812 276.511719 57.015625 C 276.644531 56.492188 276.773438 55.714844 276.820312 55.273438 C 276.855469 54.847656 276.972656 54.257812 277.058594 53.972656 C 277.351562 53.0625 277.910156 51.644531 278.144531 51.242188 C 278.273438 51.027344 278.417969 50.695312 278.464844 50.507812 C 278.511719 50.304688 278.703125 49.832031 278.878906 49.441406 C 279.054688 49.050781 279.316406 48.414062 279.445312 48.023438 C 279.589844 47.632812 279.859375 46.933594 280.0625 46.460938 C 280.5 45.421875 281.03125 43.148438 281.269531 41.339844 C 281.339844 40.855469 281.445312 40.273438 281.503906 40.0625 C 281.636719 39.660156 281.386719 37.480469 281.113281 36.605469 C 281.042969 36.382812 280.949219 35.695312 280.902344 35.070312 C 280.820312 33.96875 280.722656 33.578125 280.0625 31.699219 C 279.871094 31.175781 279.683594 30.585938 279.648438 30.394531 C 279.601562 30.195312 279.515625 29.980469 279.457031 29.898438 C 279.398438 29.828125 279.304688 29.425781 279.234375 29.023438 C 279.164062 28.609375 279.042969 28.183594 278.972656 28.089844 C 278.773438 27.839844 278.417969 27.046875 278.417969 26.847656 C 278.417969 26.753906 278.261719 26.597656 278.074219 26.503906 C 277.847656 26.386719 277.71875 26.195312 277.660156 25.949219 C 277.589844 25.546875 276.785156 24.585938 276.324219 24.328125 C 276.074219 24.183594 276.050781 24.113281 276.109375 23.675781 L 276.191406 23.179688 L 275.316406 22.765625 C 274.84375 22.539062 274.3125 22.199219 274.148438 22.007812 C 273.886719 21.722656 273.746094 21.652344 273.414062 21.675781 C 272.941406 21.710938 272.761719 21.546875 272.988281 21.273438 C 273.246094 20.96875 272.929688 20.554688 272.195312 20.222656 C 271.828125 20.054688 271.414062 19.925781 271.273438 19.925781 C 270.929688 19.914062 270.574219 19.703125 270.207031 19.25 C 269.898438 18.886719 269.875 18.886719 268.917969 18.898438 C 268.019531 18.921875 267.898438 18.898438 267.570312 18.613281 C 267.121094 18.234375 266.148438 17.972656 265.59375 18.082031 C 265.355469 18.128906 265.039062 18.082031 264.765625 17.972656 C 264.136719 17.714844 262.789062 17.726562 261.890625 18.007812 C 261.3125 18.199219 261.097656 18.210938 260.882812 18.105469 C 260.457031 17.890625 260.070312 18.007812 259.925781 18.398438 L 259.796875 18.742188 L 259.488281 18.460938 L 259.191406 18.164062 L 258.554688 18.472656 C 258.09375 18.695312 257.878906 18.875 257.761719 19.15625 C 257.667969 19.382812 257.464844 19.59375 257.265625 19.679688 C 257.015625 19.785156 256.886719 19.9375 256.839844 20.199219 L 256.757812 20.578125 L 256.328125 20.007812 L 256.140625 20.28125 C 255.890625 20.636719 255.585938 20.519531 255.585938 20.042969 C 255.585938 19.570312 255.464844 19.59375 255.039062 20.164062 C 254.851562 20.421875 254.519531 20.824219 254.320312 21.039062 C 253.976562 21.394531 253.871094 21.441406 253.382812 21.429688 C 252.886719 21.40625 252.804688 21.441406 252.460938 21.855469 C 252.25 22.113281 251.988281 22.292969 251.835938 22.292969 C 251.679688 22.292969 251.550781 22.386719 251.503906 22.527344 C 251.46875 22.660156 251.324219 22.765625 251.195312 22.765625 C 251.054688 22.765625 250.972656 22.847656 250.972656 22.992188 C 250.972656 23.308594 250.792969 23.390625 250.605469 23.167969 C 250.484375 23.027344 250.332031 23.003906 249.882812 23.0625 C 249.515625 23.121094 249.242188 23.097656 249.136719 23.003906 C 249.007812 22.894531 248.996094 22.917969 249.042969 23.121094 C 249.125 23.453125 248.890625 23.617188 248.460938 23.523438 C 248.144531 23.464844 248.132812 23.476562 248.132812 23.972656 C 248.132812 24.257812 248.191406 25.15625 248.261719 25.996094 L 248.402344 27.507812 L 248.035156 28.230469 L 247.660156 28.953125 L 247.964844 29.238281 C 248.214844 29.460938 248.25 29.578125 248.191406 29.898438 C 247.976562 30.917969 247.8125 31.222656 247.054688 32.0625 C 246.109375 33.105469 245.175781 34.902344 244.5 36.996094 C 244.261719 37.730469 243.96875 38.558594 243.835938 38.855469 C 243.71875 39.152344 243.457031 39.800781 243.28125 40.320312 C 242.960938 41.246094 242.960938 41.257812 243.152344 41.964844 C 243.28125 42.449219 243.457031 42.804688 243.71875 43.042969 C 244.15625 43.480469 244.417969 44.558594 244.308594 45.503906 C 244.238281 46.070312 243.269531 48.1875 242.867188 48.675781 C 242.582031 49.003906 241.683594 50.625 241.519531 51.097656 C 241.304688 51.703125 241.304688 52.980469 241.519531 53.242188 C 241.8125 53.59375 242.5 53.960938 243.164062 54.117188 C 244.371094 54.386719 244.382812 54.398438 244.296875 55.050781 C 244.238281 55.488281 244.261719 55.652344 244.40625 55.773438 C 244.511719 55.867188 244.675781 56.089844 244.785156 56.28125 C 244.878906 56.46875 245.175781 56.835938 245.433594 57.074219 C 245.800781 57.429688 245.894531 57.59375 245.859375 57.855469 C 245.835938 58.054688 245.71875 58.246094 245.578125 58.316406 C 244.878906 58.660156 244.84375 58.917969 245.328125 60.03125 C 245.46875 60.375 245.550781 60.835938 245.550781 61.332031 C 245.550781 61.996094 245.492188 62.207031 245.125 62.882812 C 244.582031 63.886719 244.488281 64.515625 244.785156 65.296875 C 244.984375 65.828125 245.078125 65.921875 245.824219 66.335938 C 246.640625 66.773438 247.007812 66.867188 248.902344 67.046875 C 249.503906 67.105469 252.082031 67.792969 252.628906 68.039062 C 253.941406 68.644531 254.484375 69.402344 254.601562 70.785156 C 254.648438 71.398438 254.625 71.671875 254.472656 71.957031 C 254.285156 72.324219 254.234375 72.347656 253.714844 72.324219 C 253.277344 72.300781 253.042969 72.371094 252.554688 72.664062 C 252.226562 72.878906 251.894531 73.042969 251.824219 73.042969 C 251.761719 73.042969 251.503906 73.152344 251.242188 73.269531 C 250.757812 73.519531 248.617188 74.523438 247.539062 75.019531 C 245.859375 75.789062 242.902344 77.328125 242.558594 77.621094 C 242.300781 77.847656 240.855469 78.523438 240.085938 78.792969 C 239.730469 78.914062 239.222656 79.183594 238.953125 79.398438 C 238.679688 79.609375 238.40625 79.789062 238.335938 79.789062 C 238.265625 79.789062 238.050781 79.929688 237.875 80.105469 C 237.683594 80.296875 237.164062 80.78125 236.726562 81.195312 C 235.910156 81.964844 234.644531 83.480469 234.644531 83.667969 C 234.644531 83.726562 234.515625 83.894531 234.347656 84.046875 C 234.183594 84.199219 234.054688 84.402344 234.054688 84.484375 C 234.054688 84.566406 234.007812 84.734375 233.945312 84.851562 C 233.472656 85.808594 233.449219 85.890625 233.117188 87.59375 C 233.046875 87.949219 232.859375 88.507812 232.714844 88.835938 C 232.5625 89.15625 232.339844 89.796875 232.230469 90.257812 C 232.113281 90.707031 231.9375 91.25 231.851562 91.453125 C 231.757812 91.664062 231.582031 92.304688 231.4375 92.871094 C 231.261719 93.640625 231.132812 93.984375 230.929688 94.125 C 230.789062 94.246094 230.351562 94.730469 229.972656 95.226562 C 229.34375 96.042969 229.296875 96.148438 229.429688 96.421875 C 229.710938 97.058594 229.59375 97.449219 228.90625 98.183594 C 228.539062 98.585938 228.1875 99.117188 228.066406 99.425781 C 227.914062 99.839844 227.746094 100.054688 227.371094 100.289062 C 226.683594 100.726562 226.542969 100.917969 226.304688 101.734375 C 226.199219 102.125 225.984375 102.550781 225.855469 102.679688 C 225.5 103.023438 225.214844 103.367188 224.449219 104.40625 C 224.082031 104.902344 223.535156 105.589844 223.230469 105.945312 C 222.425781 106.878906 222.222656 107.128906 221.65625 107.859375 C 221.371094 108.214844 220.933594 108.664062 220.671875 108.84375 C 220.425781 109.019531 220.210938 109.210938 220.210938 109.257812 C 220.210938 109.316406 220.128906 109.363281 220.023438 109.363281 C 219.867188 109.363281 218.957031 110.097656 218 110.972656 C 217.773438 111.195312 216.179688 113.066406 215.65625 113.753906 C 215.398438 114.082031 215.089844 114.390625 214.984375 114.4375 C 214.863281 114.472656 214.25 115.007812 213.597656 115.609375 C 212.949219 116.203125 212.367188 116.699219 212.296875 116.699219 C 212.238281 116.699219 211.859375 116.886719 211.46875 117.113281 C 211.089844 117.335938 210.664062 117.527344 210.546875 117.539062 C 209.503906 117.5625 207.753906 118.449219 207.601562 119.039062 C 207.566406 119.183594 207.433594 119.371094 207.328125 119.453125 C 207.082031 119.632812 206.335938 120.851562 206.074219 121.511719 C 205.96875 121.785156 205.777344 122.046875 205.648438 122.082031 C 205.53125 122.117188 205.316406 122.304688 205.1875 122.507812 C 205.046875 122.695312 204.867188 122.851562 204.785156 122.851562 C 204.609375 122.851562 203.648438 123.796875 203.09375 124.519531 C 202.65625 125.097656 202.265625 125.347656 201.460938 125.546875 C 200.089844 125.890625 198.917969 126.554688 198.480469 127.226562 C 198.101562 127.820312 197.238281 128.765625 197.082031 128.765625 C 197.011719 128.765625 196.5625 129.085938 196.078125 129.488281 C 194.765625 130.539062 193.949219 131.179688 193.6875 131.320312 C 193.570312 131.390625 193.34375 131.582031 193.214844 131.722656 C 193.003906 131.949219 192.882812 131.984375 192.386719 131.925781 C 192.066406 131.875 191.628906 131.792969 191.429688 131.734375 C 188.246094 130.71875 186.851562 130.304688 186.601562 130.304688 C 186.4375 130.304688 185.964844 130.515625 185.550781 130.789062 C 184.769531 131.296875 183.691406 131.839844 183.492188 131.839844 C 183.195312 131.839844 182.023438 132.480469 181.644531 132.835938 C 180.984375 133.449219 179.609375 134.410156 178.746094 134.859375 C 177.515625 135.507812 176.972656 135.921875 176.570312 136.5625 C 176.355469 136.878906 176.109375 137.175781 176.015625 137.210938 C 175.71875 137.332031 174.570312 137.292969 174.488281 137.175781 C 174.359375 136.964844 173.175781 136.714844 171.53125 136.574219 C 170.621094 136.503906 169.507812 136.359375 169.070312 136.265625 C 168.621094 136.171875 168.003906 136.101562 167.683594 136.101562 C 167.367188 136.101562 166.855469 136.050781 166.539062 135.992188 C 166.230469 135.921875 165.519531 135.816406 164.976562 135.746094 C 164.007812 135.613281 163.449219 135.449219 162.597656 135.046875 C 162.253906 134.894531 161.757812 134.859375 159.878906 134.847656 C 158.066406 134.847656 157.476562 134.796875 157.15625 134.65625 C 156.175781 134.21875 155.738281 134.089844 154.730469 133.910156 C 154.152344 133.804688 153.347656 133.554688 152.957031 133.367188 C 152.046875 132.929688 151.277344 132.789062 149.84375 132.789062 C 148.804688 132.777344 148.636719 132.753906 148.105469 132.445312 C 147.585938 132.136719 147.503906 132.042969 147.421875 131.582031 C 147.265625 130.753906 147.492188 128.222656 147.820312 126.992188 C 148.011719 126.304688 148.519531 122.71875 148.519531 122.023438 C 148.519531 121.667969 148.601562 121.027344 148.699219 120.601562 C 148.910156 119.621094 148.910156 117.847656 148.699219 116.640625 C 148.601562 116.117188 148.519531 115.503906 148.519531 115.253906 C 148.519531 114.792969 147.941406 111.269531 147.847656 111.101562 C 147.808594 111.042969 147.738281 110.675781 147.691406 110.273438 C 147.515625 108.949219 147.21875 107.304688 147.042969 106.703125 C 146.957031 106.371094 146.769531 105.449219 146.628906 104.632812 C 146.484375 103.816406 146.296875 102.941406 146.214844 102.679688 C 146.117188 102.417969 145.988281 101.863281 145.917969 101.4375 C 145.703125 100.230469 143.742188 92.695312 143.550781 92.316406 C 143.480469 92.199219 143.433594 92.007812 143.433594 91.878906 C 143.433594 91.617188 143.03125 90.316406 142.769531 89.761719 C 142.675781 89.558594 142.605469 89.347656 142.605469 89.289062 C 142.605469 89.109375 142.144531 87.679688 142.011719 87.441406 C 141.941406 87.324219 141.753906 86.792969 141.585938 86.257812 C 141.410156 85.726562 141.222656 85.183594 141.148438 85.050781 C 141.078125 84.921875 140.902344 84.472656 140.757812 84.046875 C 140.511719 83.3125 139.660156 81.171875 139.410156 80.675781 C 139.351562 80.542969 139.1875 80.15625 139.054688 79.8125 C 138.925781 79.46875 138.652344 78.839844 138.464844 78.425781 C 138.261719 78.011719 138.109375 77.632812 138.109375 77.585938 C 138.109375 77.539062 137.957031 77.183594 137.765625 76.78125 C 137.578125 76.390625 137.199219 75.574219 136.9375 74.996094 C 136.667969 74.40625 136.382812 73.824219 136.3125 73.695312 C 136.167969 73.457031 135.601562 72.441406 134.972656 71.328125 C 134.796875 70.996094 134.558594 70.644531 134.464844 70.523438 C 134.359375 70.40625 134.171875 70.132812 134.027344 69.910156 C 133.601562 69.199219 131.921875 67.210938 131.699219 67.152344 C 131.578125 67.128906 131.484375 67.058594 131.484375 67 C 131.484375 66.953125 131.320312 66.714844 131.117188 66.492188 C 130.871094 66.195312 130.761719 65.945312 130.738281 65.613281 C 130.726562 65.199219 130.796875 65.058594 131.355469 64.46875 C 131.699219 64.089844 132.113281 63.59375 132.289062 63.355469 C 132.464844 63.117188 132.714844 62.824219 132.84375 62.691406 C 132.976562 62.5625 133.164062 62.351562 133.257812 62.21875 C 133.355469 62.078125 133.695312 61.828125 134.003906 61.640625 C 134.464844 61.378906 134.679688 61.320312 135.070312 61.367188 C 135.339844 61.402344 136.335938 61.523438 137.28125 61.628906 C 138.226562 61.734375 139.199219 61.898438 139.445312 61.984375 C 139.683594 62.078125 140.0625 62.160156 140.285156 62.160156 C 140.5 62.160156 140.820312 62.265625 140.984375 62.398438 C 141.148438 62.527344 141.339844 62.632812 141.410156 62.632812 C 141.480469 62.632812 141.847656 62.726562 142.214844 62.859375 C 143.871094 63.390625 143.835938 63.390625 144.507812 63.167969 C 144.863281 63.046875 145.207031 62.917969 145.265625 62.871094 C 145.335938 62.8125 145.585938 62.738281 145.847656 62.691406 C 146.203125 62.621094 146.355469 62.503906 146.554688 62.171875 C 147.183594 61.121094 147.359375 59.757812 147.054688 58.457031 C 146.804688 57.394531 146.804688 55.714844 147.054688 55.109375 C 147.195312 54.765625 147.230469 54.457031 147.160156 53.84375 C 147.078125 52.96875 147.253906 51.441406 147.515625 50.863281 C 147.609375 50.660156 147.703125 50.414062 147.738281 50.304688 C 147.773438 50.1875 147.976562 50.070312 148.25 50.023438 C 149.148438 49.855469 149.714844 49.3125 150.011719 48.332031 C 150.210938 47.632812 150.1875 47.644531 151.5625 47.929688 L 152.519531 48.128906 L 153.074219 47.832031 C 153.949219 47.382812 154.117188 47.054688 154.03125 45.8125 C 153.996094 45.242188 153.890625 44.582031 153.796875 44.332031 C 153.703125 44.082031 153.59375 43.777344 153.546875 43.644531 C 153.488281 43.515625 153.324219 43.066406 153.167969 42.640625 C 153.003906 42.214844 152.765625 41.386719 152.636719 40.808594 C 152.507812 40.214844 152.328125 39.46875 152.234375 39.136719 C 152.023438 38.371094 152.023438 38.097656 152.246094 37.910156 C 152.339844 37.824219 152.425781 37.613281 152.425781 37.421875 C 152.425781 37.234375 152.496094 36.878906 152.589844 36.640625 C 152.683594 36.394531 152.789062 35.625 152.828125 34.925781 C 152.898438 33.71875 152.886719 33.613281 152.589844 32.988281 C 152.390625 32.550781 152.304688 32.230469 152.351562 32.015625 C 152.519531 31.257812 152.542969 28.324219 152.375 27.425781 C 152.292969 26.90625 152.246094 26.304688 152.269531 26.066406 C 152.304688 25.816406 152.269531 25.59375 152.199219 25.558594 C 152.011719 25.4375 152.035156 24.8125 152.234375 24.695312 C 152.472656 24.550781 152.660156 24.125 152.660156 23.734375 C 152.660156 23.34375 152.375 22.457031 152.164062 22.199219 C 151.960938 21.960938 151.597656 20.882812 151.597656 20.542969 C 151.597656 20.304688 151.230469 19.417969 150.648438 18.269531 C 150.601562 18.175781 150.449219 18.082031 150.304688 18.058594 C 150.164062 18.035156 150 17.902344 149.953125 17.75 C 149.890625 17.609375 149.761719 17.417969 149.65625 17.335938 C 149.550781 17.253906 149.382812 16.910156 149.289062 16.589844 C 149.195312 16.246094 148.898438 15.75 148.566406 15.371094 C 148.035156 14.734375 148 14.722656 147.394531 14.722656 C 146.875 14.722656 146.710938 14.660156 146.378906 14.367188 C 146.152344 14.175781 145.679688 13.832031 145.3125 13.597656 C 144.769531 13.265625 144.582031 13.207031 144.214844 13.265625 C 143.71875 13.347656 143.183594 13.136719 142.191406 12.472656 C 142 12.34375 141.707031 12.199219 141.539062 12.152344 C 141.375 12.117188 140.9375 11.90625 140.558594 11.691406 C 140.179688 11.46875 139.777344 11.289062 139.660156 11.289062 C 139.554688 11.289062 139.410156 11.242188 139.351562 11.183594 C 139.125 10.96875 138.273438 10.542969 137.519531 10.261719 C 137.105469 10.09375 136.617188 9.90625 136.453125 9.8125 C 135.257812 9.195312 134.511719 8.914062 133.792969 8.816406 C 133.34375 8.746094 132.773438 8.640625 132.550781 8.570312 C 132.324219 8.5 131.175781 8.414062 130.003906 8.378906 C 128.835938 8.355469 127.792969 8.320312 127.699219 8.308594 C 127.285156 8.273438 127.011719 8.34375 126.753906 8.570312 C 126.597656 8.699219 126.363281 8.804688 126.207031 8.804688 C 126.042969 8.804688 125.828125 8.949219 125.675781 9.160156 C 125.523438 9.363281 125.191406 9.585938 124.882812 9.691406 C 124.585938 9.789062 124.222656 9.976562 124.078125 10.117188 C 123.710938 10.460938 123.25 10.390625 123.296875 10 C 123.34375 9.742188 123.652344 9.207031 123.984375 8.839844 C 124.066406 8.769531 124.28125 8.664062 124.457031 8.617188 C 124.941406 8.5 126.277344 7.707031 126.230469 7.5625 C 126.183594 7.398438 125.804688 7.339844 125.804688 7.492188 Z M 208.359375 136.027344 C 208.382812 136.550781 208.347656 137.011719 208.300781 137.058594 C 208.238281 137.117188 207.777344 136.941406 207.257812 136.679688 C 206.738281 136.417969 205.957031 136.101562 205.507812 135.957031 C 205.011719 135.816406 204.738281 135.675781 204.808594 135.601562 C 204.867188 135.542969 205.28125 135.449219 205.730469 135.390625 C 206.179688 135.332031 206.738281 135.238281 206.960938 135.175781 C 207.1875 135.105469 207.589844 135.058594 207.847656 135.070312 L 208.324219 135.09375 Z M 208.359375 136.027344 " fill-opacity="1" fill-rule="nonzero"/></g><path fill="#d9d9d9" d="M 101.433594 342.019531 C 101.433594 342.113281 101.496094 342.160156 101.554688 342.125 C 101.625 342.089844 101.671875 342.007812 101.671875 341.9375 C 101.671875 341.875 101.625 341.828125 101.554688 341.828125 C 101.496094 341.828125 101.433594 341.914062 101.433594 342.019531 Z M 101.433594 342.019531 " fill-opacity="1" fill-rule="nonzero"/></svg>