<svg xmlns="http://www.w3.org/2000/svg" xmlns:xlink="http://www.w3.org/1999/xlink" width="500" zoomAndPan="magnify" viewBox="0 0 375 374.999991" height="500" preserveAspectRatio="xMidYMid meet" version="1.0"><defs><clipPath id="70374a2cce"><path d="M 37.5 268 L 86 268 L 86 363 L 37.5 363 Z M 37.5 268 " clip-rule="nonzero"/></clipPath><clipPath id="e2345d2582"><path d="M 76 6.503906 L 337.5 6.503906 L 337.5 368.753906 L 76 368.753906 Z M 76 6.503906 " clip-rule="nonzero"/></clipPath></defs><path fill="#d9d9d9" d="M 243.71875 234.804688 L 243.757812 234.507812 L 243.824219 233.917969 C 243.847656 233.722656 243.875 233.523438 243.894531 233.328125 L 243.933594 232.738281 L 243.96875 232.144531 C 243.980469 231.945312 244 231.75 244 231.554688 L 244.011719 230.378906 C 244.011719 230.277344 244.015625 230.179688 244.011719 230.085938 L 244.003906 229.789062 L 243.980469 229.203125 C 243.964844 228.816406 243.960938 228.425781 243.914062 228.042969 L 243.8125 226.882812 C 243.796875 226.6875 243.769531 226.5 243.742188 226.308594 L 243.664062 225.738281 C 243.574219 224.96875 243.417969 224.222656 243.28125 223.472656 L 243.226562 223.191406 L 243.164062 222.914062 L 243.039062 222.355469 C 242.953125 221.988281 242.871094 221.613281 242.777344 221.25 L 242.476562 220.160156 L 242.328125 219.617188 C 242.273438 219.433594 242.214844 219.257812 242.15625 219.078125 C 241.929688 218.367188 241.714844 217.648438 241.449219 216.957031 L 241.070312 215.90625 C 240.941406 215.558594 240.796875 215.21875 240.664062 214.871094 C 239.558594 212.128906 238.269531 209.503906 236.867188 206.972656 L 236.335938 206.019531 L 236.207031 205.785156 L 236.066406 205.554688 L 235.789062 205.089844 L 235.238281 204.160156 L 234.960938 203.695312 L 234.675781 203.238281 C 234.292969 202.632812 233.914062 202.023438 233.527344 201.421875 C 233.132812 200.828125 232.738281 200.234375 232.339844 199.636719 C 230.734375 197.285156 229.0625 194.992188 227.328125 192.769531 C 226.898438 192.210938 226.453125 191.664062 226.015625 191.113281 L 225.363281 190.289062 L 224.691406 189.476562 C 224.242188 188.9375 223.792969 188.398438 223.347656 187.859375 C 222.890625 187.328125 222.4375 186.796875 221.980469 186.269531 L 221.296875 185.476562 L 220.605469 184.691406 C 220.140625 184.171875 219.675781 183.652344 219.214844 183.132812 C 218.75 182.613281 218.277344 182.109375 217.808594 181.59375 L 217.101562 180.828125 L 216.75 180.445312 L 216.394531 180.066406 C 214.238281 177.773438 212.042969 175.53125 209.820312 173.339844 C 208.921875 175.175781 208.007812 177.019531 207.078125 178.878906 C 207.683594 179.503906 208.289062 180.136719 208.890625 180.773438 L 210.0625 182.015625 L 210.453125 182.4375 C 210.964844 182.996094 211.484375 183.558594 212 184.117188 L 212.382812 184.539062 L 212.765625 184.964844 L 213.527344 185.816406 C 214.03125 186.382812 214.550781 186.949219 215.042969 187.53125 C 219.050781 192.128906 222.890625 196.90625 226.324219 201.953125 C 228.042969 204.472656 229.660156 207.058594 231.121094 209.710938 C 232.578125 212.367188 233.882812 215.09375 234.945312 217.882812 C 235.015625 218.058594 235.074219 218.230469 235.136719 218.40625 L 235.324219 218.933594 L 235.511719 219.457031 L 235.601562 219.722656 L 235.683594 219.984375 C 235.902344 220.695312 236.136719 221.398438 236.3125 222.109375 L 236.457031 222.640625 C 236.507812 222.820312 236.554688 222.996094 236.59375 223.175781 L 236.832031 224.246094 L 236.890625 224.511719 L 236.941406 224.78125 L 237.035156 225.316406 L 237.132812 225.855469 L 237.171875 226.121094 L 237.207031 226.390625 L 237.347656 227.464844 L 237.4375 228.539062 L 237.460938 228.804688 C 237.464844 228.894531 237.464844 228.980469 237.46875 229.070312 L 237.488281 229.605469 L 237.503906 230.140625 C 237.507812 230.316406 237.5 230.496094 237.5 230.671875 L 237.492188 231.203125 L 237.484375 231.46875 C 237.484375 231.554688 237.472656 231.640625 237.46875 231.730469 L 237.398438 232.78125 L 237.265625 233.824219 C 237.25 234 237.210938 234.167969 237.183594 234.339844 L 237.089844 234.855469 C 236.558594 237.589844 235.523438 240.203125 233.972656 242.554688 C 233.199219 243.734375 232.3125 244.851562 231.335938 245.910156 C 231.089844 246.171875 230.851562 246.441406 230.585938 246.691406 L 230.199219 247.074219 C 230.066406 247.199219 229.941406 247.332031 229.800781 247.453125 L 228.988281 248.1875 L 228.140625 248.894531 C 226.992188 249.824219 225.773438 250.695312 224.511719 251.515625 L 223.550781 252.117188 C 223.226562 252.316406 222.894531 252.5 222.566406 252.695312 C 222.242188 252.890625 221.90625 253.070312 221.570312 253.253906 C 221.234375 253.4375 220.902344 253.625 220.558594 253.792969 C 219.207031 254.511719 217.800781 255.160156 216.375 255.78125 C 214.953125 256.402344 213.496094 256.964844 212.023438 257.507812 C 209.460938 258.433594 206.847656 259.25 204.207031 259.976562 C 201.5625 260.699219 198.890625 261.335938 196.203125 261.902344 C 190.828125 263.035156 185.386719 263.882812 179.941406 264.550781 C 171.480469 265.574219 163 266.160156 154.558594 266.457031 C 152.96875 268.546875 151.375 270.597656 149.773438 272.605469 C 150.503906 272.597656 151.234375 272.589844 151.96875 272.582031 C 155.085938 272.539062 158.21875 272.453125 161.355469 272.320312 C 164.496094 272.191406 167.648438 272.011719 170.804688 271.777344 C 173.960938 271.546875 177.125 271.261719 180.296875 270.902344 C 183.46875 270.550781 186.648438 270.136719 189.828125 269.628906 C 193.007812 269.125 196.191406 268.550781 199.367188 267.855469 L 200.558594 267.59375 L 201.75 267.316406 L 202.347656 267.175781 L 202.9375 267.03125 L 204.128906 266.738281 L 205.320312 266.425781 L 205.914062 266.269531 L 206.507812 266.105469 L 207.691406 265.777344 L 208.875 265.425781 L 209.46875 265.25 L 210.058594 265.066406 L 211.238281 264.695312 L 212.417969 264.300781 C 212.613281 264.234375 212.8125 264.171875 213.007812 264.105469 L 213.59375 263.894531 C 215.160156 263.351562 216.71875 262.75 218.265625 262.105469 C 221.355469 260.8125 224.40625 259.3125 227.332031 257.5 C 227.699219 257.269531 228.066406 257.046875 228.425781 256.808594 L 229.503906 256.085938 C 230.214844 255.582031 230.921875 255.078125 231.609375 254.53125 C 232.988281 253.453125 234.320312 252.28125 235.566406 251 C 236.8125 249.714844 237.972656 248.320312 239.007812 246.816406 C 240.042969 245.3125 240.949219 243.699219 241.6875 242.003906 C 241.839844 241.632812 242.003906 241.265625 242.148438 240.890625 L 242.550781 239.757812 C 242.582031 239.660156 242.621094 239.566406 242.648438 239.472656 L 242.734375 239.1875 L 243.070312 238.03125 L 243.210938 237.449219 L 243.34375 236.863281 C 243.390625 236.667969 243.441406 236.476562 243.46875 236.277344 L 243.675781 235.101562 C 243.695312 235.003906 243.707031 234.902344 243.71875 234.804688 " fill-opacity="1" fill-rule="nonzero"/><path fill="#d9d9d9" d="M 156.503906 99.214844 C 153.90625 94.90625 151.546875 90.496094 149.546875 85.980469 C 148.546875 83.722656 147.640625 81.4375 146.847656 79.125 C 146.058594 76.8125 145.375 74.476562 144.847656 72.117188 C 143.792969 67.40625 143.328125 62.605469 143.734375 57.894531 C 143.9375 55.542969 144.375 53.226562 145.039062 50.984375 C 145.707031 48.738281 146.605469 46.574219 147.71875 44.523438 C 148.832031 42.472656 150.160156 40.542969 151.65625 38.753906 C 153.144531 36.960938 154.804688 35.3125 156.570312 33.792969 C 158.339844 32.277344 160.214844 30.890625 162.15625 29.613281 C 162.644531 29.296875 163.136719 28.984375 163.625 28.671875 C 164.121094 28.375 164.621094 28.082031 165.121094 27.785156 C 165.617188 27.484375 166.128906 27.214844 166.636719 26.933594 C 167.148438 26.660156 167.648438 26.371094 168.167969 26.117188 C 165.851562 27.167969 163.566406 28.335938 161.351562 29.65625 C 159.136719 30.976562 156.996094 32.464844 154.980469 34.136719 C 154.480469 34.558594 153.992188 34.992188 153.492188 35.421875 C 153.011719 35.871094 152.539062 36.328125 152.0625 36.785156 C 151.832031 37.019531 151.605469 37.257812 151.375 37.496094 L 151.03125 37.855469 C 150.914062 37.972656 150.800781 38.09375 150.695312 38.21875 C 150.472656 38.46875 150.257812 38.71875 150.039062 38.96875 L 149.710938 39.34375 C 149.597656 39.464844 149.5 39.601562 149.394531 39.730469 C 147.714844 41.792969 146.242188 44.050781 145.035156 46.476562 C 143.839844 48.90625 142.9375 51.5 142.316406 54.175781 C 142.269531 54.339844 142.242188 54.507812 142.207031 54.675781 L 142.003906 55.691406 L 141.953125 55.941406 L 141.914062 56.199219 C 141.8125 56.878906 141.6875 57.558594 141.621094 58.246094 C 141.585938 58.589844 141.542969 58.933594 141.507812 59.277344 C 141.484375 59.621094 141.457031 59.96875 141.433594 60.3125 L 141.394531 60.832031 C 141.386719 61.003906 141.382812 61.175781 141.378906 61.351562 C 141.367188 61.695312 141.355469 62.042969 141.34375 62.394531 C 141.292969 65.171875 141.515625 67.960938 141.921875 70.738281 C 141.96875 71.085938 142.03125 71.425781 142.089844 71.773438 C 142.148438 72.121094 142.207031 72.464844 142.269531 72.8125 C 142.339844 73.15625 142.40625 73.5 142.476562 73.847656 C 142.546875 74.1875 142.609375 74.539062 142.695312 74.875 C 142.851562 75.5625 143 76.25 143.183594 76.933594 C 143.269531 77.273438 143.359375 77.617188 143.445312 77.957031 C 143.542969 78.296875 143.640625 78.636719 143.734375 78.976562 C 145.28125 84.414062 147.449219 89.703125 149.972656 94.847656 C 151.28125 97.511719 152.695312 100.132812 154.1875 102.726562 C 155.039062 101.675781 155.886719 100.632812 156.746094 99.605469 C 156.664062 99.476562 156.582031 99.347656 156.503906 99.214844 " fill-opacity="1" fill-rule="nonzero"/><g clip-path="url(#70374a2cce)"><path fill="#d9d9d9" d="M 85.808594 268.253906 C 85.140625 268.300781 84.46875 268.363281 83.800781 268.417969 C 81.125 268.65625 78.457031 268.976562 75.804688 269.398438 C 73.152344 269.824219 70.515625 270.351562 67.910156 271.007812 C 67.257812 271.167969 66.609375 271.351562 65.960938 271.53125 L 65.476562 271.664062 L 64.992188 271.8125 L 64.027344 272.105469 C 63.703125 272.203125 63.386719 272.316406 63.066406 272.421875 L 62.109375 272.742188 L 61.15625 273.089844 C 60.839844 273.203125 60.523438 273.316406 60.210938 273.445312 L 59.269531 273.820312 C 58.957031 273.941406 58.648438 274.085938 58.335938 274.214844 L 57.871094 274.417969 L 57.640625 274.519531 L 57.410156 274.628906 L 56.492188 275.058594 C 55.273438 275.652344 54.070312 276.277344 52.90625 276.988281 L 52.46875 277.246094 C 52.324219 277.335938 52.179688 277.433594 52.039062 277.523438 C 51.753906 277.710938 51.464844 277.890625 51.179688 278.078125 L 50.339844 278.664062 L 50.132812 278.808594 L 49.925781 278.960938 L 49.519531 279.269531 C 48.429688 280.09375 47.378906 280.976562 46.402344 281.9375 C 45.421875 282.898438 44.496094 283.914062 43.652344 284.996094 C 42.808594 286.078125 42.046875 287.222656 41.371094 288.410156 C 40.019531 290.792969 39.027344 293.355469 38.414062 295.96875 C 37.796875 298.582031 37.515625 301.234375 37.511719 303.855469 C 37.503906 306.472656 37.742188 309.058594 38.167969 311.582031 C 39.015625 316.644531 40.539062 321.46875 42.378906 326.074219 C 44.230469 330.6875 46.414062 335.089844 48.785156 339.320312 C 51.160156 343.554688 53.730469 347.621094 56.429688 351.539062 C 59.132812 355.453125 61.957031 359.230469 64.921875 362.835938 C 61.875 358.699219 59 354.378906 56.277344 349.90625 C 53.5625 345.429688 51.007812 340.785156 48.71875 335.972656 C 46.4375 331.152344 44.410156 326.148438 42.890625 320.960938 C 42.136719 318.367188 41.5 315.726562 41.070312 313.050781 C 40.640625 310.375 40.394531 307.664062 40.429688 304.964844 C 40.464844 302.261719 40.789062 299.566406 41.484375 296.972656 C 42.175781 294.382812 43.25 291.902344 44.707031 289.660156 C 46.160156 287.414062 47.992188 285.417969 50.085938 283.703125 C 51.136719 282.847656 52.242188 282.058594 53.398438 281.328125 C 54.5625 280.605469 55.773438 279.953125 57.015625 279.351562 L 57.953125 278.90625 C 58.269531 278.765625 58.589844 278.628906 58.90625 278.492188 C 59.070312 278.425781 59.226562 278.351562 59.386719 278.289062 L 59.875 278.09375 L 60.359375 277.902344 C 60.519531 277.835938 60.679688 277.773438 60.847656 277.714844 L 61.832031 277.359375 C 61.996094 277.292969 62.160156 277.242188 62.328125 277.1875 L 62.828125 277.023438 C 63.488281 276.792969 64.167969 276.597656 64.839844 276.394531 C 67.542969 275.605469 70.324219 275 73.144531 274.519531 C 75.964844 274.035156 78.828125 273.695312 81.714844 273.453125 C 82.992188 273.34375 84.273438 273.261719 85.558594 273.191406 C 85.671875 271.558594 85.808594 269.90625 85.96875 268.242188 C 85.914062 268.246094 85.863281 268.246094 85.808594 268.253906 " fill-opacity="1" fill-rule="nonzero"/></g><g clip-path="url(#e2345d2582)"><path fill="#d9d9d9" d="M 90.710938 353.8125 C 90.613281 354.804688 89.726562 355.53125 88.734375 355.429688 C 87.738281 355.332031 87.015625 354.445312 87.113281 353.453125 C 87.210938 352.460938 88.097656 351.734375 89.089844 351.835938 C 90.085938 351.933594 90.808594 352.816406 90.710938 353.8125 Z M 337.003906 6.824219 C 336.84375 6.882812 336.648438 6.953125 336.410156 7.039062 C 336.179688 7.125 335.914062 7.21875 335.613281 7.332031 C 335.019531 7.550781 334.300781 7.824219 333.472656 8.140625 C 332.644531 8.457031 331.703125 8.820312 330.667969 9.230469 C 329.628906 9.640625 328.492188 10.09375 327.269531 10.59375 C 326.660156 10.84375 326.03125 11.101562 325.375 11.367188 C 324.726562 11.640625 324.050781 11.917969 323.359375 12.207031 C 322.671875 12.496094 321.964844 12.800781 321.238281 13.105469 C 320.515625 13.414062 319.769531 13.730469 319.015625 14.058594 C 318.257812 14.382812 317.484375 14.71875 316.699219 15.0625 C 316.308594 15.234375 315.910156 15.40625 315.511719 15.585938 C 315.3125 15.671875 315.109375 15.757812 314.910156 15.847656 C 314.707031 15.9375 314.507812 16.027344 314.300781 16.117188 C 312.679688 16.832031 311.007812 17.585938 309.300781 18.355469 C 308.445312 18.742188 307.578125 19.132812 306.710938 19.535156 C 305.839844 19.929688 304.964844 20.339844 304.074219 20.746094 C 300.53125 22.378906 296.890625 24.09375 293.226562 25.828125 C 285.898438 29.296875 278.523438 32.871094 271.667969 36.035156 C 267.101562 40.144531 262.707031 44.710938 259.582031 49.066406 C 259.582031 49.066406 259.792969 48.769531 260.175781 48.226562 C 260.566406 47.6875 261.136719 46.898438 261.871094 45.914062 C 263.34375 43.945312 265.472656 41.191406 268.125 38.046875 C 267.714844 38.273438 267.308594 38.496094 266.902344 38.714844 C 266.496094 38.9375 266.085938 39.160156 265.6875 39.382812 C 264.886719 39.828125 264.089844 40.269531 263.296875 40.710938 C 262.511719 41.160156 261.734375 41.601562 260.960938 42.042969 C 260.769531 42.152344 260.574219 42.261719 260.382812 42.375 C 260.191406 42.484375 260 42.59375 259.808594 42.703125 C 259.425781 42.925781 259.050781 43.148438 258.671875 43.367188 C 258.292969 43.585938 257.914062 43.808594 257.539062 44.027344 C 257.167969 44.246094 256.796875 44.464844 256.429688 44.683594 C 256.058594 44.90625 255.6875 45.125 255.320312 45.34375 C 254.957031 45.5625 254.589844 45.78125 254.226562 46 C 253.503906 46.441406 252.785156 46.875 252.074219 47.308594 C 251.898438 47.417969 251.71875 47.527344 251.539062 47.636719 C 251.363281 47.746094 251.191406 47.855469 251.015625 47.964844 C 250.664062 48.179688 250.3125 48.398438 249.964844 48.613281 C 244.390625 52.085938 239.273438 55.503906 234.488281 58.859375 C 229.699219 62.222656 225.246094 65.527344 221.015625 68.800781 C 216.789062 72.078125 212.789062 75.324219 208.90625 78.578125 C 205.023438 81.835938 201.257812 85.101562 197.511719 88.421875 C 193.765625 91.75 190.035156 95.128906 186.226562 98.625 C 182.425781 102.121094 178.550781 105.730469 174.515625 109.515625 C 170.480469 113.300781 166.285156 117.261719 161.859375 121.460938 C 160.921875 122.355469 160.066406 123.265625 159.269531 124.183594 C 158.488281 125.105469 157.777344 126.03125 157.117188 126.957031 C 156.953125 127.191406 156.792969 127.421875 156.632812 127.65625 C 156.472656 127.890625 156.324219 128.121094 156.175781 128.355469 C 155.878906 128.820312 155.59375 129.285156 155.320312 129.746094 C 155.042969 130.210938 154.777344 130.671875 154.523438 131.132812 C 154.394531 131.363281 154.273438 131.589844 154.152344 131.820312 C 154.03125 132.046875 153.914062 132.277344 153.796875 132.503906 C 151.566406 136.84375 149.480469 141.503906 147.710938 146.410156 C 145.9375 151.3125 144.484375 156.460938 143.496094 161.765625 C 143.496094 161.765625 143.5 161.722656 143.507812 161.636719 C 143.515625 161.550781 143.523438 161.425781 143.539062 161.257812 C 143.570312 160.925781 143.625 160.429688 143.699219 159.78125 C 143.773438 159.136719 143.867188 158.347656 144 157.417969 C 144.140625 156.484375 144.3125 155.417969 144.523438 154.222656 C 144.546875 154.074219 144.574219 153.921875 144.601562 153.769531 C 144.632812 153.617188 144.660156 153.460938 144.691406 153.304688 C 144.753906 152.988281 144.820312 152.667969 144.886719 152.335938 C 145.019531 151.675781 145.160156 150.988281 145.316406 150.269531 C 145.390625 149.914062 145.480469 149.546875 145.566406 149.171875 C 145.65625 148.796875 145.75 148.417969 145.84375 148.03125 C 145.9375 147.640625 146.035156 147.25 146.132812 146.847656 C 146.183594 146.648438 146.238281 146.445312 146.285156 146.242188 C 146.339844 146.039062 146.398438 145.832031 146.453125 145.628906 C 146.679688 144.796875 146.917969 143.945312 147.171875 143.066406 C 147.234375 142.84375 147.296875 142.625 147.363281 142.402344 C 147.433594 142.179688 147.5 141.953125 147.570312 141.730469 C 147.710938 141.28125 147.855469 140.824219 148 140.359375 C 148.152344 139.894531 148.300781 139.425781 148.453125 138.953125 C 148.53125 138.71875 148.613281 138.480469 148.695312 138.238281 C 148.777344 138 148.863281 137.757812 148.945312 137.515625 C 149.117188 137.027344 149.289062 136.539062 149.464844 136.042969 C 149.554688 135.792969 149.644531 135.546875 149.734375 135.296875 C 149.777344 135.171875 149.824219 135.046875 149.871094 134.921875 C 149.917969 134.796875 149.964844 134.667969 150.015625 134.542969 C 146.308594 138.824219 142.597656 143.078125 139.035156 147.277344 C 138.59375 147.800781 138.152344 148.328125 137.710938 148.847656 C 137.488281 149.113281 137.269531 149.371094 137.046875 149.632812 L 136.71875 150.023438 L 136.394531 150.414062 C 135.535156 151.457031 134.679688 152.492188 133.832031 153.527344 C 133.726562 153.65625 133.621094 153.785156 133.515625 153.914062 C 133.410156 154.042969 133.304688 154.171875 133.203125 154.300781 C 132.996094 154.558594 132.792969 154.816406 132.585938 155.074219 C 132.175781 155.585938 131.769531 156.097656 131.363281 156.605469 C 131.160156 156.863281 130.957031 157.117188 130.753906 157.375 C 130.554688 157.628906 130.351562 157.882812 130.15625 158.136719 C 129.765625 158.644531 129.378906 159.148438 128.996094 159.65625 C 128.609375 160.160156 128.230469 160.664062 127.851562 161.164062 C 127.664062 161.414062 127.476562 161.667969 127.289062 161.917969 C 127.109375 162.164062 126.925781 162.414062 126.746094 162.660156 C 126.023438 163.660156 125.320312 164.644531 124.632812 165.625 C 124.550781 165.75 124.464844 165.871094 124.378906 165.996094 C 124.296875 166.117188 124.210938 166.238281 124.128906 166.359375 C 123.964844 166.601562 123.804688 166.847656 123.640625 167.089844 C 123.316406 167.574219 122.996094 168.058594 122.683594 168.539062 C 122.371094 169.023438 122.0625 169.503906 121.761719 169.976562 C 121.464844 170.453125 121.179688 170.929688 120.898438 171.398438 C 120.335938 172.339844 119.800781 173.273438 119.292969 174.199219 C 118.796875 175.121094 118.335938 176.03125 117.902344 176.929688 C 117.6875 177.375 117.476562 177.824219 117.277344 178.269531 C 117.078125 178.710938 116.898438 179.152344 116.722656 179.589844 C 116.371094 180.460938 116.054688 181.324219 115.773438 182.171875 C 115.582031 182.75 115.40625 183.304688 115.226562 183.847656 C 115.050781 184.386719 114.875 184.914062 114.699219 185.421875 C 114.523438 185.929688 114.351562 186.417969 114.179688 186.894531 C 114.015625 187.371094 113.855469 187.832031 113.691406 188.28125 C 113.371094 189.171875 113.054688 190.003906 112.738281 190.785156 C 112.582031 191.179688 112.429688 191.554688 112.285156 191.921875 C 112.132812 192.289062 111.984375 192.640625 111.839844 192.984375 C 111.542969 193.671875 111.253906 194.3125 110.964844 194.917969 C 110.820312 195.222656 110.675781 195.515625 110.535156 195.800781 C 110.398438 196.082031 110.261719 196.359375 110.125 196.628906 C 109.574219 197.699219 109.035156 198.644531 108.503906 199.519531 C 108.371094 199.738281 108.238281 199.953125 108.109375 200.164062 C 107.976562 200.375 107.847656 200.578125 107.722656 200.78125 C 107.46875 201.191406 107.214844 201.585938 106.960938 201.972656 C 106.457031 202.75 105.960938 203.507812 105.476562 204.292969 C 105.355469 204.488281 105.234375 204.6875 105.113281 204.886719 C 104.996094 205.089844 104.878906 205.289062 104.761719 205.492188 C 104.53125 205.90625 104.300781 206.332031 104.070312 206.773438 C 103.84375 207.21875 103.621094 207.683594 103.398438 208.171875 C 103.285156 208.414062 103.175781 208.667969 103.066406 208.921875 C 102.957031 209.179688 102.847656 209.445312 102.746094 209.71875 C 100.746094 214.871094 100.050781 219.730469 100.585938 224.070312 C 100.722656 225.152344 100.933594 226.207031 101.21875 227.222656 C 101.507812 228.242188 101.882812 229.21875 102.324219 230.160156 C 102.542969 230.632812 102.78125 231.09375 103.035156 231.542969 C 103.292969 231.996094 103.578125 232.4375 103.871094 232.867188 C 104.46875 233.726562 105.132812 234.550781 105.867188 235.324219 C 106.035156 235.5 106.125 235.589844 106.125 235.589844 C 104.265625 234.84375 102.519531 233.929688 100.886719 232.871094 C 100.480469 232.605469 100.074219 232.332031 99.6875 232.050781 C 99.296875 231.765625 98.917969 231.472656 98.542969 231.171875 C 97.792969 230.570312 97.070312 229.941406 96.375 229.28125 C 95.976562 230.335938 95.597656 231.371094 95.238281 232.382812 C 95.058594 232.890625 94.898438 233.386719 94.738281 233.882812 C 94.578125 234.378906 94.425781 234.867188 94.273438 235.355469 C 94.125 235.835938 93.980469 236.316406 93.839844 236.792969 C 93.703125 237.265625 93.566406 237.734375 93.445312 238.199219 C 93.199219 239.125 92.972656 240.03125 92.765625 240.921875 C 92.664062 241.367188 92.5625 241.8125 92.46875 242.246094 C 92.417969 242.464844 92.375 242.679688 92.335938 242.894531 C 92.292969 243.109375 92.253906 243.328125 92.210938 243.539062 C 92.050781 244.390625 91.90625 245.226562 91.78125 246.046875 C 91.71875 246.453125 91.65625 246.859375 91.601562 247.261719 C 91.546875 247.664062 91.503906 248.058594 91.460938 248.449219 C 91.378906 249.234375 91.308594 250.003906 91.25 250.765625 C 90.820312 256.8125 91.421875 261.929688 92.433594 266.679688 C 92.96875 269.042969 93.5625 271.328125 94.246094 273.578125 C 94.414062 274.140625 94.582031 274.699219 94.75 275.265625 C 94.832031 275.542969 94.914062 275.824219 95 276.105469 C 95.089844 276.386719 95.175781 276.664062 95.261719 276.945312 C 95.617188 278.066406 95.964844 279.191406 96.304688 280.324219 C 96.472656 280.890625 96.644531 281.460938 96.820312 282.035156 C 96.988281 282.609375 97.160156 283.183594 97.320312 283.765625 C 97.484375 284.347656 97.644531 284.9375 97.796875 285.527344 C 97.949219 286.125 98.113281 286.71875 98.261719 287.324219 C 98.414062 287.929688 98.554688 288.539062 98.691406 289.160156 C 98.757812 289.46875 98.824219 289.785156 98.894531 290.097656 C 98.957031 290.414062 99.019531 290.730469 99.085938 291.046875 C 99.34375 292.316406 99.386719 292.273438 99.574219 293.625 L 100.316406 291.804688 C 100.40625 291.277344 100.496094 290.746094 100.59375 290.214844 L 100.890625 288.625 L 101.488281 285.4375 C 101.535156 285.171875 101.589844 284.902344 101.644531 284.636719 L 101.804688 283.835938 L 102.121094 282.238281 C 104.308594 274.714844 106.703125 267.144531 109.324219 259.539062 L 109.566406 258.828125 L 109.820312 258.113281 L 110.324219 256.683594 L 111.335938 253.828125 L 112.382812 250.964844 L 112.910156 249.53125 L 113.171875 248.820312 L 113.441406 248.097656 L 114.53125 245.230469 L 115.078125 243.792969 L 115.640625 242.355469 L 116.769531 239.480469 C 116.957031 239.003906 117.152344 238.519531 117.347656 238.042969 L 118.519531 235.160156 C 118.714844 234.675781 118.90625 234.199219 119.109375 233.71875 L 120.925781 229.382812 L 121.550781 227.9375 L 122.804688 225.046875 L 122.960938 224.683594 L 123.121094 224.320312 L 123.445312 223.59375 L 124.089844 222.144531 L 124.738281 220.695312 L 125.0625 219.972656 L 125.394531 219.246094 C 126.289062 217.308594 127.164062 215.375 128.09375 213.433594 L 128.785156 211.980469 L 129.128906 211.253906 L 129.300781 210.886719 L 129.476562 210.523438 L 130.898438 207.609375 L 131.25 206.878906 C 131.371094 206.636719 131.488281 206.394531 131.613281 206.148438 L 132.34375 204.691406 L 133.074219 203.230469 L 133.4375 202.5 C 133.5625 202.257812 133.683594 202.015625 133.808594 201.769531 L 135.3125 198.847656 L 135.691406 198.113281 C 135.816406 197.871094 135.941406 197.628906 136.070312 197.382812 L 136.84375 195.921875 L 137.621094 194.457031 L 138.007812 193.722656 L 138.203125 193.359375 L 138.398438 192.992188 L 139.992188 190.058594 C 142.140625 186.148438 144.34375 182.234375 146.660156 178.308594 L 147.523438 176.835938 L 148.40625 175.363281 L 149.292969 173.890625 L 149.734375 173.152344 C 149.878906 172.90625 150.027344 172.664062 150.179688 172.417969 L 151.996094 169.46875 L 152.449219 168.734375 L 153.84375 166.519531 L 154.773438 165.046875 C 155.085938 164.554688 155.40625 164.0625 155.722656 163.570312 L 157.152344 161.355469 L 157.390625 160.988281 L 157.632812 160.617188 L 159.582031 157.667969 C 159.902344 157.171875 160.242188 156.679688 160.574219 156.1875 L 161.570312 154.710938 L 162.070312 153.972656 C 162.234375 153.726562 162.402344 153.476562 162.574219 153.230469 L 163.59375 151.753906 C 164.273438 150.769531 164.945312 149.785156 165.648438 148.796875 L 167.210938 146.582031 L 167.472656 146.210938 L 167.738281 145.839844 L 169.871094 142.886719 C 175.617188 135 181.75 127.117188 188.34375 119.257812 C 194.941406 111.398438 201.984375 103.566406 209.523438 95.800781 C 201.507812 104.257812 194.078125 112.78125 187.195312 121.320312 C 180.308594 129.855469 173.960938 138.414062 168.078125 146.953125 L 166.4375 149.355469 L 166.164062 149.757812 L 165.894531 150.160156 L 163.757812 153.355469 L 161.667969 156.558594 C 161.492188 156.824219 161.316406 157.09375 161.148438 157.359375 L 160.636719 158.15625 L 159.617188 159.753906 C 156.914062 164.015625 154.3125 168.273438 151.816406 172.523438 C 149.332031 176.769531 146.949219 181.007812 144.652344 185.242188 L 142.957031 188.414062 C 142.667969 188.945312 142.398438 189.46875 142.121094 189.996094 L 141.296875 191.582031 L 140.472656 193.164062 L 139.671875 194.75 L 138.871094 196.328125 C 138.605469 196.855469 138.332031 197.382812 138.078125 197.90625 L 136.523438 201.066406 L 136.132812 201.851562 L 135.757812 202.640625 L 135.003906 204.214844 L 134.25 205.792969 L 134.0625 206.1875 L 133.878906 206.578125 L 133.515625 207.367188 L 132.054688 210.511719 L 130.636719 213.652344 L 129.933594 215.222656 L 129.246094 216.789062 C 128.792969 217.832031 128.332031 218.875 127.882812 219.921875 L 126.558594 223.042969 L 126.226562 223.824219 C 126.117188 224.089844 126.007812 224.347656 125.902344 224.609375 L 125.261719 226.167969 L 124.625 227.730469 L 124.304688 228.507812 C 124.195312 228.769531 124.089844 229.027344 123.988281 229.289062 L 122.757812 232.398438 L 122.449219 233.179688 C 122.34375 233.4375 122.242188 233.699219 122.144531 233.957031 L 121.550781 235.511719 L 120.363281 238.613281 L 119.21875 241.714844 L 118.644531 243.265625 L 118.09375 244.808594 L 116.992188 247.902344 C 116.898438 248.160156 116.8125 248.417969 116.722656 248.671875 L 116.457031 249.445312 L 115.402344 252.53125 L 115.136719 253.300781 L 114.886719 254.070312 C 114.210938 256.121094 113.515625 258.175781 112.878906 260.21875 L 111.910156 263.289062 L 110.976562 266.347656 C 110.34375 268.390625 109.765625 270.425781 109.171875 272.457031 C 107.980469 276.585938 87.660156 338.207031 87.28125 339.347656 L 76.886719 367.234375 C 76.65625 367.851562 77.449219 368.34375 77.898438 367.855469 C 82.996094 362.300781 93.0625 355.75 95.898438 353.949219 C 96.234375 353.738281 96.214844 353.25 95.875 353.046875 C 95.09375 352.589844 94.382812 352.050781 93.734375 351.460938 L 92.609375 350.765625 C 91.082031 349.816406 90.441406 347.914062 91.085938 346.234375 L 91.707031 344.625 C 92.066406 343.683594 92.425781 342.746094 92.785156 341.808594 C 92.84375 341.660156 103.238281 312.335938 109.269531 294.847656 C 111.429688 293.628906 113.863281 291.867188 116.46875 289.636719 C 117.121094 289.078125 117.78125 288.488281 118.457031 287.871094 C 119.128906 287.257812 119.808594 286.613281 120.511719 285.941406 C 121.914062 284.59375 123.351562 283.136719 124.824219 281.582031 C 130.726562 275.34375 137.214844 267.453125 144.003906 258.367188 C 140.628906 261.140625 137.109375 263.851562 133.5625 266.390625 C 131.78125 267.664062 129.976562 268.890625 128.160156 270.066406 C 126.355469 271.242188 124.535156 272.363281 122.699219 273.421875 C 122.699219 273.421875 123.035156 273.148438 123.644531 272.636719 C 124.257812 272.125 125.140625 271.371094 126.253906 270.402344 C 127.378906 269.433594 128.722656 268.25 130.238281 266.882812 C 130.996094 266.199219 131.796875 265.46875 132.632812 264.699219 C 133.472656 263.925781 134.355469 263.109375 135.265625 262.253906 C 137.082031 260.542969 139.003906 258.683594 141.03125 256.6875 C 142.035156 255.691406 143.058594 254.660156 144.089844 253.605469 C 144.605469 253.078125 145.128906 252.542969 145.65625 252 C 146.179688 251.457031 146.707031 250.90625 147.234375 250.355469 C 151.441406 245.910156 155.769531 241.066406 159.765625 236.023438 C 160.957031 234.253906 162.121094 232.46875 163.324219 230.65625 C 163.921875 229.75 164.515625 228.835938 165.105469 227.921875 C 165.703125 227.003906 166.304688 226.082031 166.902344 225.152344 C 167.199219 224.6875 167.496094 224.222656 167.792969 223.753906 C 167.941406 223.523438 168.089844 223.289062 168.238281 223.054688 C 168.386719 222.820312 168.539062 222.585938 168.691406 222.355469 C 169.292969 221.414062 169.894531 220.472656 170.488281 219.523438 C 171.078125 218.574219 171.6875 217.625 172.289062 216.664062 C 172.585938 216.1875 172.886719 215.707031 173.183594 215.226562 C 173.335938 214.988281 173.484375 214.746094 173.632812 214.503906 C 173.78125 214.261719 173.929688 214.023438 174.082031 213.78125 C 174.648438 212.816406 175.179688 211.957031 175.683594 211.199219 C 175.996094 210.6875 176.304688 210.179688 176.617188 209.664062 C 176.933594 209.15625 177.25 208.640625 177.566406 208.125 C 177.878906 207.613281 178.191406 207.101562 178.507812 206.582031 C 178.660156 206.324219 178.816406 206.066406 178.972656 205.808594 C 179.050781 205.679688 179.128906 205.546875 179.207031 205.417969 C 179.285156 205.292969 179.363281 205.160156 179.445312 205.03125 C 173.105469 211.332031 167.472656 216.828125 163.398438 220.746094 C 161.371094 222.703125 159.707031 224.273438 158.585938 225.34375 C 157.457031 226.417969 156.828125 227 156.828125 227 C 159.386719 224.34375 161.855469 221.773438 164.167969 219.289062 C 165.339844 218.046875 166.472656 216.824219 167.574219 215.628906 C 167.847656 215.328125 168.121094 215.03125 168.394531 214.734375 C 168.664062 214.4375 168.9375 214.140625 169.210938 213.847656 C 169.75 213.257812 170.28125 212.675781 170.804688 212.097656 C 171.328125 211.523438 171.84375 210.953125 172.347656 210.382812 C 172.859375 209.820312 173.363281 209.261719 173.859375 208.703125 C 174.355469 208.148438 174.84375 207.601562 175.324219 207.058594 C 175.800781 206.515625 176.273438 205.976562 176.746094 205.445312 C 178.628906 203.316406 180.363281 201.277344 182.03125 199.335938 C 183.863281 197.164062 185.460938 194.972656 186.726562 192.792969 C 187.128906 192.113281 187.507812 191.425781 187.867188 190.738281 C 188.050781 190.398438 188.222656 190.054688 188.398438 189.710938 C 188.570312 189.367188 188.742188 189.023438 188.914062 188.675781 C 189.257812 187.988281 189.59375 187.296875 189.929688 186.609375 C 190.265625 185.914062 190.597656 185.222656 190.957031 184.523438 C 191.308594 183.832031 191.675781 183.132812 192.054688 182.4375 C 192.246094 182.089844 192.4375 181.738281 192.640625 181.390625 C 192.847656 181.039062 193.058594 180.6875 193.273438 180.339844 C 194.144531 178.941406 195.109375 177.535156 196.285156 176.132812 C 196.917969 175.371094 197.519531 174.632812 198.09375 173.921875 C 198.671875 173.210938 199.226562 172.519531 199.753906 171.855469 C 200.277344 171.1875 200.769531 170.539062 201.25 169.914062 C 201.730469 169.289062 202.183594 168.683594 202.613281 168.09375 C 203.046875 167.503906 203.449219 166.933594 203.835938 166.378906 C 204.230469 165.824219 204.597656 165.285156 204.945312 164.757812 C 205.292969 164.234375 205.621094 163.722656 205.929688 163.226562 C 206.082031 162.976562 206.238281 162.730469 206.390625 162.488281 C 206.539062 162.246094 206.679688 162.003906 206.820312 161.765625 C 207.101562 161.289062 207.367188 160.824219 207.609375 160.367188 C 207.859375 159.910156 208.089844 159.464844 208.316406 159.023438 C 208.769531 158.140625 209.167969 157.285156 209.527344 156.449219 C 209.617188 156.234375 209.703125 156.027344 209.792969 155.816406 C 209.882812 155.613281 209.964844 155.402344 210.050781 155.195312 C 210.21875 154.78125 210.382812 154.367188 210.53125 153.953125 C 210.6875 153.539062 210.835938 153.128906 210.980469 152.714844 C 211.132812 152.296875 211.277344 151.882812 211.421875 151.460938 C 211.566406 151.042969 211.707031 150.621094 211.851562 150.191406 C 211.917969 149.980469 211.988281 149.761719 212.0625 149.546875 C 212.136719 149.328125 212.210938 149.113281 212.285156 148.890625 C 212.582031 148.011719 212.890625 147.105469 213.21875 146.15625 C 213.566406 145.210938 213.929688 144.222656 214.335938 143.183594 C 214.75 142.140625 215.214844 141.046875 215.726562 139.882812 C 215.992188 139.304688 216.273438 138.707031 216.570312 138.09375 C 216.71875 137.78125 216.871094 137.46875 217.027344 137.152344 C 217.101562 136.992188 217.183594 136.832031 217.261719 136.675781 C 217.347656 136.511719 217.429688 136.351562 217.515625 136.1875 C 217.851562 135.53125 218.214844 134.859375 218.589844 134.164062 C 218.6875 133.988281 218.78125 133.816406 218.878906 133.636719 C 218.976562 133.460938 219.082031 133.285156 219.179688 133.105469 C 219.386719 132.746094 219.597656 132.382812 219.8125 132.015625 C 221.539062 129.058594 223.679688 125.730469 226.449219 121.957031 C 215.558594 130.003906 205.660156 137.324219 198.46875 142.644531 C 197.550781 143.324219 196.679688 143.96875 195.855469 144.582031 C 195.019531 145.195312 194.238281 145.773438 193.5 146.316406 C 192.039062 147.398438 190.765625 148.339844 189.71875 149.105469 C 189.457031 149.296875 189.207031 149.476562 188.976562 149.648438 C 188.742188 149.820312 188.527344 149.976562 188.328125 150.125 C 187.925781 150.421875 187.582031 150.671875 187.304688 150.875 C 186.75 151.277344 186.457031 151.492188 186.457031 151.492188 C 197.929688 142.386719 207.699219 134.386719 215.886719 127.535156 C 220.582031 123.609375 224.8125 119.597656 228.578125 115.546875 C 232.347656 111.496094 235.644531 107.402344 238.449219 103.285156 C 240.441406 100.367188 242.484375 97.453125 244.582031 94.550781 C 246.679688 91.648438 248.839844 88.765625 251.050781 85.902344 C 255.464844 80.179688 260.085938 74.546875 264.867188 69.097656 C 260.84375 71.125 257.09375 73.042969 253.726562 74.777344 C 252.882812 75.210938 252.066406 75.632812 251.277344 76.039062 C 251.082031 76.144531 250.882812 76.242188 250.691406 76.347656 C 250.496094 76.445312 250.300781 76.546875 250.113281 76.644531 C 249.730469 76.84375 249.355469 77.039062 248.988281 77.230469 C 248.25 77.613281 247.542969 77.980469 246.863281 78.335938 C 246.183594 78.6875 245.535156 79.027344 244.921875 79.351562 C 244.300781 79.671875 243.714844 79.980469 243.160156 80.269531 C 242.609375 80.558594 242.089844 80.832031 241.609375 81.085938 C 240.632812 81.597656 239.808594 82.03125 239.132812 82.378906 C 237.785156 83.089844 237.054688 83.46875 237.054688 83.46875 C 242.710938 80.25 248.054688 77.214844 253.089844 74.367188 C 258.125 71.519531 262.859375 68.859375 267.277344 66.378906 C 267.53125 66.132812 267.789062 65.882812 268.046875 65.636719 L 268.429688 65.265625 L 268.816406 64.894531 C 269.332031 64.402344 269.84375 63.910156 270.355469 63.417969 C 270.867188 62.925781 271.378906 62.4375 271.890625 61.953125 C 272.144531 61.707031 272.398438 61.464844 272.65625 61.21875 C 272.910156 60.976562 273.164062 60.734375 273.421875 60.492188 C 274.433594 59.519531 275.457031 58.5625 276.464844 57.601562 C 276.972656 57.121094 277.480469 56.648438 277.984375 56.167969 C 278.109375 56.050781 278.234375 55.929688 278.363281 55.8125 C 278.488281 55.691406 278.613281 55.578125 278.742188 55.457031 C 278.996094 55.21875 279.246094 54.984375 279.496094 54.75 C 283.523438 50.972656 287.507812 47.320312 291.410156 43.808594 C 293.363281 42.058594 295.292969 40.34375 297.199219 38.675781 C 299.105469 37.007812 300.984375 35.378906 302.835938 33.804688 C 306.53125 30.65625 310.089844 27.695312 313.453125 24.984375 C 316.8125 22.273438 319.964844 19.800781 322.824219 17.613281 C 325.679688 15.425781 328.234375 13.523438 330.390625 11.941406 C 332.546875 10.363281 334.296875 9.105469 335.535156 8.207031 C 336.152344 7.761719 336.648438 7.398438 336.984375 7.132812 C 337.324219 6.871094 337.496094 6.710938 337.488281 6.652344 C 337.488281 6.652344 337.324219 6.710938 337.003906 6.824219 " fill-opacity="1" fill-rule="nonzero"/></g></svg>