<svg xmlns="http://www.w3.org/2000/svg" version="1.1" xmlns:xlink="http://www.w3.org/1999/xlink" xmlns:svgjs="http://svgjs.dev/svgjs" width="32px" height="32px"><svg xmlns="http://www.w3.org/2000/svg" xmlns:xlink="http://www.w3.org/1999/xlink" width="32px" height="32px" viewBox="0 0 32 32" version="1.1">
<g id="SvgjsG1061">
<path style=" stroke:none;fill-rule:nonzero;fill:rgb(15.294118%,20.392157%,36.470589%);fill-opacity:1;" d="M 5 1.695312 C 6.320312 1.148438 7.59375 0.871094 8.816406 0.871094 C 9.832031 0.871094 10.878906 1.25 11.957031 2 C 12.546875 2.410156 13.210938 3.203125 13.945312 4.382812 C 14.433594 5.195312 15.050781 6.671875 15.804688 8.808594 L 19.53125 19.371094 C 20.382812 21.734375 21.253906 23.609375 22.140625 25.003906 C 23.027344 26.398438 23.835938 27.449219 24.566406 28.148438 C 25.300781 28.851562 26.0625 29.34375 26.855469 29.628906 C 27.652344 29.914062 28.308594 30.058594 28.828125 30.058594 C 29.34375 30.058594 29.808594 30.015625 30.214844 29.933594 L 30.246094 30.242188 C 29.269531 30.566406 28.3125 30.730469 27.375 30.730469 C 26.441406 30.730469 25.503906 30.488281 24.566406 30.011719 C 23.632812 29.53125 22.757812 28.867188 21.941406 28.011719 C 20.191406 26.242188 18.707031 23.546875 17.484375 19.921875 L 16.292969 16.441406 L 7.929688 16.441406 L 5.824219 21.875 C 5.722656 22.121094 5.671875 22.363281 5.671875 22.609375 C 5.671875 22.851562 5.777344 23.113281 5.992188 23.386719 C 6.203125 23.660156 6.535156 23.800781 6.984375 23.800781 L 7.226562 23.800781 L 7.226562 24.105469 L 1.089844 24.105469 L 1.089844 23.800781 L 1.367188 23.800781 C 1.855469 23.800781 2.332031 23.652344 2.800781 23.355469 C 3.269531 23.0625 3.65625 22.617188 3.960938 22.027344 L 11.53125 3.894531 C 10.433594 2.328125 9.070312 1.542969 7.441406 1.542969 C 6.707031 1.542969 5.925781 1.695312 5.089844 2 Z M 8.265625 15.527344 L 15.988281 15.527344 L 13.578125 8.414062 C 13.109375 7.050781 12.679688 5.980469 12.292969 5.207031 Z M 8.265625 15.527344 "></path>
<path style=" stroke:none;fill-rule:nonzero;fill:rgb(15.294118%,20.392157%,36.470589%);fill-opacity:1;" d="M 16.414062 16.566406 C 15.355469 17.949219 14.824219 19.445312 14.824219 21.054688 C 14.824219 22.96875 15.628906 24.453125 17.234375 25.511719 C 18.171875 26.144531 19.234375 26.457031 20.425781 26.457031 C 21.617188 26.457031 22.648438 26.222656 23.527344 25.757812 C 25.171875 24.902344 26.097656 23.46875 26.304688 21.453125 C 26.324219 21.308594 26.332031 21.167969 26.332031 21.023438 C 26.332031 20.269531 26.125 19.457031 25.707031 18.582031 C 25.289062 17.707031 24.613281 16.902344 23.675781 16.171875 L 18.183594 11.835938 C 16.980469 10.898438 16.382812 9.6875 16.382812 8.203125 C 16.382812 6.714844 16.859375 5.460938 17.816406 4.433594 C 18.773438 3.40625 20.066406 2.890625 21.695312 2.890625 C 22.507812 2.890625 23.394531 2.992188 24.351562 3.195312 L 25.570312 3.195312 L 25.632812 6.949219 L 25.328125 6.949219 C 25.304688 5.972656 24.957031 5.207031 24.273438 4.644531 C 23.589844 4.085938 22.738281 3.804688 21.707031 3.804688 C 20.679688 3.804688 19.820312 4.148438 19.128906 4.828125 C 18.4375 5.511719 18.089844 6.386719 18.089844 7.453125 C 18.089844 8.523438 18.539062 9.414062 19.433594 10.125 L 25.082031 14.582031 C 27.320312 16.351562 28.441406 18.492188 28.441406 20.992188 C 28.441406 22.867188 27.699219 24.472656 26.210938 25.816406 C 24.929688 26.976562 23.21875 27.558594 21.082031 27.558594 C 19.78125 27.558594 18.621094 27.3125 17.601562 26.824219 C 15.6875 25.929688 14.539062 24.402344 14.152344 22.246094 C 14.089844 21.917969 14.0625 21.507812 14.0625 21.007812 C 14.0625 20.511719 14.203125 19.828125 14.488281 18.964844 C 14.773438 18.097656 15.324219 17.230469 16.136719 16.351562 Z M 16.414062 16.566406 "></path>
</g>
</svg><style>@media (prefers-color-scheme: light) { :root { filter: none; } }
@media (prefers-color-scheme: dark) { :root { filter: invert(100%); } }
</style></svg>